<?xml version="1.0" encoding="UTF-8" standalone="no"?>
<!-- Generator: Adobe Illustrator 15.0.1, SVG Export Plug-In . SVG Version: 6.00 Build 0)  -->

<svg
   xmlns:dc="http://purl.org/dc/elements/1.1/"
   xmlns:cc="http://creativecommons.org/ns#"
   xmlns:rdf="http://www.w3.org/1999/02/22-rdf-syntax-ns#"
   xmlns:svg="http://www.w3.org/2000/svg"
   xmlns="http://www.w3.org/2000/svg"
   xmlns:sodipodi="http://sodipodi.sourceforge.net/DTD/sodipodi-0.dtd"
   xmlns:inkscape="http://www.inkscape.org/namespaces/inkscape"
   version="1.1"
   id="svg2"
   x="0px"
   y="0px"
   width="832.686px"
   height="755.327px"
   viewBox="-18.408 -38.792 832.686 755.327"
   enable-background="new -18.408 -38.792 832.686 755.327"
   xml:space="preserve"
   inkscape:version="0.91 r13725"
   sodipodi:docname="Conjugation.svg"><title
     id="title4424">Conjugation</title><metadata
     id="metadata224"><rdf:RDF><cc:Work
         rdf:about=""><dc:format>image/svg+xml</dc:format><dc:type
           rdf:resource="http://purl.org/dc/dcmitype/StillImage" /><dc:title>Conjugation</dc:title><cc:license
           rdf:resource="http://creativecommons.org/licenses/by-sa/3.0/" /><dc:contributor><cc:Agent><dc:title>https://commons.wikimedia.org/wiki/User:Adenosine , https://commons.wikimedia.org/wiki/User:Nyq</dc:title></cc:Agent></dc:contributor><dc:creator><cc:Agent><dc:title>Mike Jones</dc:title></cc:Agent></dc:creator><dc:rights><cc:Agent><dc:title>CC-BY-SA 3.0</dc:title></cc:Agent></dc:rights><dc:description>https://commons.wikimedia.org/wiki/File:Conjugation.svg</dc:description></cc:Work><cc:License
         rdf:about="http://creativecommons.org/licenses/by-sa/3.0/"><cc:permits
           rdf:resource="http://creativecommons.org/ns#Reproduction" /><cc:permits
           rdf:resource="http://creativecommons.org/ns#Distribution" /><cc:requires
           rdf:resource="http://creativecommons.org/ns#Notice" /><cc:requires
           rdf:resource="http://creativecommons.org/ns#Attribution" /><cc:permits
           rdf:resource="http://creativecommons.org/ns#DerivativeWorks" /><cc:requires
           rdf:resource="http://creativecommons.org/ns#ShareAlike" /></cc:License></rdf:RDF></metadata><defs
     id="defs222"><radialGradient
       id="path2160_7_"
       cx="188.666"
       cy="493.7515"
       r="150.9614"
       gradientTransform="matrix(1.2053,0,0,0.457,-23.6749,-178.2137)"
       gradientUnits="userSpaceOnUse"><stop
         offset="0"
         style="stop-color:#8DFF70"
         id="stop10" /><stop
         offset="1"
         style="stop-color:#26901D;stop-opacity:0.7938"
         id="stop12" /><stop
         offset="1"
         style="stop-color:#FFFFFF;stop-opacity:0"
         id="stop14" /></radialGradient><radialGradient
       id="path2160_8_"
       cx="563.67578"
       cy="493.7515"
       r="150.96339"
       gradientTransform="matrix(1.2053,0,0,0.457,-23.6749,-178.2137)"
       gradientUnits="userSpaceOnUse"><stop
         offset="0"
         style="stop-color:#8DFF70"
         id="stop28" /><stop
         offset="1"
         style="stop-color:#26901D;stop-opacity:0.7938"
         id="stop30" /><stop
         offset="1"
         style="stop-color:#FFFFFF;stop-opacity:0"
         id="stop32" /></radialGradient></defs><sodipodi:namedview
     pagecolor="#ffffff"
     bordercolor="#666666"
     borderopacity="1"
     objecttolerance="10"
     gridtolerance="10"
     guidetolerance="10"
     inkscape:pageopacity="0"
     inkscape:pageshadow="2"
     inkscape:window-width="1680"
     inkscape:window-height="1000"
     id="namedview220"
     showgrid="false"
     inkscape:zoom="0.59806459"
     inkscape:cx="697.34349"
     inkscape:cy="501.67319"
     inkscape:window-x="0"
     inkscape:window-y="0"
     inkscape:window-maximized="1"
     inkscape:current-layer="svg2" /><g
     id="g46"><g
       id="g48"><path
         fill="#828282"
         stroke="#231F20"
         d="M497.041,232.085l-132.279,0.734c-2.08-1.137-2.041-2.061-4.846-2.047l-0.045-1.213    l0.045,20.084h0.359c3.381-0.018,3.545-1.217,5.768-2.83l130.875-0.064c3.863-0.018,2.492-3.709,2.475-7.574    C499.373,235.307,500.906,232.067,497.041,232.085z"
         id="path50" /><radialGradient
         id="path2160_9_"
         cx="194.8887"
         cy="915.2075"
         r="150.9841"
         gradientTransform="matrix(1.2053 0 0 0.457 -23.6749 -178.2137)"
         gradientUnits="userSpaceOnUse"><stop
           offset="0"
           style="stop-color:#8DFF70"
           id="stop53" /><stop
           offset="1"
           style="stop-color:#26901D;stop-opacity:0.7938"
           id="stop55" /><stop
           offset="1"
           style="stop-color:#FFFFFF;stop-opacity:0"
           id="stop57" /></radialGradient><path
         id="path2160_3_"
         fill="url(#path2160_9_)"
         stroke="#000000"
         stroke-width="2.5"
         stroke-linejoin="round"
         d="M111.02,190.571    h199.947c0,0,49.757-2.418,49.757,49.426c0,51.844-46.071,49.506-46.071,49.506H111.02c0,0-49.296,0.994-49.296-49.922    C61.724,188.669,111.02,190.571,111.02,190.571z" /><path
         id="path4345_1_"
         fill="none"
         stroke="#050080"
         stroke-width="3"
         stroke-linejoin="round"
         d="M333.937,251.749    c0,12.99-10.729,23.52-23.963,23.52s-23.963-10.529-23.963-23.52c0-12.988,10.729-23.518,23.963-23.518    S333.937,238.76,333.937,251.749z" /><path
         id="path5316_1_"
         fill="none"
         stroke="#050080"
         stroke-width="3"
         stroke-linejoin="round"
         d="M338.974,251.749    c0,15.721-12.983,28.465-29,28.465s-29-12.744-29-28.465s12.983-28.465,29-28.465S338.974,236.028,338.974,251.749z" /><path
         id="path5321_3_"
         fill="none"
         stroke="#7A0000"
         stroke-width="3"
         stroke-linejoin="round"
         d="M90.01,234.313    c18.351,6.211,35.847,17.25,55.828,16.789c6.296-0.123,13.38-1.154,17.372-6.633c3.88-4.195,2.413-10.879-2.172-13.898    c-10.733-10.635-30.523-8.906-39.235,3.449c-5.752,7.316-2.129,17.881,4.251,23.533c9.025,8.504,22.255,9.004,33.938,8.154    c7.463-0.412,15.037-1.033,22.429,0.439c6.153,1.969,4.139,9.75-0.352,12.344c-4.035,3.713-10.848,4.154-14.64-0.139    c-5.285-6.238-2.152-17.217,5.645-19.746c8.955-4.941,21.037-5.15,27.197-14.377c4.283-10.219-1.21-21.85-9.498-28.24    c-9.647-7.443-22.51-8.908-34.336-8.66c-12.49,0.436-24.848,2.598-37.325,3.186c-17.835,2.748-32.271,19.021-34.006,36.787    c-0.198,9.059,6.203,19.117,15.816,19.832c8.225,0.205,13.831-8.139,14.194-15.695c0.728-10.537-2.104-21.83-9.312-29.773    c-5.102-5.818-14.036-9.506-21.23-5.283c-4.885,2.234-4.933,8.811-1.903,12.584C84.411,231.473,86.939,233.708,90.01,234.313z" /><path
         id="path7278_3_"
         fill="none"
         stroke="#7A0000"
         stroke-width="3"
         stroke-linejoin="round"
         d="M93.048,230.448    c18.35,6.213,35.846,17.252,55.828,16.791c6.296-0.123,13.379-1.156,17.372-6.633c3.88-4.197,2.412-10.881-2.172-13.898    c-10.734-10.635-30.523-8.906-39.235,3.447c-5.752,7.318-2.129,17.883,4.25,23.535c9.026,8.502,22.256,9.004,33.938,8.154    c7.463-0.412,15.038-1.035,22.43,0.438c6.153,1.971,4.139,9.752-0.352,12.344c-4.035,3.713-10.848,4.156-14.64-0.137    c-5.285-6.24-2.152-17.217,5.645-19.748c8.955-4.939,21.037-5.148,27.196-14.375c4.284-10.221-1.21-21.85-9.497-28.24    c-9.648-7.444-22.51-8.908-34.336-8.661c-12.49,0.437-24.848,2.599-37.326,3.187c-17.834,2.748-32.271,19.02-34.005,36.787    c-0.198,9.057,6.202,19.117,15.815,19.832c8.226,0.203,13.831-8.139,14.195-15.697c0.728-10.535-2.104-21.828-9.312-29.771    c-5.103-5.818-14.036-9.508-21.23-5.285c-4.885,2.234-4.933,8.812-1.903,12.584C87.449,227.608,89.977,229.844,93.048,230.448z" /><radialGradient
         id="path2160_10_"
         cx="557.4531"
         cy="915.2075"
         r="150.9857"
         gradientTransform="matrix(1.2053 0 0 0.457 -23.6749 -178.2137)"
         gradientUnits="userSpaceOnUse"><stop
           offset="0"
           style="stop-color:#8DFF70"
           id="stop65" /><stop
           offset="1"
           style="stop-color:#26901D;stop-opacity:0.7938"
           id="stop67" /><stop
           offset="1"
           style="stop-color:#FFFFFF;stop-opacity:0"
           id="stop69" /></radialGradient><path
         id="path2160_2_"
         fill="url(#path2160_10_)"
         stroke="#000000"
         stroke-width="2.5"
         stroke-linejoin="round"
         d="    M548.019,190.571h199.947c0,0,49.758-2.418,49.758,49.426c0,51.844-46.071,49.506-46.071,49.506H548.019    c0,0-49.295,0.994-49.295-49.922C498.724,188.669,548.019,190.571,548.019,190.571z" /><path
         id="path5321_2_"
         fill="none"
         stroke="#7A0000"
         stroke-width="3"
         stroke-linejoin="round"
         d="M660.01,234.313    c18.353,6.211,35.849,17.25,55.828,16.789c6.297-0.123,13.381-1.154,17.373-6.633c3.879-4.195,2.412-10.879-2.172-13.898    c-10.734-10.635-30.523-8.906-39.236,3.449c-5.752,7.316-2.129,17.881,4.252,23.533c9.025,8.504,22.254,9.004,33.938,8.154    c7.463-0.412,15.037-1.033,22.43,0.439c6.152,1.969,4.139,9.75-0.352,12.344c-4.035,3.713-10.849,4.154-14.642-0.139    c-5.285-6.238-2.151-17.217,5.646-19.746c8.955-4.941,21.037-5.15,27.197-14.377c4.282-10.219-1.209-21.85-9.498-28.24    c-9.646-7.443-22.511-8.908-34.336-8.66c-12.49,0.436-24.849,2.598-37.324,3.186c-17.836,2.748-32.271,19.021-34.006,36.787    c-0.199,9.059,6.203,19.117,15.815,19.832c8.226,0.205,13.83-8.139,14.193-15.695c0.729-10.537-2.104-21.83-9.312-29.773    c-5.102-5.818-14.034-9.506-21.229-5.283c-4.885,2.234-4.933,8.811-1.902,12.584C654.412,231.473,656.939,233.708,660.01,234.313z    " /><path
         id="path7278_2_"
         fill="none"
         stroke="#7A0000"
         stroke-width="3"
         stroke-linejoin="round"
         d="M663.049,230.448    c18.351,6.213,35.846,17.252,55.828,16.791c6.295-0.123,13.379-1.156,17.371-6.633c3.881-4.197,2.412-10.881-2.172-13.898    c-10.734-10.635-30.523-8.906-39.234,3.447c-5.752,7.318-2.129,17.883,4.25,23.535c9.025,8.502,22.256,9.004,33.938,8.154    c7.463-0.412,15.039-1.035,22.43,0.438c6.154,1.971,4.139,9.752-0.352,12.344c-4.035,3.713-10.849,4.156-14.64-0.137    c-5.285-6.24-2.151-17.217,5.646-19.748c8.955-4.939,21.037-5.148,27.194-14.375c4.285-10.221-1.209-21.85-9.495-28.24    c-9.648-7.444-22.511-8.908-34.337-8.661c-12.489,0.437-24.848,2.599-37.325,3.187c-17.834,2.748-32.271,19.02-34.006,36.787    c-0.197,9.057,6.202,19.117,15.815,19.832c8.225,0.203,13.83-8.139,14.195-15.697c0.727-10.535-2.105-21.828-9.312-29.771    c-5.104-5.818-14.037-9.508-21.229-5.285c-4.885,2.234-4.935,8.812-1.904,12.584C657.449,227.608,659.976,229.844,663.049,230.448    z" /><linearGradient
         id="SVGID_1_"
         gradientUnits="userSpaceOnUse"
         x1="390.0513"
         y1="549.7456"
         x2="390.4006"
         y2="526.5422"
         gradientTransform="matrix(1 0 0 -1 0 804.5557)"><stop
           offset="0"
           style="stop-color:#7D0000"
           id="stop75" /><stop
           offset="1"
           style="stop-color:#FF002E"
           id="stop77" /></linearGradient><polygon
         fill="url(#SVGID_1_)"
         stroke="#000000"
         stroke-width="1.1061"
         stroke-linejoin="round"
         points="417.9,263.303     395.273,251.194 395.271,257.276 362.568,257.276 362.568,270.69 395.265,270.69 395.261,276.858   "
         id="polygon79" /><linearGradient
         id="SVGID_2_"
         gradientUnits="userSpaceOnUse"
         x1="458.6172"
         y1="96.7632"
         x2="458.9666"
         y2="73.5589"
         gradientTransform="matrix(-1 0 0 1 928.7012 174.4775)"><stop
           offset="0"
           style="stop-color:#7D0000"
           id="stop82" /><stop
           offset="1"
           style="stop-color:#FF002E"
           id="stop84" /></linearGradient><polygon
         fill="url(#SVGID_2_)"
         stroke="#000000"
         stroke-width="1.1061"
         stroke-linejoin="round"
         points="442.234,262.747     464.863,274.856 464.865,268.774 497.568,268.774 497.568,255.36 464.871,255.36 464.875,249.192   "
         id="polygon86" /></g><text
       transform="matrix(1 0 0 1 -18.4082 260.4556)"
       font-family="'MyriadPro-Regular'"
       font-size="34.5001"
       id="text88">2.</text>
</g><g
     id="g90"><radialGradient
       id="path2160_11_"
       cx="376.1709"
       cy="1325.2935"
       r="248.1968"
       gradientTransform="matrix(1.2053 0 0 0.457 -23.6749 -178.2137)"
       gradientUnits="userSpaceOnUse"><stop
         offset="0"
         style="stop-color:#8DFF70"
         id="stop93" /><stop
         offset="1"
         style="stop-color:#26901D;stop-opacity:0.7938"
         id="stop95" /><stop
         offset="1"
         style="stop-color:#FFFFFF;stop-opacity:0"
         id="stop97" /></radialGradient><path
       id="path2160_4_"
       fill="url(#path2160_11_)"
       stroke="#000000"
       stroke-width="2.5"
       stroke-linejoin="round"
       d="M429.021,437.93   c-5.785,40.992-45.37,38.984-45.37,38.984H180.02c0,0-49.296,0.992-49.296-49.922c0-50.915,49.296-49.012,49.296-49.012h199.947   c0,0,41.316-2.009,48.65,36.864l2.16,0.023c7.147-38.473,48.241-36.889,48.241-36.889h199.947c0,0,49.758-2.418,49.758,49.428   c0,51.844-46.071,49.506-46.071,49.506H479.019c0,0-42.047,0.846-48.475-39.133L429.021,437.93z" /><path
       id="path4345_2_"
       fill="none"
       stroke="#050080"
       stroke-width="3"
       stroke-linejoin="round"
       d="M402.938,439.161   c0,12.988-10.729,23.52-23.963,23.52s-23.963-10.531-23.963-23.52c0-12.99,10.729-23.521,23.963-23.521   C392.209,415.641,402.938,426.172,402.938,439.161z" /><path
       id="path5321_5_"
       fill="none"
       stroke="#7A0000"
       stroke-width="3"
       stroke-linejoin="round"
       d="M159.01,421.723   c18.351,6.213,35.847,17.252,55.828,16.791c6.296-0.125,13.38-1.156,17.372-6.633c3.88-4.197,2.413-10.881-2.172-13.898   c-10.733-10.635-30.523-8.906-39.235,3.447c-5.752,7.318-2.129,17.883,4.251,23.533c9.025,8.504,22.255,9.006,33.938,8.156   c7.463-0.412,15.037-1.035,22.429,0.438c6.153,1.971,4.139,9.752-0.352,12.344c-4.035,3.713-10.848,4.156-14.64-0.137   c-5.285-6.24-2.152-17.217,5.645-19.748c8.955-4.939,21.037-5.148,27.197-14.375c4.283-10.221-1.21-21.85-9.498-28.24   c-9.647-7.445-22.51-8.908-34.336-8.662c-12.49,0.438-24.848,2.598-37.325,3.188c-17.835,2.746-32.271,19.021-34.006,36.787   c-0.198,9.057,6.203,19.117,15.816,19.832c8.225,0.203,13.831-8.139,14.194-15.697c0.728-10.533-2.104-21.828-9.312-29.77   c-5.102-5.818-14.036-9.508-21.23-5.285c-4.885,2.234-4.933,8.812-1.903,12.584C153.411,418.883,155.939,421.12,159.01,421.723z" /><path
       id="path7278_5_"
       fill="none"
       stroke="#7A0000"
       stroke-width="3"
       stroke-linejoin="round"
       d="M162.048,417.86   c18.35,6.211,35.846,17.25,55.828,16.789c6.296-0.123,13.379-1.154,17.372-6.633c3.88-4.195,2.412-10.879-2.172-13.898   c-10.734-10.633-30.523-8.906-39.235,3.449c-5.752,7.316-2.129,17.883,4.25,23.533c9.026,8.504,22.256,9.004,33.938,8.154   c7.463-0.412,15.038-1.033,22.43,0.439c6.153,1.969,4.139,9.75-0.352,12.344c-4.035,3.713-10.848,4.154-14.64-0.139   c-5.285-6.238-2.152-17.219,5.645-19.746c8.955-4.939,21.037-5.148,27.196-14.377c4.284-10.221-1.21-21.852-9.497-28.241   c-9.648-7.443-22.51-8.908-34.336-8.66c-12.49,0.436-24.848,2.598-37.326,3.186c-17.834,2.748-32.271,19.022-34.005,36.788   c-0.198,9.059,6.202,19.117,15.815,19.832c8.226,0.205,13.831-8.139,14.195-15.695c0.728-10.537-2.104-21.83-9.312-29.773   c-5.103-5.818-14.036-9.505-21.23-5.283c-4.885,2.234-4.933,8.812-1.903,12.583C156.449,415.02,158.977,417.254,162.048,417.86z" /><path
       id="path5321_4_"
       fill="none"
       stroke="#7A0000"
       stroke-width="3"
       stroke-linejoin="round"
       d="M601.01,421.723   c18.353,6.213,35.849,17.252,55.828,16.791c6.297-0.125,13.381-1.156,17.373-6.633c3.879-4.197,2.412-10.881-2.172-13.898   c-10.734-10.635-30.523-8.906-39.236,3.447c-5.752,7.318-2.129,17.883,4.252,23.533c9.025,8.504,22.254,9.006,33.938,8.156   c7.463-0.412,15.037-1.035,22.43,0.438c6.152,1.971,4.139,9.752-0.352,12.344c-4.035,3.713-10.849,4.156-14.642-0.137   c-5.285-6.24-2.151-17.217,5.646-19.748c8.955-4.939,21.037-5.148,27.197-14.375c4.282-10.221-1.209-21.85-9.498-28.24   c-9.646-7.445-22.511-8.908-34.336-8.662c-12.49,0.438-24.849,2.598-37.324,3.188c-17.836,2.746-32.271,19.021-34.006,36.787   c-0.199,9.057,6.203,19.117,15.815,19.832c8.226,0.203,13.83-8.139,14.193-15.697c0.729-10.533-2.104-21.828-9.312-29.77   c-5.102-5.818-14.034-9.508-21.229-5.285c-4.885,2.234-4.933,8.812-1.902,12.584C595.412,418.883,597.939,421.12,601.01,421.723z" /><path
       id="path7278_4_"
       fill="none"
       stroke="#7A0000"
       stroke-width="3"
       stroke-linejoin="round"
       d="M604.049,417.86   c18.351,6.211,35.846,17.25,55.828,16.789c6.295-0.123,13.379-1.154,17.371-6.633c3.881-4.195,2.412-10.879-2.172-13.898   c-10.734-10.633-30.523-8.906-39.234,3.449c-5.752,7.316-2.129,17.883,4.25,23.533c9.025,8.504,22.256,9.004,33.938,8.154   c7.463-0.412,15.039-1.033,22.43,0.439c6.154,1.969,4.139,9.75-0.352,12.344c-4.035,3.713-10.849,4.154-14.64-0.139   c-5.285-6.238-2.151-17.219,5.646-19.746c8.955-4.939,21.037-5.148,27.194-14.377c4.285-10.221-1.209-21.852-9.495-28.241   c-9.648-7.443-22.511-8.908-34.337-8.66c-12.489,0.436-24.848,2.598-37.325,3.186c-17.834,2.748-32.271,19.022-34.006,36.788   c-0.197,9.059,6.202,19.117,15.815,19.832c8.225,0.205,13.83-8.139,14.195-15.695c0.727-10.537-2.105-21.83-9.312-29.773   c-5.104-5.818-14.037-9.505-21.229-5.283c-4.885,2.234-4.935,8.812-1.904,12.583C598.449,415.02,600.976,417.254,604.049,417.86z" /><radialGradient
       id="SVGID_3_"
       cx="414.0386"
       cy="371.0483"
       r="16.1003"
       gradientTransform="matrix(1 0 0 -1 0 804.5557)"
       gradientUnits="userSpaceOnUse"><stop
         offset="0"
         style="stop-color:#4D8AFF"
         id="stop106" /><stop
         offset="1"
         style="stop-color:#45B5C9"
         id="stop108" /></radialGradient><path
       fill="url(#SVGID_3_)"
       stroke="#000000"
       stroke-width="2.5"
       stroke-linejoin="round"
       d="M416.232,430.768   c0.151-0.852,0.237-1.771,0.237-2.734c0-4.281-1.634-7.752-3.647-7.752c-1.694,0-3.115,2.461-3.525,5.789   c-0.043,0-0.081-0.014-0.123-0.014c-3.19,0-5.776,2.654-5.776,5.93c0,0.963,0.245,1.859,0.643,2.664   c-0.982,1.186-1.555,2.557-1.555,4.025c0,4.449,5.174,8.057,11.553,8.057c6.382,0,11.554-3.607,11.554-8.057   C425.591,434.749,421.562,431.483,416.232,430.768z"
       id="path110" /><path
       fill="none"
       stroke="#050080"
       stroke-width="3"
       stroke-linejoin="round"
       d="M528.125,423.504   c-2.826-0.086-4.979,1.295-7.178,2.979c-1.644,1.254-3.023,3.111-4.832,4.115c-1.604,0.891-3.412,0.67-5.234,0.619   c-5.016-0.139-10.914-1.236-14.701-4.785c-2.397-2.248-3.7-4.205-7.032-5.105c-2.759-0.746-6.427-0.408-8.812,1.258   c-5.51,3.846-6.188,7.865-8.016,11.557c-1.806,3.646-1.654,4.924-6.736,6.615c-4.838,1.613-9.723,0.117-14.502-1.717   c-1.748-0.672-5.562-3.338-7.029-4.58c-2.52-2.129-4.817-4.15-7.799-5.578c-5.824-2.793-27.354-5.645-28.279,10.279   c-0.928,15.922-12.983,28.465-29,28.465c-16.017,0-29-12.744-29-28.465s12.983-28.465,29-28.465"
       id="path112" /><radialGradient
       id="SVGID_4_"
       cx="429.5537"
       cy="373.0806"
       r="8.7017"
       gradientTransform="matrix(1 0 0 -1 0 804.5557)"
       gradientUnits="userSpaceOnUse"><stop
         offset="0"
         style="stop-color:#E08A70"
         id="stop115" /><stop
         offset="1"
         style="stop-color:#FFB5C9"
         id="stop117" /></radialGradient><path
       fill="url(#SVGID_4_)"
       stroke="#000000"
       stroke-width="2.5"
       stroke-linejoin="round"
       d="M430.914,424.817   c-0.653,0-1.282,0.092-1.888,0.246c-0.86-1.244-2.187-2.061-3.689-2.061c-2.601,0-4.708,2.389-4.708,5.336   c0,2.158,1.137,4.008,2.763,4.848c0.401,3.799,3.615,6.762,7.522,6.762c4.179,0,7.564-3.387,7.564-7.566   C438.479,428.204,435.093,424.817,430.914,424.817z"
       id="path119" /><radialGradient
       id="SVGID_5_"
       cx="448.8809"
       cy="-23.8765"
       r="16.0466"
       gradientTransform="matrix(-0.9767 -0.2147 -0.2147 0.9767 816.0331 528.8833)"
       gradientUnits="userSpaceOnUse"><stop
         offset="0"
         style="stop-color:#E79300"
         id="stop122" /><stop
         offset="1"
         style="stop-color:#FFE82E"
         id="stop124" /></radialGradient><path
       fill="url(#SVGID_5_)"
       stroke="#000000"
       stroke-width="2.5"
       stroke-linejoin="round"
       d="M376.845,410.204   c-2.55,0.502-4.538,2.049-5.016,4.223c-0.711,3.236,2.186,6.623,6.472,7.564c3.175,0.695,6.219-0.146,7.874-1.943   c3.343-0.293,6.287-2.812,7.074-6.391c0.526-2.396-0.028-4.766-1.324-6.57c0.146-0.359,1.209,2.561,0.356-1.113   c-1.032-4.447-2.549-9.025-7.883-10.199c-5.335-1.173-10.455,1.491-11.436,5.952C372.257,404.934,373.892,408.19,376.845,410.204z"
       id="path126" /><linearGradient
       id="SVGID_6_"
       gradientUnits="userSpaceOnUse"
       x1="507.3066"
       y1="396.9536"
       x2="507.4834"
       y2="385.2106"
       gradientTransform="matrix(1 0 0 -1 0 804.5557)"><stop
         offset="0"
         style="stop-color:#7D0000"
         id="stop129" /><stop
         offset="1"
         style="stop-color:#FF002E"
         id="stop131" /></linearGradient><polygon
       fill="url(#SVGID_6_)"
       stroke="#000000"
       stroke-linejoin="round"
       points="521.4,411.899 509.951,405.77 509.951,408.85    493.4,408.85 493.4,415.637 509.946,415.637 509.946,418.758  "
       id="polygon133" /><linearGradient
       id="SVGID_7_"
       gradientUnits="userSpaceOnUse"
       x1="384.1646"
       y1="421.605"
       x2="384.3699"
       y2="407.9615"
       gradientTransform="matrix(1 0 0 -1 0 804.5557)"><stop
         offset="0"
         style="stop-color:#7D0000"
         id="stop136" /><stop
         offset="1"
         style="stop-color:#FF002E"
         id="stop138" /></linearGradient><path
       fill="url(#SVGID_7_)"
       stroke="#000000"
       stroke-linejoin="round"
       d="M403.705,395.666l-2.854-9.768l-1.637,1.604   c-4.972-4.105-11.341-6.582-18.295-6.582c-5.948,0-11.474,1.805-16.06,4.9l3.181,4.791c3.675-2.488,8.107-3.941,12.879-3.941   c5.343,0,10.256,1.828,14.16,4.883l-1.499,1.472L403.705,395.666z"
       id="path140" /><text
       transform="matrix(1 0 0 1 -18.4082 444.7427)"
       font-family="'MyriadPro-Regular'"
       font-size="34.5001"
       id="text142">3.</text>
<line
       fill="none"
       stroke="#000000"
       stroke-width="2.5"
       stroke-linejoin="round"
       x1="387.734"
       y1="391.727"
       x2="399.08"
       y2="337.552"
       id="line144" /><line
       fill="none"
       stroke="#000000"
       stroke-width="2.5"
       stroke-linejoin="round"
       x1="413.234"
       y1="449.352"
       x2="399.08"
       y2="499.553"
       id="line146" /><line
       fill="none"
       stroke="#000000"
       stroke-width="2.5"
       stroke-linejoin="round"
       x1="438.405"
       y1="443.721"
       x2="461.08"
       y2="495.553"
       id="line148" /><g
       id="g150"><text
         transform="matrix(1 0 0 1 339.0796 509.5532)"
         font-family="'Calibri'"
         font-size="18"
         id="text152">Relaxasome</text>
</g><g
       id="g154"><text
         transform="matrix(1 0 0 1 450.0801 508.5532)"
         font-family="'Calibri'"
         font-size="18"
         id="text156">Transferasome</text>
</g><g
       id="g158"><text
         transform="matrix(1 0 0 1 352.0796 333.5532)"
         font-family="'Calibri'"
         font-size="18"
         id="text160">DNA polymerase</text>
</g></g><g
     id="g162"><g
       id="g164"><path
         fill="#828282"
         stroke="#231F20"
         d="M477.238,650.594l-125.672-22.082c-1.844-1.49-4.264-2.615-7.028-3.1l-0.584-0.105    l-3.19,18.154l0.584,0.104c3.33,0.586,6.516,0.139,8.991-1.057l124.477,21.873c3.807,0.668,7.438-1.877,8.106-5.684    C483.59,654.891,481.045,651.262,477.238,650.594z"
         id="path166" /><radialGradient
         id="path2160_12_"
         cx="182.1909"
         cy="1747.5864"
         r="151.0384"
         gradientTransform="matrix(1.2053 0 0 0.457 -23.6749 -178.2137)"
         gradientUnits="userSpaceOnUse"><stop
           offset="0"
           style="stop-color:#8DFF70"
           id="stop169" /><stop
           offset="1"
           style="stop-color:#26901D;stop-opacity:0.7938"
           id="stop171" /><stop
           offset="1"
           style="stop-color:#FFFFFF;stop-opacity:0"
           id="stop173" /></radialGradient><path
         id="path2160_5_"
         fill="url(#path2160_12_)"
         stroke="#000000"
         stroke-width="2.5"
         stroke-linejoin="round"
         d="    M95.716,570.967h199.947c0,0,49.757-2.418,49.757,49.428c0,51.844-46.071,49.506-46.071,49.506H95.716    c0,0-49.296,0.992-49.296-49.922S95.716,570.967,95.716,570.967z" /><path
         id="path4345_3_"
         fill="none"
         stroke="#050080"
         stroke-width="3"
         stroke-linejoin="round"
         d="M318.633,632.147    c0,12.988-10.729,23.52-23.963,23.52s-23.963-10.531-23.963-23.52s10.729-23.52,23.963-23.52S318.633,619.159,318.633,632.147z" /><path
         id="path5316_2_"
         fill="none"
         stroke="#050080"
         stroke-width="3"
         stroke-linejoin="round"
         d="M323.67,632.147    c0,15.721-12.983,28.465-29,28.465s-29-12.744-29-28.465s12.983-28.465,29-28.465S323.67,616.426,323.67,632.147z" /><path
         id="path5321_6_"
         fill="none"
         stroke="#7A0000"
         stroke-width="3"
         stroke-linejoin="round"
         d="M74.706,614.709    c18.351,6.213,35.847,17.252,55.828,16.791c6.296-0.125,13.38-1.156,17.372-6.633c3.88-4.197,2.413-10.881-2.172-13.898    c-10.733-10.635-30.523-8.906-39.235,3.447c-5.752,7.318-2.129,17.883,4.251,23.533c9.025,8.504,22.255,9.006,33.938,8.156    c7.463-0.412,15.037-1.035,22.429,0.438c6.153,1.971,4.139,9.752-0.352,12.344c-4.035,3.713-10.848,4.156-14.64-0.137    c-5.285-6.24-2.152-17.217,5.645-19.748c8.955-4.939,21.037-5.148,27.197-14.375c4.283-10.221-1.21-21.85-9.498-28.24    c-9.647-7.445-22.51-8.908-34.336-8.662c-12.49,0.438-24.848,2.598-37.325,3.188c-17.835,2.746-32.271,19.02-34.006,36.787    c-0.198,9.057,6.203,19.117,15.816,19.832c8.225,0.203,13.831-8.139,14.194-15.697c0.728-10.535-2.104-21.828-9.312-29.77    c-5.102-5.818-14.036-9.51-21.23-5.285c-4.885,2.232-4.933,8.811-1.903,12.584C69.108,611.87,71.635,614.106,74.706,614.709z" /><path
         id="path7278_6_"
         fill="none"
         stroke="#7A0000"
         stroke-width="3"
         stroke-linejoin="round"
         d="M77.744,610.846    c18.35,6.211,35.846,17.25,55.828,16.789c6.296-0.123,13.379-1.154,17.372-6.633c3.88-4.195,2.412-10.879-2.172-13.898    c-10.734-10.633-30.523-8.906-39.235,3.449c-5.752,7.316-2.129,17.883,4.25,23.533c9.026,8.504,22.256,9.004,33.938,8.154    c7.463-0.412,15.038-1.033,22.43,0.438c6.153,1.971,4.139,9.75-0.352,12.346c-4.035,3.713-10.848,4.152-14.64-0.141    c-5.285-6.236-2.152-17.217,5.645-19.746c8.955-4.938,21.037-5.146,27.196-14.377c4.284-10.219-1.21-21.85-9.497-28.238    c-9.648-7.443-22.51-8.908-34.336-8.66c-12.49,0.436-24.848,2.598-37.326,3.186c-17.834,2.748-32.271,19.021-34.005,36.787    c-0.198,9.059,6.202,19.117,15.815,19.832c8.226,0.205,13.831-8.139,14.195-15.695c0.728-10.537-2.104-21.83-9.312-29.773    c-5.103-5.818-14.036-9.506-21.23-5.283c-4.885,2.234-4.933,8.811-1.903,12.584C72.146,608.006,74.673,610.241,77.744,610.846z" /><text
         transform="matrix(1 0 0 1 294.2666 549.897)"
         font-family="'Calibri'"
         font-size="18"
         id="text180">F plasmid</text>
<path
         id="path9238_1_"
         fill="none"
         stroke="#000000"
         stroke-width="2"
         d="M316.92,602.897l4-46" /><path
         fill="#828282"
         stroke="#231F20"
         d="M380.21,591.206l125.672,22.082c1.844,1.488,4.265,2.613,7.027,3.1l0.584,0.102    l3.188-18.152l-0.584-0.104c-3.33-0.584-6.516-0.139-8.989,1.055l-124.476-21.871c-3.807-0.67-7.438,1.875-8.107,5.682    C373.859,586.907,376.404,590.536,380.21,591.206z"
         id="path183" /><radialGradient
         id="path2160_13_"
         cx="714.4277"
         cy="1747.5864"
         r="151.038"
         gradientTransform="matrix(-1.2053 0 0 0.457 1524.627 -178.2137)"
         gradientUnits="userSpaceOnUse"><stop
           offset="0"
           style="stop-color:#8DFF70"
           id="stop186" /><stop
           offset="1"
           style="stop-color:#26901D;stop-opacity:0.7938"
           id="stop188" /><stop
           offset="1"
           style="stop-color:#FFFFFF;stop-opacity:0"
           id="stop190" /></radialGradient><path
         id="path2160_6_"
         fill="url(#path2160_13_)"
         stroke="#000000"
         stroke-width="2.5"
         stroke-linejoin="round"
         d="    M813.027,619.979c0,50.914-49.295,49.922-49.295,49.922H560.099c0,0-46.071,2.338-46.071-49.506    c0-51.846,49.758-49.428,49.758-49.428h199.947C763.732,570.967,813.027,569.065,813.027,619.979z" /><path
         id="path4345_4_"
         fill="none"
         stroke="#050080"
         stroke-width="3"
         stroke-linejoin="round"
         d="M564.777,608.627    c13.233,0,23.963,10.531,23.963,23.52s-10.729,23.52-23.963,23.52c-13.234,0-23.963-10.531-23.963-23.52    S551.543,608.627,564.777,608.627z" /><path
         id="path5316_3_"
         fill="none"
         stroke="#050080"
         stroke-width="3"
         stroke-linejoin="round"
         d="M564.777,603.682    c16.018,0,29,12.744,29,28.465s-12.982,28.465-29,28.465c-16.017,0-29-12.744-29-28.465S548.761,603.682,564.777,603.682z" /><path
         id="path5321_7_"
         fill="none"
         stroke="#7A0000"
         stroke-width="3"
         stroke-linejoin="round"
         d="M792.08,609.362    c3.029-3.771,2.982-10.35-1.902-12.584c-7.194-4.223-16.129-0.533-21.229,5.285c-7.209,7.943-10.041,19.236-9.312,29.771    c0.363,7.559,5.97,15.9,14.193,15.697c9.613-0.715,16.016-10.775,15.815-19.832c-1.733-17.77-16.17-34.041-34.006-36.787    c-12.477-0.59-24.834-2.75-37.323-3.189c-11.826-0.244-24.689,1.219-34.336,8.662c-8.289,6.393-13.781,18.021-9.498,28.24    c6.159,9.227,18.241,9.436,27.196,14.375c7.797,2.531,10.931,13.508,5.646,19.748c-3.793,4.293-10.605,3.85-14.642,0.137    c-4.489-2.592-6.504-10.373-0.352-12.344c7.393-1.473,14.967-0.85,22.43-0.438c11.685,0.85,24.912,0.348,33.938-8.156    c6.381-5.65,10.004-16.215,4.252-23.533c-8.713-12.354-28.502-14.082-39.236-3.447c-4.584,3.02-6.051,9.701-2.172,13.898    c3.992,5.477,11.076,6.508,17.373,6.633c19.98,0.461,37.478-10.578,55.828-16.791C787.812,614.106,790.34,611.87,792.08,609.362z" /><path
         id="path7278_7_"
         fill="none"
         stroke="#7A0000"
         stroke-width="3"
         stroke-linejoin="round"
         d="M789.043,605.499    c3.029-3.773,2.98-10.35-1.904-12.584c-7.192-4.223-16.127-0.535-21.229,5.283c-7.207,7.941-10.039,19.234-9.312,29.771    c0.365,7.559,5.972,15.9,14.195,15.695c9.613-0.715,16.014-10.773,15.816-19.832c-1.734-17.766-16.173-34.039-34.007-36.787    c-12.479-0.588-24.836-2.75-37.325-3.186c-11.826-0.248-24.688,1.217-34.336,8.66c-8.287,6.391-13.781,18.021-9.496,28.24    c6.158,9.229,18.239,9.438,27.194,14.377c7.798,2.529,10.931,13.508,5.646,19.746c-3.791,4.293-10.604,3.852-14.639,0.139    c-4.49-2.594-6.507-10.375-0.353-12.344c7.392-1.473,14.967-0.852,22.43-0.439c11.683,0.85,24.912,0.35,33.938-8.154    c6.379-5.65,10.002-16.217,4.25-23.533c-8.711-12.354-28.5-14.082-39.234-3.449c-4.584,3.021-6.053,9.703-2.172,13.898    c3.992,5.48,11.076,6.51,17.371,6.633c19.982,0.461,37.479-10.578,55.828-16.789C784.775,610.241,787.302,608.006,789.043,605.499    z" /><text
         transform="matrix(1 0 0 1 503.1797 549.897)"
         font-family="'Calibri'"
         font-size="18"
         id="text197">F plasmid</text>
<path
         id="path9238_2_"
         fill="none"
         stroke="#000000"
         stroke-width="2"
         d="M538.527,556.897l4,46" /></g><text
       transform="matrix(1 0 0 1 -18.4082 627.3667)"
       font-family="'MyriadPro-Regular'"
       font-size="34.5001"
       id="text200">4.</text>
<text
       transform="matrix(1 0 0 1 134.1841 708.8618)"
       font-family="'MyriadPro-Regular'"
       font-size="30.6918"
       id="text202">Old donor</text>
<g
       id="g204"><text
         transform="matrix(1 0 0 1 600.0801 708.8618)"
         font-family="'MyriadPro-Regular'"
         font-size="30.6918"
         id="text206">New donor</text>
</g></g><g
     id="g4402"><path
       style="fill:#828282;stroke:#231f20"
       inkscape:connector-curvature="0"
       id="path7"
       d="M 485.041,77.591 359.369,55.509 c -1.844,-1.489 -4.264,-2.614 -7.028,-3.1 l -0.584,-0.103 -3.19,18.153 0.584,0.103 c 3.33,0.585 6.516,0.139 8.991,-1.055 L 482.617,91.38 c 3.807,0.669 7.438,-1.876 8.106,-5.683 0.669,-3.808 -1.876,-7.437 -5.682,-8.106 z" /><path
       inkscape:connector-curvature="0"
       style="fill:url(#path2160_7_);stroke:#000000;stroke-width:2.5;stroke-linejoin:round"
       d="m 103.52,-2.035 199.947,0 c 0,0 49.757,-2.418 49.757,49.427 0,51.844 -46.071,49.506 -46.071,49.506 l -203.633,0 c 0,0 -49.296,0.993 -49.296,-49.922 0,-50.913 49.296,-49.011 49.296,-49.011 z"
       id="path2160" /><path
       style="fill:none;stroke:#050080;stroke-width:3;stroke-linejoin:round"
       inkscape:connector-curvature="0"
       d="m 326.437,59.144 c 0,12.989 -10.729,23.52 -23.963,23.52 -13.234,0 -23.963,-10.53 -23.963,-23.52 0,-12.988 10.729,-23.519 23.963,-23.519 13.234,0 23.963,10.531 23.963,23.519 z"
       id="path4345" /><path
       style="fill:none;stroke:#050080;stroke-width:3;stroke-linejoin:round"
       inkscape:connector-curvature="0"
       d="m 331.474,59.144 c 0,15.721 -12.983,28.465 -29,28.465 -16.017,0 -29,-12.744 -29,-28.465 0,-15.721 12.983,-28.465 29,-28.465 16.017,0 29,12.744 29,28.465 z"
       id="path5316" /><path
       style="fill:none;stroke:#7a0000;stroke-width:3;stroke-linejoin:round"
       inkscape:connector-curvature="0"
       d="m 82.51,41.707 c 18.351,6.212 35.847,17.251 55.828,16.79 6.296,-0.124 13.38,-1.155 17.372,-6.633 3.88,-4.196 2.413,-10.88 -2.172,-13.898 -10.733,-10.635 -30.523,-8.906 -39.235,3.448 -5.752,7.317 -2.129,17.882 4.251,23.533 9.025,8.504 22.255,9.005 33.938,8.155 7.463,-0.412 15.037,-1.034 22.429,0.438 6.153,1.97 4.139,9.751 -0.352,12.344 -4.035,3.713 -10.848,4.155 -14.64,-0.138 -5.285,-6.239 -2.152,-17.217 5.645,-19.747 8.955,-4.94 21.037,-5.149 27.197,-14.376 4.283,-10.22 -1.21,-21.85 -9.498,-28.24 -9.647,-7.444 -22.51,-8.908 -34.336,-8.661 -12.49,0.437 -24.848,2.598 -37.325,3.187 -17.834,2.747 -32.271,19.021 -34.005,36.788 -0.198,9.058 6.203,19.117 15.816,19.832 8.225,0.204 13.831,-8.139 14.194,-15.696 0.728,-10.536 -2.104,-21.829 -9.312,-29.772 -5.102,-5.818 -14.036,-9.507 -21.23,-5.284 -4.885,2.234 -4.933,8.812 -1.903,12.584 1.739,2.506 4.267,4.742 7.338,5.346 z"
       id="path5321" /><path
       style="fill:none;stroke:#7a0000;stroke-width:3;stroke-linejoin:round"
       inkscape:connector-curvature="0"
       d="m 85.548,37.843 c 18.35,6.212 35.846,17.251 55.828,16.79 6.296,-0.123 13.379,-1.155 17.372,-6.633 3.88,-4.196 2.412,-10.88 -2.172,-13.898 -10.734,-10.634 -30.523,-8.906 -39.235,3.448 -5.752,7.317 -2.129,17.883 4.25,23.534 9.026,8.503 22.256,9.004 33.938,8.154 7.463,-0.412 15.038,-1.034 22.43,0.438 6.153,1.97 4.139,9.751 -0.352,12.344 -4.035,3.713 -10.848,4.155 -14.64,-0.138 -5.285,-6.239 -2.152,-17.217 5.645,-19.747 8.955,-4.939 21.037,-5.148 27.196,-14.376 4.284,-10.22 -1.21,-21.85 -9.497,-28.24 -9.648,-7.444 -22.51,-8.908 -34.336,-8.661 -12.49,0.437 -24.848,2.599 -37.326,3.187 -17.834,2.748 -32.271,19.021 -34.005,36.787 -0.198,9.058 6.202,19.117 15.815,19.832 8.226,0.204 13.831,-8.139 14.195,-15.696 0.728,-10.536 -2.104,-21.829 -9.312,-29.772 -5.103,-5.818 -14.036,-9.507 -21.23,-5.284 -4.885,2.234 -4.933,8.812 -1.903,12.584 1.74,2.507 4.268,4.743 7.339,5.347 z"
       id="path7278" /><text
       y="-24.106001"
       x="60.724602"
       style="font-size:18px;font-family:Calibri"
       id="text21"
       font-size="18">Chromosomal DNA</text>
<text
       y="-23.106001"
       x="302.07031"
       style="font-size:18px;font-family:Calibri"
       id="text23"
       font-size="18">F plasmid</text>
<path
       style="fill:none;stroke:#000000;stroke-width:2"
       inkscape:connector-curvature="0"
       d="m 324.724,29.894 4,-46"
       id="path9238" /><path
       style="fill:none;stroke:#000000;stroke-width:1.77649999"
       inkscape:connector-curvature="0"
       d="M 127.114,7.11 96.334,-19.321"
       id="path10209" /><path
       inkscape:connector-curvature="0"
       style="fill:url(#path2160_8_);stroke:#000000;stroke-width:2.5;stroke-linejoin:round"
       d="m 555.519,-2.035 199.947,0 c 0,0 49.758,-2.418 49.758,49.427 0,51.844 -46.071,49.506 -46.071,49.506 l -203.634,0 c 0,0 -49.295,0.993 -49.295,-49.922 0,-50.913 49.295,-49.011 49.295,-49.011 z"
       id="path2160_1_" /><path
       style="fill:none;stroke:#7a0000;stroke-width:3;stroke-linejoin:round"
       inkscape:connector-curvature="0"
       d="m 677.51,41.707 c 18.353,6.212 35.849,17.251 55.828,16.79 6.297,-0.124 13.381,-1.155 17.373,-6.633 3.879,-4.196 2.412,-10.88 -2.172,-13.898 -10.734,-10.635 -30.523,-8.906 -39.236,3.448 -5.752,7.317 -2.129,17.882 4.252,23.533 9.025,8.504 22.254,9.005 33.938,8.155 7.463,-0.412 15.037,-1.034 22.43,0.438 6.152,1.97 4.139,9.751 -0.352,12.344 -4.035,3.713 -10.849,4.155 -14.642,-0.138 -5.285,-6.239 -2.151,-17.217 5.646,-19.747 8.955,-4.94 21.037,-5.149 27.197,-14.376 4.282,-10.22 -1.209,-21.85 -9.498,-28.24 -9.646,-7.444 -22.511,-8.908 -34.336,-8.661 -12.49,0.437 -24.849,2.598 -37.324,3.187 -17.836,2.747 -32.271,19.021 -34.006,36.787 -0.199,9.058 6.203,19.117 15.815,19.832 8.226,0.204 13.83,-8.139 14.193,-15.696 0.729,-10.536 -2.104,-21.829 -9.312,-29.772 -5.102,-5.818 -14.034,-9.507 -21.229,-5.284 -4.885,2.234 -4.933,8.812 -1.902,12.584 1.739,2.507 4.266,4.743 7.337,5.347 z"
       id="path5321_1_" /><path
       style="fill:none;stroke:#7a0000;stroke-width:3;stroke-linejoin:round"
       inkscape:connector-curvature="0"
       d="m 680.549,37.843 c 18.351,6.212 35.846,17.251 55.828,16.79 6.295,-0.123 13.379,-1.155 17.371,-6.633 3.881,-4.196 2.412,-10.88 -2.172,-13.898 -10.734,-10.634 -30.523,-8.906 -39.234,3.448 -5.752,7.317 -2.129,17.883 4.25,23.534 9.025,8.503 22.256,9.004 33.938,8.154 7.463,-0.412 15.039,-1.034 22.43,0.438 6.154,1.97 4.139,9.751 -0.352,12.344 -4.035,3.713 -10.849,4.155 -14.64,-0.138 -5.285,-6.239 -2.151,-17.217 5.646,-19.747 8.955,-4.939 21.037,-5.148 27.194,-14.376 4.285,-10.22 -1.209,-21.85 -9.495,-28.24 -9.648,-7.444 -22.511,-8.908 -34.337,-8.661 -12.489,0.437 -24.848,2.599 -37.325,3.187 -17.834,2.748 -32.271,19.021 -34.006,36.787 -0.197,9.058 6.202,19.117 15.815,19.832 8.225,0.204 13.83,-8.139 14.195,-15.696 0.727,-10.536 -2.105,-21.829 -9.312,-29.772 -5.104,-5.818 -14.037,-9.507 -21.229,-5.284 -4.885,2.234 -4.935,8.812 -1.904,12.584 1.739,2.507 4.266,4.743 7.339,5.347 z"
       id="path7278_1_" /><text
       y="-24.106001"
       x="637.72461"
       style="font-size:18px;font-family:Calibri"
       id="text37"
       font-size="18">Chromosomal DNA</text>
<path
       style="fill:none;stroke:#000000;stroke-width:1.77649999"
       inkscape:connector-curvature="0"
       d="M 722.113,7.11 691.334,-19.321"
       id="path10209_1_" /><text
       y="125.3569"
       x="162.1841"
       font-size="30.6918"
       id="text40"
       style="font-size:30.69179916px;font-family:MyriadPro-Regular">Donor</text>
<text
       y="125.3569"
       x="611.16107"
       font-size="30.6918"
       id="text42"
       style="font-size:30.69179916px;font-family:MyriadPro-Regular">Recipient</text>
<text
       y="56.730999"
       x="-18.408199"
       font-size="34.5001"
       id="text44"
       style="font-size:34.50009918px;font-family:MyriadPro-Regular">1.</text>
<g
       id="g208"><text
         id="text210"
         font-size="18"
         font-family="'Calibri'"
         transform="matrix(1 0 0 1 409.1167 103.3589)">Pilus</text>
</g></g><g
     id="g212"><text
       transform="matrix(1 0 0 1 409.1167 573.1567)"
       font-family="'Calibri'"
       font-size="18"
       id="text214">Pilus</text>
</g><g
     id="g216"><text
       transform="matrix(1 0 0 1 409.1167 676.5493)"
       font-family="'Calibri'"
       font-size="18"
       id="text218">Pilus</text>
</g></svg>