<?xml version="1.0" encoding="utf-8"?>
<!-- Generator: Adobe Illustrator 21.0.0, SVG Export Plug-In . SVG Version: 6.00 Build 0)  -->
<svg version="1.1" id="Слой_1" xmlns="http://www.w3.org/2000/svg" xmlns:xlink="http://www.w3.org/1999/xlink" x="0px" y="0px"
	 viewBox="0 0 439 293" style="enable-background:new 0 0 439 293;" xml:space="preserve">
<g>
	<polygon points="233.6,87.7 234,85.3 229.7,85.3 230.1,87.7 	"/>
	<polygon points="235.6,75.7 228.1,75.7 228.5,78.1 235.2,78.1 	"/>
	<polygon points="237.3,66.1 226.4,66.1 226.8,68.5 236.9,68.5 	"/>
	<polygon points="238.9,56.5 224.8,56.5 225.2,58.9 238.5,58.9 	"/>
	<polygon points="75.6,88.7 75.6,88.7 74.5,89.3 73.4,88.7 73.4,88.7 41,70 39.8,72.1 68.1,88.5 68.1,127.5 70.5,127.5 70.5,89.8 
		73.7,91.7 74.5,92.1 75.2,91.7 78.5,89.8 78.5,127.5 80.9,127.5 80.9,88.4 107.7,73 106.5,70.9 	"/>
	<polygon points="307.2,209.7 306.2,207.5 295,211.1 295.5,213.5 	"/>
	<polygon points="295.2,183.3 294.2,181.1 289.1,182.8 289.6,185.1 	"/>
	<polygon points="303.2,200.9 302.2,198.7 293,201.7 293.5,204.1 	"/>
	<polygon points="299.2,192.1 298.2,189.9 291.1,192.2 291.6,194.6 	"/>
	<polygon points="287.2,173.3 287.7,175.7 291.2,174.5 290.2,172.3 	"/>
	<polygon points="275.5,243.5 277.3,245.1 299,221 308,222.9 283.2,250.5 285,252.1 310.7,223.5 341.3,230 341.8,227.6 298.2,218.4 
			"/>
	<path d="M286.7,84.5c-6.6,0-6.9-3.7-7-5.7h-4.2c0,1.4,0,3.7,1.7,5.8c2.3,2.9,6.8,3.3,9,3.3c7.4,0,11.4-3.9,11.4-9
		c0-1.2-0.2-4-2.9-5.8c-1.7-1.1-2.4-1.3-9.3-3c-3.5-0.8-5.2-1.7-5.2-4.3c0-2.9,2.4-4.7,6.4-4.7c2.8,0,5.9,0.8,6.1,4.4h4.2
		c-0.1-1.2-0.2-3.2-1.8-4.9c-2.3-2.5-6.2-2.8-8.1-2.8c-5.4,0-11,2.6-11,8.4c0,1.9,0.6,4.1,3,5.7c1.5,1,3.4,1.5,7.8,2.6
		c4,1,6.6,1.6,6.6,4.9C293.5,80.8,292.7,84.5,286.7,84.5z"/>
	<polygon points="239.9,157.3 225.7,133.5 220.1,133.5 220.1,162.3 223.8,162.3 223.8,137.8 238.4,162.3 243.6,162.3 243.6,133.5 
		239.9,133.5 	"/>
	<polygon points="225,34.1 238.7,34.1 238.7,47.1 242.7,47.1 242.7,18.3 238.7,18.3 238.7,30.7 225,30.7 225,18.3 221,18.3 
		221,47.1 225,47.1 	"/>
	<path d="M175.4,147.1v-0.8V91.9h55.2v35.1h2.4V91.6l36.9-12l-0.7-2.3l-37.6,12.2h-57l-29.2-24.2l-7.6,13.2L173,91.6v49l-28.6,28.6
		l1.7,1.7l26.9-26.9v2.4v2v1.2h1.2h2h2.5l-27,27l1.7,1.7l28.6-28.6h31.6v-2.4h-37.5H175.4z M174.2,90.7L174.2,90.7L174.2,90.7
		L174.2,90.7z"/>
	<polygon points="136.1,75.9 136.1,47.1 132.4,47.1 132.4,70.9 118.2,47.1 112.6,47.1 112.6,75.9 116.3,75.9 116.3,51.4 131,75.9 	
		"/>
	<polygon points="117.5,30 131.2,30 131.2,43.1 135.2,43.1 135.2,14.2 131.2,14.2 131.2,26.6 117.5,26.6 117.5,14.2 113.5,14.2 
		113.5,43.1 117.5,43.1 	"/>
	<polygon points="284.4,166.7 286.3,167.3 286.3,167.3 286.3,167.3 287.1,167.5 287.6,166.8 287.6,166.8 320.8,121.1 354,140.3 
		355.2,138.2 322.9,119.5 354.6,101.3 353.4,99.2 320.8,118 299.7,88.9 297.8,90.4 319,119.5 286.8,163.8 286.8,163.8 286.8,163.8 
		286.2,164.7 250.1,153 249.3,155.3 284.4,166.7 	"/>
	<path d="M371,105.4c5,0,10.2-2.4,10.8-8h-4.4c-0.1,0.7-0.4,1.9-1.4,3c-1.2,1.3-2.9,1.7-4.7,1.7c-6.6,0-8.2-5.9-8.2-11.3
		c0-4.8,1.2-11.9,8.2-11.9c5.6,0,6.1,4,6.2,5h4.3c-0.5-6.6-6.3-8.2-10.4-8.2c-10.3,0-12.6,9.1-12.6,15.2
		C358.9,96.4,360.8,105.4,371,105.4z"/>
	<polygon points="403.6,88.5 389.9,88.5 389.9,76.1 385.9,76.1 385.9,104.9 389.9,104.9 389.9,91.9 403.6,91.9 403.6,104.9 
		407.6,104.9 407.6,76.1 403.6,76.1 	"/>
	<path d="M418.1,109.5c-2.4,0-3.6-1.3-3.6-3.2h-3c0,0.8,0,2.2,1.2,3.4c1.2,1.4,3.2,2,5.3,2c4.5,0,6.7-3,6.7-5.7c0-0.4,0-4.1-4.2-4.7
		c3-0.7,3.9-3,3.9-4.6c0-2.7-2.1-5.2-6.4-5.2c-1.6,0-6.1,0.5-6.2,5.3h2.8c0.3-2.4,2.1-3.1,3.5-3.1c2,0,3.4,0.9,3.4,3.1
		c0,3.1-3.2,3.5-5.2,3.4v2.2c1,0,1.7,0,2.7,0.2c1.4,0.3,2.8,1.4,2.8,3.4C422,107.8,420.8,109.5,418.1,109.5z"/>
	<path d="M371,163c5,0,10.2-2.4,10.8-8h-4.4c-0.1,0.7-0.4,1.9-1.4,3c-1.2,1.3-2.9,1.7-4.7,1.7c-6.6,0-8.2-5.9-8.2-11.3
		c0-4.8,1.2-11.9,8.2-11.9c5.6,0,6.1,4,6.2,5h4.3c-0.5-6.6-6.3-8.2-10.4-8.2c-10.3,0-12.6,9.1-12.6,15.2
		C358.9,154,360.8,163,371,163z"/>
	<polygon points="403.6,146.1 389.9,146.1 389.9,133.7 385.9,133.7 385.9,162.5 389.9,162.5 389.9,149.5 403.6,149.5 403.6,162.5 
		407.6,162.5 407.6,133.7 403.6,133.7 	"/>
	<path d="M420.6,159c3-0.7,3.9-3,3.9-4.6c0-2.7-2.1-5.2-6.4-5.2c-1.6,0-6.1,0.5-6.2,5.3h2.8c0.3-2.4,2.1-3.1,3.5-3.1
		c2,0,3.4,0.9,3.4,3.1c0,3.1-3.2,3.5-5.2,3.4v2.2c1,0,1.7,0,2.7,0.2c1.4,0.3,2.8,1.4,2.8,3.4c0,1.7-1.2,3.4-3.9,3.4
		c-2.4,0-3.6-1.3-3.6-3.2h-3c0,0.8,0,2.2,1.2,3.4c1.2,1.4,3.2,2,5.3,2c4.5,0,6.7-3,6.7-5.7C424.8,163.3,424.8,159.6,420.6,159z"/>
	<path d="M133.7,173.8c-2.7,0-6.6,0.6-9.6,3.9c-3.2,3.4-3.7,8.2-3.7,11.5c0,7.9,3.2,14.9,13,14.9c10.3,0,13.4-7.7,13.4-15.4
		C146.7,178.9,141.7,173.8,133.7,173.8z M139.9,198.1c-1.7,2-4,2.6-6.4,2.6c-2.3,0-4.8-0.6-6.4-2.6c-2-2.5-2.6-6-2.6-9.1
		c0-5.9,1.9-11.8,9.2-11.8c6.6,0,8.8,5,8.8,11.5C142.5,190.7,142.2,195.2,139.9,198.1z"/>
	<path d="M74.6,133.1c-2.7,0-6.6,0.6-9.6,3.9c-3.2,3.4-3.7,8.2-3.7,11.5c0,7.9,3.2,14.9,13,14.9c10.3,0,13.4-7.7,13.4-15.4
		C87.7,138.2,82.6,133.1,74.6,133.1z M80.8,157.4c-1.7,2-4,2.6-6.4,2.6c-2.3,0-4.8-0.6-6.4-2.6c-2-2.5-2.6-6-2.6-9.1
		c0-5.9,1.9-11.8,9.2-11.8c6.6,0,8.8,5,8.8,11.5C83.4,149.9,83.2,154.5,80.8,157.4z"/>
	<path d="M28.9,61.3c0.9-0.2,2.2-0.6,3.4-1.9c1.3-1.3,2-3.1,2-5.1c0-2.3-1-4.5-3.2-5.9c-2.1-1.4-5.2-1.4-6.6-1.4H14.2v28.9h4v-13h5
		c4.8,0,5.8,1.2,6.3,5.4c0.3,2.2,0.7,5.7,1.3,7.6h4.3c-1.1-3.2-1.4-5.7-1.8-9.1C32.9,63.3,31.6,62,28.9,61.3z M28.2,58.9
		c-1.1,0.6-3.4,0.6-3.8,0.6H18v-9.1h6.3c1.6,0,5.8,0,5.8,4.7C30.1,57.5,28.7,58.5,28.2,58.9z"/>
	<path d="M266,248.5c-2.7,0-6.6,0.6-9.6,3.9c-3.2,3.4-3.7,8.2-3.7,11.5c0,7.9,3.2,14.9,13,14.9c10.3,0,13.4-7.7,13.4-15.4
		C279.1,253.6,274,248.5,266,248.5z M272.2,272.8c-1.7,2-4,2.6-6.4,2.6c-2.3,0-4.8-0.6-6.4-2.6c-2-2.5-2.6-6-2.6-9.1
		c0-5.9,1.9-11.8,9.2-11.8c6.6,0,8.8,5,8.8,11.5C274.8,265.3,274.6,269.9,272.2,272.8z"/>
	<path d="M360.9,217.7c-2.7,0-6.6,0.6-9.6,3.9c-3.2,3.4-3.7,8.2-3.7,11.5c0,7.9,3.2,14.9,13,14.9c10.3,0,13.4-7.7,13.4-15.4
		C374,222.8,368.9,217.7,360.9,217.7z M367.1,241.9c-1.7,2-4,2.6-6.4,2.6c-2.3,0-4.8-0.6-6.4-2.6c-2-2.5-2.6-6-2.6-9.1
		c0-5.9,1.9-11.8,9.2-11.8c6.6,0,8.8,5,8.8,11.5C369.7,234.5,369.5,239.1,367.1,241.9z"/>
	<polygon points="395.7,230.8 382,230.8 382,218.4 378,218.4 378,247.3 382,247.3 382,234.3 395.7,234.3 395.7,247.3 399.7,247.3 
		399.7,218.4 395.7,218.4 	"/>
</g>
</svg>
