<?xml version="1.0" encoding="UTF-8" standalone="no"?>
<!-- Created with Inkscape (http://www.inkscape.org/) -->

<svg
   xmlns:dc="http://purl.org/dc/elements/1.1/"
   xmlns:cc="http://creativecommons.org/ns#"
   xmlns:rdf="http://www.w3.org/1999/02/22-rdf-syntax-ns#"
   xmlns:svg="http://www.w3.org/2000/svg"
   xmlns="http://www.w3.org/2000/svg"
   version="1.1"
   width="820.03"
   height="845.51"
   id="svg2">
  <defs
     id="defs4">
    <marker
       refX="0"
       refY="0"
       orient="auto"
       id="Arrow1Sstart"
       style="overflow:visible">
      <path
         d="M 0,0 5,-5 -12.5,0 5,5 0,0 z"
         transform="matrix(0.2,0,0,0.2,1.2,0)"
         id="path3839"
         style="fill-rule:evenodd;stroke:#000000;stroke-width:1pt;marker-start:none" />
    </marker>
    <marker
       refX="0"
       refY="0"
       orient="auto"
       id="Arrow1Send"
       style="overflow:visible">
      <path
         d="M 0,0 5,-5 -12.5,0 5,5 0,0 z"
         transform="matrix(-0.2,0,0,-0.2,-1.2,0)"
         id="path3842"
         style="fill-rule:evenodd;stroke:#000000;stroke-width:1pt;marker-start:none" />
    </marker>
  </defs>
  <metadata
     id="metadata7">
    <rdf:RDF>
      <cc:Work
         rdf:about="">
        <dc:format>image/svg+xml</dc:format>
        <dc:type
           rdf:resource="http://purl.org/dc/dcmitype/StillImage" />
        <dc:title></dc:title>
      </cc:Work>
    </rdf:RDF>
  </metadata>
  <g
     transform="translate(682.87,17.537)"
     id="layer1">
    <g
       transform="translate(9.999,-10.001)"
       id="g3262">
      <path
         d="M -229.33,188 C -98.161,205.73 -2.6911,321.37 -10.081,453.52"
         id="path4454"
         style="fill:none;stroke:#000101;stroke-width:12.37946;stroke-opacity:1;stroke-dashoffset:0;marker-start:none;marker-end:url(#Arrow1Send)" />
      <path
         d="m -515.57,431.08 c 3.48,-105.63 72.39,-197.91 172.69,-231.24"
         id="path3054"
         style="fill:none;stroke:#000101;stroke-width:12.38025;stroke-opacity:1;stroke-dashoffset:0;marker-start:url(#Arrow1Sstart);marker-end:none" />
      <path
         d="m -85.731,174.6 42.52,-47.86"
         id="path5568"
         style="fill:#0000ff;fill-opacity:1;stroke:#0000ff;stroke-width:4.333;stroke-miterlimit:4;stroke-opacity:1;stroke-dasharray:none;stroke-dashoffset:0" />
      <path
         d="m -240.79,132.97 8.75,-97.37"
         id="path5570"
         style="fill:#0000ff;fill-opacity:1;stroke:#0000ff;stroke-width:4.333;stroke-miterlimit:4;stroke-opacity:1;stroke-dasharray:none;stroke-dashoffset:0" />
      <path
         d="m -563.54,291.88 -51.67,-28.83"
         id="path5572"
         style="fill:#0000ff;fill-opacity:1;stroke:#0000ff;stroke-width:4.333;stroke-miterlimit:4;stroke-opacity:1;stroke-dasharray:none;stroke-dashoffset:0" />
      <path
         d="m -185.77,140.14 25.02,-63.426"
         id="path5574"
         style="fill:#0000ff;fill-opacity:1;stroke:#0000ff;stroke-width:4.333;stroke-miterlimit:4;stroke-opacity:1;stroke-dasharray:none;stroke-dashoffset:0" />
      <g
         transform="translate(-710.65,1.1156)"
         id="text5590"
         style="font-size:37.54346px;font-style:normal;font-variant:normal;font-weight:normal;font-stretch:normal;text-align:start;line-height:100%;writing-mode:lr-tb;text-anchor:start;fill:#0000ff;fill-opacity:1;stroke:none;font-family:Tahoma;-inkscape-font-specification:Tahoma">
        <path
           d="m 45.014,244.19 c 0,1.18 -0.211,2.3 -0.632,3.36 -0.422,1.06 -1.005,1.96 -1.751,2.7 -0.941,0.93 -2.047,1.64 -3.318,2.11 -1.271,0.48 -2.878,0.72 -4.821,0.72 l -3.08,0 0,10.17 -3.63,0 0,-27.29 6.857,0 c 1.613,0 2.988,0.13 4.124,0.4 1.137,0.27 2.139,0.7 3.007,1.3 1.014,0.7 1.808,1.58 2.383,2.65 0.574,1.07 0.861,2.36 0.861,3.88 z m -3.776,0.1 c 0,-0.94 -0.162,-1.76 -0.486,-2.46 -0.324,-0.7 -0.816,-1.26 -1.476,-1.7 -0.574,-0.38 -1.243,-0.65 -2.007,-0.81 -0.764,-0.16 -1.714,-0.24 -2.85,-0.24 l -3.007,0 0,10.91 2.475,0 c 1.466,0 2.652,-0.12 3.556,-0.36 0.905,-0.24 1.656,-0.66 2.255,-1.27 0.538,-0.55 0.929,-1.15 1.173,-1.8 0.245,-0.65 0.367,-1.4 0.367,-2.27 z"
           id="path4423"
           style="line-height:100%;fill:#0000ff;font-family:Tahoma;-inkscape-font-specification:Tahoma" />
        <path
           d="m 53.722,263.75 c -1.369,0 -2.649,-0.19 -3.841,-0.55 -1.191,-0.37 -2.178,-0.76 -2.96,-1.18 l 0,-3.86 0.183,0 c 0.293,0.23 0.639,0.48 1.036,0.76 0.397,0.29 0.926,0.58 1.586,0.88 0.586,0.27 1.231,0.51 1.934,0.72 0.702,0.21 1.433,0.31 2.19,0.31 0.55,0 1.137,-0.1 1.76,-0.19 0.623,-0.13 1.088,-0.29 1.393,-0.49 0.428,-0.28 0.737,-0.58 0.926,-0.9 0.189,-0.31 0.284,-0.79 0.284,-1.42 0,-0.82 -0.223,-1.44 -0.669,-1.86 -0.446,-0.41 -1.237,-0.76 -2.374,-1.04 -0.44,-0.11 -1.014,-0.24 -1.723,-0.39 -0.709,-0.14 -1.363,-0.3 -1.962,-0.47 -1.564,-0.46 -2.7,-1.15 -3.409,-2.1 -0.709,-0.95 -1.064,-2.09 -1.064,-3.44 0,-1.84 0.697,-3.35 2.09,-4.51 1.394,-1.16 3.245,-1.74 5.555,-1.74 1.136,0 2.279,0.14 3.428,0.42 1.149,0.28 2.114,0.64 2.896,1.06 l 0,3.69 -0.183,0 c -0.88,-0.7 -1.861,-1.25 -2.942,-1.65 -1.082,-0.4 -2.173,-0.61 -3.272,-0.61 -1.137,0 -2.096,0.24 -2.879,0.72 -0.782,0.48 -1.173,1.2 -1.173,2.16 0,0.86 0.232,1.5 0.697,1.92 0.464,0.42 1.21,0.77 2.236,1.03 0.514,0.14 1.085,0.27 1.714,0.4 0.63,0.13 1.293,0.28 1.989,0.45 1.516,0.38 2.655,1.01 3.419,1.89 0.764,0.88 1.146,2.07 1.146,3.59 0,0.88 -0.174,1.71 -0.523,2.5 -0.348,0.79 -0.858,1.46 -1.53,2.03 -0.734,0.61 -1.562,1.07 -2.484,1.39 -0.923,0.32 -2.081,0.48 -3.474,0.48 z"
           id="path4425"
           style="line-height:100%;fill:#0000ff;font-family:Tahoma;-inkscape-font-specification:Tahoma" />
        <path
           d="m 71.174,263.65 c -1.882,0 -3.349,-0.53 -4.4,-1.6 -1.051,-1.07 -1.576,-2.76 -1.576,-5.07 l 0,-11.35 -2.329,0 0,-2.86 2.329,0 0,-5.88 3.446,0 0,5.88 6.343,0 0,2.86 -6.343,0 0,9.74 c 0,1.04 0.02,1.84 0.05,2.4 0.04,0.56 0.177,1.09 0.422,1.58 0.207,0.42 0.543,0.75 1.008,0.96 0.464,0.21 1.094,0.32 1.888,0.32 0.562,0 1.106,-0.1 1.632,-0.25 0.525,-0.16 0.904,-0.3 1.136,-0.41 l 0.202,0 0,3.1 c -0.648,0.18 -1.305,0.32 -1.971,0.43 -0.666,0.1 -1.28,0.15 -1.842,0.15 z"
           id="path4427"
           style="line-height:100%;fill:#0000ff;font-family:Tahoma;-inkscape-font-specification:Tahoma" />
        <path
           d="m 87.324,263.25 -10.596,0 0,-2.79 3.483,0 0,-21.72 -3.483,0 0,-2.78 10.596,0 0,2.78 -3.483,0 0,21.72 3.483,0 z"
           id="path4429"
           style="line-height:100%;fill:#0000ff;font-family:Tahoma;-inkscape-font-specification:Tahoma" />
      </g>
      <g
         transform="translate(-710.65,1.1156)"
         id="text5594"
         style="font-size:35.20203px;font-style:normal;font-variant:normal;font-weight:normal;font-stretch:normal;text-align:start;line-height:100%;writing-mode:lr-tb;text-anchor:start;fill:#0000ff;fill-opacity:1;stroke:none;font-family:Tahoma;-inkscape-font-specification:Tahoma">
        <path
           d="m 445.72,28.093 -3.41,0 0,-12.531 -11.77,0 0,12.531 -3.4,0 0,-25.5938 3.4,0 0,10.0378 11.77,0 0,-10.0378 3.41,0 z"
           id="path4408"
           style="line-height:100%;fill:#0000ff;font-family:Tahoma;-inkscape-font-specification:Tahoma" />
        <path
           d="m 453.97,28.093 -3.23,0 0,-19.1997 3.23,0 z m 0.22,-22.414 -3.68,0 0,-3.3517 3.68,0 z"
           id="path4410"
           style="line-height:100%;fill:#0000ff;font-family:Tahoma;-inkscape-font-specification:Tahoma" />
        <path
           d="m 473.8,28.093 -3.23,0 0,-10.932 c 0,-0.882 0,-1.705 -0.13,-2.467 -0.1,-0.762 -0.25,-1.372 -0.49,-1.83 -0.26,-0.481 -0.63,-0.84 -1.1,-1.074 -0.47,-0.235 -1.11,-0.353 -1.92,-0.353 -0.8,0 -1.63,0.215 -2.49,0.645 -0.85,0.429 -1.68,0.988 -2.5,1.676 l 0,14.335 -3.23,0 0,-19.1997 3.23,0 0,2.1317 c 0.97,-0.86 1.92,-1.5186 2.86,-1.977 0.94,-0.4584 1.93,-0.6875 2.97,-0.6876 1.89,10e-5 3.37,0.6217 4.43,1.8646 1.07,1.244 1.6,3.046 1.6,5.406 z"
           id="path4412"
           style="line-height:100%;fill:#0000ff;font-family:Tahoma;-inkscape-font-specification:Tahoma" />
        <path
           d="m 493.16,28.093 -3.23,0 0,-1.96 c -0.51,0.424 -0.94,0.774 -1.31,1.049 -0.37,0.275 -0.8,0.527 -1.29,0.756 -0.46,0.218 -0.93,0.387 -1.43,0.507 -0.49,0.121 -1.06,0.181 -1.71,0.181 -1.05,0 -2.01,-0.218 -2.9,-0.653 -0.89,-0.436 -1.64,-1.072 -2.26,-1.908 -0.63,-0.848 -1.12,-1.894 -1.46,-3.137 -0.35,-1.244 -0.52,-2.673 -0.52,-4.289 0,-1.684 0.22,-3.142 0.66,-4.374 0.43,-1.232 1.03,-2.306 1.8,-3.223 0.7,-0.837 1.54,-1.4927 2.54,-1.9682 0.99,-0.4756 2.03,-0.7133 3.12,-0.7134 0.96,10e-5 1.79,0.1061 2.5,0.318 0.72,0.212 1.47,0.5415 2.26,0.9884 l 0,-8.3193 3.23,0 z m -3.23,-4.675 0,-11.07 c -0.81,-0.389 -1.52,-0.659 -2.16,-0.808 -0.64,-0.149 -1.33,-0.223 -2.07,-0.223 -1.66,0 -2.96,0.622 -3.9,1.865 -0.94,1.243 -1.41,3.039 -1.41,5.388 0,2.258 0.36,3.985 1.08,5.183 0.72,1.197 1.88,1.796 3.47,1.796 0.85,0 1.7,-0.192 2.56,-0.576 0.86,-0.384 1.67,-0.902 2.43,-1.555 z"
           id="path4414"
           style="line-height:100%;fill:#0000ff;font-family:Tahoma;-inkscape-font-specification:Tahoma" />
        <path
           d="m 507.03,28.093 -9.94,0 0,-2.613 3.27,0 0,-20.3682 -3.27,0 0,-2.6126 9.94,0 0,2.6126 -3.27,0 0,20.3682 3.27,0 z"
           id="path4416"
           style="line-height:100%;fill:#0000ff;font-family:Tahoma;-inkscape-font-specification:Tahoma" />
        <path
           d="m 520.16,28.093 -9.93,0 0,-2.613 3.26,0 0,-20.3682 -3.26,0 0,-2.6126 9.93,0 0,2.6126 -3.26,0 0,20.3682 3.26,0 z"
           id="path4418"
           style="line-height:100%;fill:#0000ff;font-family:Tahoma;-inkscape-font-specification:Tahoma" />
        <path
           d="m 533.29,28.093 -9.93,0 0,-2.613 3.26,0 0,-20.3682 -3.26,0 0,-2.6126 9.93,0 0,2.6126 -3.26,0 0,20.3682 3.26,0 z"
           id="path4420"
           style="line-height:100%;fill:#0000ff;font-family:Tahoma;-inkscape-font-specification:Tahoma" />
      </g>
      <g
         transform="translate(-710.65,1.1156)"
         id="text5598"
         style="font-size:35.20203px;font-style:normal;font-variant:normal;font-weight:normal;font-stretch:normal;text-align:start;line-height:100%;writing-mode:lr-tb;text-anchor:start;fill:#0000ff;fill-opacity:1;stroke:none;font-family:Tahoma;-inkscape-font-specification:Tahoma">
        <path
           d="m 508.52,67.062 0,-25.593 16.01,0 0,3.025 -12.6,0 0,7.013 11.74,0 0,3.025 -11.74,0 0,9.505 12.6,0 0,3.025 z"
           id="path4397"
           style="line-height:100%;fill:#0000ff;font-family:Tahoma;-inkscape-font-specification:Tahoma" />
        <path
           d="m 535.63,67.492 c -1.32,0 -2.53,-0.203 -3.63,-0.61 -1.1,-0.407 -2.04,-1.023 -2.83,-1.848 -0.79,-0.825 -1.41,-1.865 -1.84,-3.12 -0.44,-1.254 -0.66,-2.73 -0.66,-4.426 0,-1.684 0.23,-3.139 0.68,-4.365 0.46,-1.227 1.06,-2.258 1.82,-3.094 0.75,-0.837 1.7,-1.481 2.82,-1.934 1.13,-0.453 2.34,-0.679 3.64,-0.679 1.05,0 2.07,0.149 3.05,0.447 0.98,0.298 1.85,0.642 2.62,1.031 l 0,3.627 -0.19,0 c -0.23,-0.195 -0.52,-0.418 -0.88,-0.67 -0.36,-0.252 -0.8,-0.51 -1.32,-0.774 -0.44,-0.229 -0.97,-0.43 -1.58,-0.601 -0.61,-0.172 -1.19,-0.258 -1.75,-0.258 -1.68,0 -3.02,0.633 -4.03,1.899 -1.02,1.266 -1.52,3.057 -1.52,5.371 0,2.269 0.49,4.037 1.47,5.303 0.98,1.266 2.34,1.899 4.08,1.899 1.05,0 2.05,-0.217 3.01,-0.653 0.95,-0.435 1.79,-0.997 2.52,-1.684 l 0.19,0 0,3.627 c -0.32,0.149 -0.72,0.329 -1.2,0.541 -0.48,0.212 -0.92,0.37 -1.31,0.473 -0.55,0.16 -1.04,0.283 -1.48,0.369 -0.43,0.09 -0.99,0.129 -1.68,0.129 z"
           id="path4399"
           style="line-height:100%;fill:#0000ff;font-family:Tahoma;-inkscape-font-specification:Tahoma" />
        <path
           d="m 560.02,57.471 c 0,3.232 -0.78,5.727 -2.34,7.486 -1.56,1.759 -3.63,2.638 -6.22,2.638 -2.67,0 -4.77,-0.908 -6.3,-2.724 -1.53,-1.816 -2.29,-4.283 -2.29,-7.4 0,-3.208 0.78,-5.701 2.36,-7.477 1.57,-1.776 3.65,-2.664 6.23,-2.664 2.59,0 4.66,0.885 6.22,2.656 1.56,1.77 2.34,4.265 2.34,7.485 z m -3.33,0 c 0,-2.486 -0.46,-4.334 -1.36,-5.543 -0.91,-1.209 -2.2,-1.813 -3.87,-1.813 -1.68,0 -2.98,0.604 -3.89,1.813 -0.91,1.209 -1.37,3.057 -1.37,5.543 0,2.407 0.46,4.231 1.37,5.475 0.91,1.243 2.21,1.865 3.89,1.865 1.66,0 2.95,-0.61 3.86,-1.831 0.91,-1.22 1.37,-3.057 1.37,-5.509 z"
           id="path4401"
           style="line-height:100%;fill:#0000ff;font-family:Tahoma;-inkscape-font-specification:Tahoma" />
        <path
           d="m 583.41,67.062 -4.41,0 -8.12,-10.175 -3.88,0 0,10.175 -3.41,0 0,-25.593 6.61,0 c 1.46,0 2.69,0.08 3.68,0.24 0.99,0.161 1.94,0.533 2.83,1.118 0.89,0.573 1.6,1.312 2.12,2.217 0.52,0.905 0.78,2.028 0.78,3.369 0,1.879 -0.47,3.449 -1.42,4.71 -0.95,1.26 -2.25,2.194 -3.89,2.801 z m -7.35,-18.391 c 0,-0.745 -0.14,-1.407 -0.4,-1.986 -0.26,-0.578 -0.67,-1.051 -1.22,-1.418 -0.48,-0.32 -1.04,-0.547 -1.68,-0.679 -0.65,-0.131 -1.44,-0.197 -2.39,-0.197 l -3.37,0 0,9.66 2.99,0 c 0.97,0 1.85,-0.09 2.63,-0.258 0.78,-0.172 1.44,-0.527 1.99,-1.066 0.5,-0.481 0.86,-1.054 1.09,-1.719 0.24,-0.664 0.36,-1.443 0.36,-2.337 z"
           id="path4403"
           style="line-height:100%;fill:#0000ff;font-family:Tahoma;-inkscape-font-specification:Tahoma" />
        <path
           d="m 604,41.469 -8.8,25.593 -3.67,0 -8.8,-25.593 3.64,0 7.08,21.245 7.08,-21.245 z"
           id="path4405"
           style="line-height:100%;fill:#0000ff;font-family:Tahoma;-inkscape-font-specification:Tahoma" />
      </g>
      <g
         transform="translate(-710.65,1.1156)"
         id="text5602"
         style="font-size:35.20203px;font-style:normal;font-variant:normal;font-weight:normal;font-stretch:normal;text-align:start;line-height:100%;writing-mode:lr-tb;text-anchor:start;fill:#0000ff;fill-opacity:1;stroke:none;font-family:Tahoma;-inkscape-font-specification:Tahoma">
        <path
           d="m 651.4,109.1 c 0,1.27 -0.24,2.39 -0.73,3.36 -0.48,0.98 -1.12,1.78 -1.94,2.41 -0.96,0.76 -1.99,1.29 -3.09,1.61 -1.1,0.31 -2.52,0.47 -4.26,0.47 l -7.34,0 0,-25.594 6.79,0 c 1.82,0 3.18,0.06 4.1,0.181 0.91,0.12 1.78,0.404 2.62,0.851 0.91,0.493 1.58,1.137 2.01,1.934 0.42,0.796 0.63,1.733 0.63,2.81 0,1.203 -0.31,2.28 -0.95,3.228 -0.64,0.95 -1.52,1.7 -2.64,2.24 l 0,0.14 c 1.53,0.41 2.71,1.16 3.54,2.26 0.84,1.09 1.26,2.46 1.26,4.1 z m -4.75,-11.487 c 0,-0.619 -0.1,-1.154 -0.31,-1.607 -0.2,-0.453 -0.54,-0.811 -0.99,-1.074 -0.55,-0.31 -1.17,-0.499 -1.84,-0.568 -0.68,-0.07 -1.61,-0.103 -2.8,-0.103 l -3.27,0 0,7.499 3.87,0 c 1.06,0 1.85,-0.1 2.35,-0.17 0.51,-0.11 1.03,-0.33 1.57,-0.68 0.51,-0.33 0.88,-0.76 1.1,-1.303 0.21,-0.539 0.32,-1.203 0.32,-1.994 z m 1.21,11.617 c 0,-0.96 -0.14,-1.75 -0.42,-2.38 -0.27,-0.62 -0.83,-1.15 -1.66,-1.59 -0.54,-0.28 -1.13,-0.47 -1.77,-0.55 -0.63,-0.1 -1.53,-0.12 -2.7,-0.12 l -3.87,0 0,9.46 2.77,0 c 1.49,0 2.66,-0.1 3.52,-0.21 0.86,-0.14 1.62,-0.43 2.27,-0.88 0.64,-0.44 1.11,-0.95 1.41,-1.52 0.3,-0.57 0.45,-1.3 0.45,-2.21 z"
           id="path4386"
           style="line-height:100%;fill:#0000ff;font-family:Tahoma;-inkscape-font-specification:Tahoma" />
        <path
           d="m 665.27,112.22 0,-5.33 c -0.77,0.1 -1.74,0.17 -2.92,0.29 -1.17,0.12 -2.12,0.29 -2.84,0.51 -0.86,0.26 -1.57,0.66 -2.13,1.21 -0.56,0.54 -0.84,1.3 -0.84,2.27 0,1.1 0.31,1.94 0.92,2.5 0.62,0.56 1.53,0.84 2.72,0.84 1.02,0 1.94,-0.22 2.77,-0.66 0.82,-0.44 1.6,-0.98 2.32,-1.63 z m 0,2.68 c -0.27,0.2 -0.62,0.47 -1.06,0.82 -0.44,0.35 -0.87,0.63 -1.28,0.83 -0.57,0.3 -1.13,0.53 -1.66,0.69 -0.53,0.16 -1.28,0.24 -2.24,0.24 -0.79,0 -1.54,-0.15 -2.25,-0.44 -0.71,-0.3 -1.34,-0.72 -1.88,-1.26 -0.51,-0.53 -0.93,-1.18 -1.23,-1.95 -0.31,-0.77 -0.47,-1.59 -0.47,-2.45 0,-1.33 0.28,-2.46 0.84,-3.39 0.57,-0.94 1.45,-1.68 2.67,-2.23 1.08,-0.49 2.35,-0.83 3.81,-1.02 1.47,-0.19 3.05,-0.33 4.75,-0.42 l 0,-0.62 c 0,-0.76 -0.12,-1.37 -0.35,-1.83 -0.23,-0.47 -0.55,-0.82 -0.96,-1.08 -0.41,-0.26 -0.92,-0.44 -1.51,-0.52 -0.6,-0.1 -1.21,-0.13 -1.84,-0.13 -0.75,0 -1.62,0.11 -2.63,0.33 -1.01,0.23 -2.02,0.55 -3.03,0.98 l -0.18,0 0,-3.287 c 0.59,-0.172 1.45,-0.361 2.56,-0.567 1.11,-0.206 2.21,-0.309 3.3,-0.309 1.31,0 2.43,0.103 3.33,0.309 0.91,0.206 1.72,0.579 2.44,1.117 0.7,0.527 1.22,1.209 1.57,2.047 0.34,0.84 0.51,1.85 0.51,3.06 l 0,13.13 -3.21,0 z"
           id="path4388"
           style="line-height:100%;fill:#0000ff;font-family:Tahoma;-inkscape-font-specification:Tahoma" />
        <path
           d="m 694.83,116.95 0,-11.1 c 0,-0.89 0,-1.7 -0.1,-2.45 -0.1,-0.75 -0.21,-1.34 -0.43,-1.76 -0.23,-0.46 -0.56,-0.8 -0.98,-1.02 -0.42,-0.22 -1,-0.33 -1.72,-0.33 -0.66,0 -1.38,0.21 -2.14,0.61 -0.76,0.41 -1.55,1 -2.36,1.77 0,0.19 0,0.42 0,0.69 0,0.27 0,0.59 0,0.96 l 0,12.63 -3.24,0 0,-11.1 c 0,-0.89 0,-1.7 -0.1,-2.45 -0.1,-0.75 -0.21,-1.34 -0.43,-1.76 -0.23,-0.46 -0.55,-0.8 -0.98,-1.02 -0.42,-0.22 -1,-0.33 -1.72,-0.33 -0.7,0 -1.43,0.22 -2.2,0.66 -0.76,0.43 -1.51,0.99 -2.23,1.66 l 0,14.34 -3.23,0 0,-19.199 3.23,0 0,2.131 c 0.85,-0.848 1.69,-1.504 2.52,-1.968 0.83,-0.464 1.74,-0.696 2.74,-0.696 1.13,0 2.14,0.258 3.01,0.773 0.88,0.516 1.55,1.364 2.01,2.549 0.97,-1.093 1.92,-1.918 2.85,-2.48 0.93,-0.561 1.94,-0.842 3.03,-0.842 0.82,0 1.57,0.129 2.25,0.387 0.67,0.257 1.26,0.673 1.77,1.246 0.51,0.584 0.91,1.309 1.19,2.179 0.28,0.87 0.42,1.97 0.42,3.29 l 0,12.63 z"
           id="path4390"
           style="line-height:100%;fill:#0000ff;font-family:Tahoma;-inkscape-font-specification:Tahoma" />
        <path
           d="m 721.44,116.95 -3.4,0 0,-12.53 -11.78,0 0,12.53 -3.4,0 0,-25.594 3.4,0 0,10.034 11.78,0 0,-10.034 3.4,0 z"
           id="path4392"
           style="line-height:100%;fill:#0000ff;font-family:Tahoma;-inkscape-font-specification:Tahoma" />
        <path
           d="m 735.59,116.95 -9.94,0 0,-2.61 3.27,0 0,-20.371 -3.27,0 0,-2.613 9.94,0 0,2.613 -3.27,0 0,20.371 3.27,0 z"
           id="path4394"
           style="line-height:100%;fill:#0000ff;font-family:Tahoma;-inkscape-font-specification:Tahoma" />
      </g>
      <g
         transform="translate(-710.65,1.1156)"
         id="text6218"
         style="font-size:45.57375px;font-style:italic;font-variant:normal;font-weight:normal;font-stretch:normal;text-align:start;line-height:100%;text-anchor:start;fill:#000000;fill-opacity:1;stroke:none;font-family:Arial">
        <path
           d="m 581.71,324.16 -0.67,3.3 c -0.96,0.25 -1.9,0.37 -2.8,0.37 -1.6,0 -2.88,-0.39 -3.83,-1.17 -0.71,-0.6 -1.07,-1.41 -1.07,-2.43 0,-0.52 0.2,-1.71 0.58,-3.58 l 2.87,-13.73 -3.18,0 0.65,-3.12 3.18,0 1.22,-5.81 4.61,-2.78 -1.8,8.59 3.96,0 -0.67,3.12 -3.94,0 -2.74,13.06 c -0.34,1.66 -0.51,2.65 -0.51,2.98 0,0.48 0.14,0.84 0.41,1.09 0.28,0.25 0.73,0.38 1.35,0.38 0.89,0 1.68,-0.1 2.38,-0.27 z"
           id="path4379" />
        <path
           d="m 602.3,319.4 3.91,0.4 c -0.56,1.94 -1.86,3.79 -3.88,5.54 -2.03,1.75 -4.44,2.63 -7.24,2.63 -1.76,0 -3.36,-0.41 -4.82,-1.21 -1.46,-0.81 -2.58,-1.99 -3.34,-3.53 -0.76,-1.54 -1.15,-3.3 -1.15,-5.28 0,-2.58 0.6,-5.08 1.8,-7.51 1.19,-2.42 2.74,-4.22 4.63,-5.4 1.9,-1.18 3.96,-1.77 6.17,-1.77 2.82,0 5.07,0.87 6.75,2.62 1.69,1.75 2.53,4.14 2.53,7.17 0,1.16 -0.11,2.34 -0.31,3.56 l -17.4,0 c -0.1,0.46 -0.1,0.87 -0.1,1.25 0,2.21 0.5,3.89 1.52,5.06 1.02,1.16 2.26,1.74 3.73,1.74 1.38,0 2.73,-0.45 4.07,-1.35 1.34,-0.91 2.37,-2.21 3.12,-3.92 z m -11.71,-5.85 13.26,0 c 0,-0.42 0,-0.71 0,-0.89 0,-2.02 -0.51,-3.57 -1.52,-4.64 -1.01,-1.08 -2.3,-1.61 -3.89,-1.61 -1.72,0 -3.29,0.59 -4.71,1.78 -1.42,1.18 -2.47,2.97 -3.17,5.36 z"
           id="path4381" />
        <path
           d="m 619.72,324.16 -0.67,3.3 c -0.96,0.25 -1.9,0.37 -2.8,0.37 -1.6,0 -2.88,-0.39 -3.83,-1.17 -0.71,-0.6 -1.07,-1.41 -1.07,-2.43 0,-0.52 0.2,-1.71 0.58,-3.58 l 2.87,-13.73 -3.18,0 0.64,-3.12 3.19,0 1.22,-5.81 4.61,-2.78 -1.81,8.59 3.97,0 -0.67,3.12 -3.94,0 -2.74,13.06 c -0.34,1.66 -0.51,2.65 -0.51,2.98 0,0.48 0.14,0.84 0.41,1.09 0.28,0.25 0.73,0.38 1.35,0.38 0.89,0 1.68,-0.1 2.38,-0.27 z"
           id="path4383" />
      </g>
      <g
         transform="translate(-710.65,1.1156)"
         id="text6234"
         style="font-size:44.30007px;font-style:oblique;font-variant:normal;font-weight:normal;font-stretch:normal;text-align:start;line-height:100%;writing-mode:lr-tb;text-anchor:start;fill:#000000;fill-opacity:1;stroke:none;font-family:Arial;-inkscape-font-specification:Arial Oblique">
        <path
           d="m 271.75,346.19 c -1.36,1.17 -2.66,2.02 -3.92,2.56 -1.25,0.54 -2.59,0.82 -4.02,0.82 -2.12,0 -3.83,-0.63 -5.13,-1.88 -1.29,-1.24 -1.94,-2.84 -1.94,-4.79 0,-1.28 0.29,-2.42 0.87,-3.4 0.59,-0.99 1.36,-1.78 2.33,-2.38 0.96,-0.6 2.15,-1.03 3.55,-1.29 0.88,-0.17 2.54,-0.31 5,-0.41 2.46,-0.1 4.22,-0.36 5.29,-0.78 0.3,-1.07 0.46,-1.95 0.46,-2.66 0,-0.91 -0.34,-1.62 -1,-2.14 -0.91,-0.72 -2.23,-1.08 -3.98,-1.08 -1.64,0 -2.99,0.36 -4.03,1.09 -1.05,0.73 -1.81,1.76 -2.29,3.1 l -3.95,-0.34 c 0.8,-2.28 2.08,-4.03 3.84,-5.24 1.75,-1.21 3.96,-1.82 6.63,-1.82 2.84,0 5.09,0.68 6.74,2.04 1.27,1.01 1.91,2.32 1.91,3.93 0,1.23 -0.18,2.65 -0.54,4.27 l -1.28,5.71 c -0.4,1.81 -0.6,3.29 -0.6,4.43 0,0.72 0.15,1.76 0.47,3.12 l -3.96,0 c -0.21,-0.75 -0.36,-1.71 -0.45,-2.86 z m 1.45,-8.78 c -0.55,0.21 -1.14,0.38 -1.76,0.5 -0.63,0.11 -1.68,0.23 -3.15,0.36 -2.28,0.21 -3.89,0.46 -4.83,0.77 -0.93,0.31 -1.64,0.81 -2.12,1.48 -0.47,0.68 -0.71,1.43 -0.71,2.25 0,1.1 0.38,2 1.14,2.71 0.75,0.7 1.83,1.06 3.23,1.06 1.3,0 2.55,-0.35 3.74,-1.03 1.2,-0.69 2.14,-1.64 2.84,-2.87 0.69,-1.22 1.23,-2.97 1.62,-5.23 z"
           id="path4372"
           style="line-height:100%;font-family:Arial;-inkscape-font-specification:Arial Oblique" />
        <path
           d="m 280.9,349.05 4.8,-22.98 3.92,0 -0.8,3.79 c 1.45,-1.63 2.75,-2.75 3.9,-3.38 1.15,-0.62 2.39,-0.93 3.73,-0.93 1.43,0 2.62,0.38 3.58,1.14 0.96,0.76 1.59,1.81 1.89,3.17 1.17,-1.44 2.4,-2.52 3.69,-3.23 1.29,-0.72 2.65,-1.08 4.08,-1.08 1.92,0 3.36,0.46 4.31,1.37 0.96,0.91 1.44,2.18 1.44,3.83 0,0.7 -0.16,1.87 -0.49,3.5 l -3.1,14.8 -3.91,0 3.16,-15.19 c 0.27,-1.24 0.41,-2.13 0.41,-2.66 0,-0.75 -0.24,-1.34 -0.72,-1.77 -0.47,-0.44 -1.14,-0.65 -2.01,-0.65 -1.17,0 -2.36,0.35 -3.57,1.06 -1.21,0.7 -2.15,1.63 -2.82,2.78 -0.67,1.14 -1.26,2.91 -1.76,5.29 l -2.34,11.14 -3.92,0 3.25,-15.51 c 0.23,-1.06 0.35,-1.81 0.35,-2.25 0,-0.75 -0.24,-1.36 -0.71,-1.82 -0.47,-0.46 -1.08,-0.69 -1.83,-0.69 -1.11,0 -2.27,0.35 -3.49,1.06 -1.22,0.7 -2.21,1.69 -2.97,2.95 -0.77,1.26 -1.39,3.06 -1.88,5.4 l -2.28,10.86 z"
           id="path4374"
           style="line-height:100%;font-family:Arial;-inkscape-font-specification:Arial Oblique" />
        <path
           d="m 315.94,357.85 6.64,-31.78 3.61,0 -0.67,3.21 c 1.34,-1.4 2.54,-2.37 3.6,-2.91 1.06,-0.54 2.19,-0.82 3.37,-0.82 2.19,0 4.01,0.8 5.45,2.4 1.44,1.59 2.16,3.87 2.16,6.84 0,2.4 -0.39,4.58 -1.19,6.54 -0.79,1.97 -1.76,3.56 -2.92,4.75 -1.15,1.2 -2.32,2.08 -3.5,2.64 -1.18,0.56 -2.4,0.85 -3.64,0.85 -2.75,0 -4.88,-1.4 -6.4,-4.2 l -2.59,12.48 z m 7.74,-18.19 c 0,1.71 0.13,2.9 0.37,3.57 0.36,0.93 0.95,1.69 1.78,2.27 0.82,0.58 1.77,0.86 2.85,0.86 2.25,0 4.07,-1.26 5.45,-3.79 1.39,-2.53 2.08,-5.12 2.08,-7.76 0,-1.94 -0.47,-3.45 -1.4,-4.51 -0.93,-1.06 -2.08,-1.59 -3.47,-1.59 -0.99,0 -1.92,0.27 -2.77,0.79 -0.85,0.53 -1.64,1.31 -2.37,2.36 -0.72,1.05 -1.33,2.33 -1.8,3.84 -0.48,1.51 -0.72,2.83 -0.72,3.96 z"
           id="path4376"
           style="line-height:100%;font-family:Arial;-inkscape-font-specification:Arial Oblique" />
      </g>
      <g
         transform="translate(-710.65,1.1156)"
         id="text6242"
         style="font-size:22.284px;font-style:normal;font-variant:normal;font-weight:bold;font-stretch:condensed;text-align:start;line-height:100%;text-anchor:start;fill:#000000;fill-opacity:1;fill-rule:evenodd;stroke:none;font-family:Arial Narrow">
        <path
           d="m 737.42,393.34 -1.96,0 0,-12.48 c -0.47,0.45 -1.09,0.9 -1.86,1.35 -0.76,0.45 -1.45,0.79 -2.06,1.01 l 0,-1.89 c 1.1,-0.52 2.05,-1.14 2.87,-1.87 0.82,-0.74 1.4,-1.45 1.75,-2.14 l 1.26,0 z"
           id="path4363" />
        <path
           d="m 742.44,385.47 c 0,-1.88 0.2,-3.4 0.59,-4.55 0.38,-1.15 0.96,-2.04 1.73,-2.66 0.76,-0.62 1.72,-0.94 2.89,-0.94 0.85,0 1.6,0.18 2.25,0.52 0.64,0.35 1.18,0.84 1.6,1.49 0.42,0.65 0.75,1.44 0.99,2.37 0.24,0.94 0.36,2.19 0.36,3.77 0,1.87 -0.2,3.39 -0.58,4.54 -0.38,1.15 -0.96,2.03 -1.72,2.66 -0.77,0.63 -1.74,0.94 -2.9,0.94 -1.54,0 -2.75,-0.55 -3.63,-1.65 -1.05,-1.33 -1.58,-3.49 -1.58,-6.49 z m 2.02,0 c 0,2.62 0.3,4.36 0.92,5.23 0.61,0.87 1.37,1.3 2.27,1.3 0.89,0 1.65,-0.43 2.26,-1.3 0.62,-0.87 0.92,-2.62 0.92,-5.23 0,-2.62 -0.3,-4.37 -0.92,-5.23 -0.61,-0.86 -1.37,-1.3 -2.29,-1.3 -0.9,0 -1.61,0.39 -2.15,1.15 -0.68,0.97 -1.01,2.76 -1.01,5.38 z"
           id="path4365" />
        <path
           d="m 754.85,385.47 c 0,-1.88 0.19,-3.4 0.58,-4.55 0.39,-1.15 0.97,-2.04 1.73,-2.66 0.77,-0.62 1.73,-0.94 2.89,-0.94 0.86,0 1.61,0.18 2.25,0.52 0.65,0.35 1.18,0.84 1.6,1.49 0.42,0.65 0.75,1.44 0.99,2.37 0.24,0.94 0.36,2.19 0.36,3.77 0,1.87 -0.19,3.39 -0.58,4.54 -0.38,1.15 -0.96,2.03 -1.72,2.66 -0.77,0.63 -1.73,0.94 -2.9,0.94 -1.54,0 -2.75,-0.55 -3.62,-1.65 -1.06,-1.33 -1.58,-3.49 -1.58,-6.49 z m 2.01,0 c 0,2.62 0.31,4.36 0.92,5.23 0.61,0.87 1.37,1.3 2.27,1.3 0.9,0 1.66,-0.43 2.27,-1.3 0.61,-0.87 0.92,-2.62 0.92,-5.23 0,-2.62 -0.31,-4.37 -0.92,-5.23 -0.61,-0.86 -1.38,-1.3 -2.29,-1.3 -0.9,0 -1.62,0.39 -2.16,1.15 -0.67,0.97 -1.01,2.76 -1.01,5.38 z"
           id="path4367" />
        <path
           d="m 767.25,385.47 c 0,-1.88 0.2,-3.4 0.58,-4.55 0.39,-1.15 0.97,-2.04 1.73,-2.66 0.77,-0.62 1.73,-0.94 2.89,-0.94 0.86,0 1.61,0.18 2.26,0.52 0.64,0.35 1.17,0.84 1.6,1.49 0.42,0.65 0.75,1.44 0.99,2.37 0.24,0.94 0.35,2.19 0.35,3.77 0,1.87 -0.19,3.39 -0.57,4.54 -0.39,1.15 -0.96,2.03 -1.73,2.66 -0.76,0.63 -1.73,0.94 -2.9,0.94 -1.53,0 -2.74,-0.55 -3.62,-1.65 -1.05,-1.33 -1.58,-3.49 -1.58,-6.49 z m 2.02,0 c 0,2.62 0.3,4.36 0.92,5.23 0.61,0.87 1.36,1.3 2.26,1.3 0.9,0 1.66,-0.43 2.27,-1.3 0.62,-0.87 0.92,-2.62 0.92,-5.23 0,-2.62 -0.3,-4.37 -0.92,-5.23 -0.61,-0.86 -1.37,-1.3 -2.29,-1.3 -0.9,0 -1.62,0.39 -2.15,1.15 -0.68,0.97 -1.01,2.76 -1.01,5.38 z"
           id="path4369" />
      </g>
      <g
         transform="translate(-710.65,1.1156)"
         id="text6246"
         style="font-size:22.284px;font-style:normal;font-variant:normal;font-weight:normal;font-stretch:normal;text-align:start;line-height:100%;writing-mode:lr-tb;text-anchor:start;fill:#000000;fill-opacity:1;fill-rule:evenodd;stroke:none;font-family:Sans;-inkscape-font-specification:Sans">
        <path
           d="m 442.47,146.72 c 0,-1.89 0.19,-3.41 0.58,-4.56 0.39,-1.15 0.97,-2.03 1.73,-2.66 0.77,-0.62 1.73,-0.93 2.89,-0.93 0.86,0 1.61,0.17 2.25,0.51 0.65,0.35 1.18,0.84 1.6,1.49 0.42,0.65 0.75,1.44 0.99,2.38 0.24,0.93 0.36,2.18 0.36,3.77 0,1.87 -0.19,3.38 -0.57,4.53 -0.39,1.15 -0.96,2.04 -1.73,2.66 -0.76,0.63 -1.73,0.94 -2.9,0.94 -1.54,0 -2.74,-0.55 -3.62,-1.65 -1.05,-1.33 -1.58,-3.49 -1.58,-6.48 z m 2.01,0 c 0,2.61 0.31,4.36 0.92,5.22 0.62,0.87 1.37,1.3 2.27,1.3 0.9,0 1.66,-0.43 2.27,-1.3 0.61,-0.87 0.92,-2.61 0.92,-5.22 0,-2.63 -0.31,-4.37 -0.92,-5.24 -0.61,-0.86 -1.38,-1.29 -2.29,-1.29 -0.9,0 -1.62,0.38 -2.15,1.14 -0.68,0.97 -1.02,2.77 -1.02,5.39 z"
           id="path4360" />
      </g>
      <g
         transform="translate(-710.65,1.1156)"
         id="text6250"
         style="font-size:22.284px;font-style:normal;font-variant:normal;font-weight:bold;font-stretch:condensed;text-align:start;line-height:100%;text-anchor:start;fill:#000000;fill-opacity:1;fill-rule:evenodd;stroke:none;font-family:Arial Narrow">
        <path
           d="m 544.02,720.41 0,1.88 -10.54,0 c 0,-0.47 0.1,-0.92 0.23,-1.36 0.27,-0.71 0.7,-1.42 1.29,-2.12 0.59,-0.69 1.44,-1.5 2.56,-2.41 1.73,-1.42 2.9,-2.55 3.51,-3.38 0.61,-0.83 0.92,-1.62 0.92,-2.36 0,-0.77 -0.28,-1.43 -0.83,-1.96 -0.56,-0.53 -1.28,-0.8 -2.18,-0.8 -0.94,0 -1.69,0.28 -2.26,0.85 -0.56,0.56 -0.85,1.35 -0.86,2.35 l -2.01,-0.21 c 0.14,-1.5 0.65,-2.64 1.55,-3.43 0.9,-0.79 2.11,-1.18 3.63,-1.18 1.53,0 2.74,0.42 3.63,1.27 0.89,0.85 1.34,1.9 1.34,3.16 0,0.64 -0.13,1.26 -0.39,1.88 -0.26,0.62 -0.7,1.27 -1.3,1.95 -0.61,0.68 -1.61,1.61 -3.02,2.8 -1.18,0.99 -1.93,1.66 -2.26,2.01 -0.34,0.35 -0.61,0.71 -0.83,1.06 z"
           id="path4351" />
        <path
           d="m 546.13,714.43 c 0,-1.89 0.2,-3.41 0.59,-4.56 0.38,-1.15 0.96,-2.03 1.73,-2.66 0.76,-0.62 1.72,-0.93 2.88,-0.93 0.86,0 1.61,0.17 2.26,0.52 0.64,0.34 1.18,0.84 1.6,1.49 0.42,0.65 0.75,1.44 0.99,2.37 0.24,0.93 0.36,2.19 0.36,3.77 0,1.87 -0.2,3.38 -0.58,4.53 -0.39,1.15 -0.96,2.04 -1.73,2.67 -0.76,0.62 -1.73,0.94 -2.9,0.94 -1.53,0 -2.74,-0.55 -3.62,-1.66 -1.05,-1.32 -1.58,-3.49 -1.58,-6.48 z m 2.02,0 c 0,2.62 0.3,4.36 0.92,5.23 0.61,0.86 1.36,1.3 2.26,1.3 0.9,0 1.66,-0.44 2.27,-1.31 0.62,-0.87 0.92,-2.61 0.92,-5.22 0,-2.63 -0.3,-4.37 -0.92,-5.24 -0.61,-0.86 -1.37,-1.29 -2.29,-1.29 -0.9,0 -1.62,0.38 -2.15,1.14 -0.68,0.97 -1.01,2.77 -1.01,5.39 z"
           id="path4353" />
        <path
           d="m 558.54,714.43 c 0,-1.89 0.19,-3.41 0.58,-4.56 0.39,-1.15 0.96,-2.03 1.73,-2.66 0.76,-0.62 1.73,-0.93 2.89,-0.93 0.85,0 1.6,0.17 2.25,0.52 0.65,0.34 1.18,0.84 1.6,1.49 0.42,0.65 0.75,1.44 0.99,2.37 0.24,0.93 0.36,2.19 0.36,3.77 0,1.87 -0.19,3.38 -0.58,4.53 -0.38,1.15 -0.96,2.04 -1.72,2.67 -0.77,0.62 -1.73,0.94 -2.9,0.94 -1.54,0 -2.75,-0.55 -3.63,-1.66 -1.05,-1.32 -1.57,-3.49 -1.57,-6.48 z m 2.01,0 c 0,2.62 0.31,4.36 0.92,5.23 0.61,0.86 1.37,1.3 2.27,1.3 0.9,0 1.65,-0.44 2.27,-1.31 0.61,-0.87 0.92,-2.61 0.92,-5.22 0,-2.63 -0.31,-4.37 -0.92,-5.24 -0.62,-0.86 -1.38,-1.29 -2.29,-1.29 -0.9,0 -1.62,0.38 -2.16,1.14 -0.67,0.97 -1.01,2.77 -1.01,5.39 z"
           id="path4355" />
        <path
           d="m 570.94,714.43 c 0,-1.89 0.2,-3.41 0.58,-4.56 0.39,-1.15 0.97,-2.03 1.73,-2.66 0.77,-0.62 1.73,-0.93 2.89,-0.93 0.86,0 1.61,0.17 2.25,0.52 0.65,0.34 1.18,0.84 1.6,1.49 0.42,0.65 0.76,1.44 0.99,2.37 0.24,0.93 0.36,2.19 0.36,3.77 0,1.87 -0.19,3.38 -0.57,4.53 -0.39,1.15 -0.96,2.04 -1.73,2.67 -0.76,0.62 -1.73,0.94 -2.9,0.94 -1.54,0 -2.74,-0.55 -3.62,-1.66 -1.05,-1.32 -1.58,-3.49 -1.58,-6.48 z m 2.01,0 c 0,2.62 0.31,4.36 0.92,5.23 0.62,0.86 1.37,1.3 2.27,1.3 0.9,0 1.66,-0.44 2.27,-1.31 0.61,-0.87 0.92,-2.61 0.92,-5.22 0,-2.63 -0.31,-4.37 -0.92,-5.24 -0.61,-0.86 -1.38,-1.29 -2.29,-1.29 -0.9,0 -1.62,0.38 -2.15,1.14 -0.68,0.97 -1.02,2.77 -1.02,5.39 z"
           id="path4357" />
      </g>
      <g
         transform="translate(-710.65,1.1156)"
         id="text6254"
         style="font-size:22.284px;font-style:normal;font-variant:normal;font-weight:bold;font-stretch:condensed;text-align:start;line-height:100%;text-anchor:start;fill:#000000;fill-opacity:1;fill-rule:evenodd;stroke:none;font-family:Arial Narrow">
        <path
           d="m 139.7,556.44 1.96,-0.26 c 0.23,1.11 0.61,1.9 1.15,2.39 0.54,0.49 1.2,0.74 1.97,0.74 0.92,0 1.7,-0.32 2.34,-0.96 0.63,-0.64 0.95,-1.43 0.95,-2.37 0,-0.9 -0.29,-1.64 -0.88,-2.23 -0.59,-0.58 -1.34,-0.87 -2.24,-0.87 -0.37,0 -0.83,0.1 -1.39,0.22 l 0.22,-1.72 c 0.13,0 0.24,0 0.32,0 0.83,0 1.58,-0.22 2.25,-0.65 0.67,-0.44 1,-1.11 1,-2.02 0,-0.72 -0.24,-1.31 -0.73,-1.78 -0.48,-0.47 -1.11,-0.71 -1.88,-0.71 -0.76,0 -1.4,0.24 -1.9,0.72 -0.51,0.48 -0.84,1.2 -0.98,2.15 l -1.96,-0.34 c 0.24,-1.32 0.78,-2.33 1.63,-3.06 0.85,-0.72 1.9,-1.08 3.17,-1.08 0.87,0 1.67,0.19 2.4,0.56 0.73,0.37 1.29,0.88 1.68,1.53 0.39,0.65 0.58,1.33 0.58,2.06 0,0.69 -0.18,1.31 -0.55,1.88 -0.37,0.56 -0.92,1.01 -1.64,1.35 0.94,0.22 1.67,0.67 2.19,1.35 0.53,0.69 0.79,1.55 0.79,2.58 0,1.39 -0.51,2.57 -1.53,3.54 -1.01,0.97 -2.3,1.45 -3.85,1.45 -1.4,0 -2.56,-0.42 -3.48,-1.25 -0.93,-0.84 -1.46,-1.92 -1.59,-3.24 z"
           id="path4342" />
        <path
           d="m 152.1,552.78 c 0,-1.89 0.19,-3.4 0.58,-4.55 0.39,-1.15 0.96,-2.04 1.73,-2.66 0.76,-0.63 1.73,-0.94 2.89,-0.94 0.85,0 1.6,0.17 2.25,0.52 0.64,0.34 1.18,0.84 1.6,1.49 0.42,0.65 0.75,1.44 0.99,2.37 0.24,0.93 0.36,2.19 0.36,3.77 0,1.87 -0.19,3.38 -0.58,4.53 -0.38,1.15 -0.96,2.04 -1.72,2.67 -0.77,0.63 -1.74,0.94 -2.9,0.94 -1.54,0 -2.75,-0.55 -3.63,-1.65 -1.05,-1.33 -1.57,-3.49 -1.57,-6.49 z m 2.01,0 c 0,2.62 0.3,4.36 0.92,5.23 0.61,0.87 1.37,1.3 2.27,1.3 0.9,0 1.65,-0.44 2.27,-1.31 0.61,-0.87 0.91,-2.61 0.91,-5.22 0,-2.63 -0.3,-4.37 -0.91,-5.23 -0.62,-0.87 -1.38,-1.3 -2.3,-1.3 -0.89,0 -1.61,0.38 -2.15,1.14 -0.67,0.98 -1.01,2.77 -1.01,5.39 z"
           id="path4344" />
        <path
           d="m 164.5,552.78 c 0,-1.89 0.19,-3.4 0.58,-4.55 0.39,-1.15 0.97,-2.04 1.73,-2.66 0.77,-0.63 1.73,-0.94 2.89,-0.94 0.86,0 1.61,0.17 2.25,0.52 0.65,0.34 1.18,0.84 1.6,1.49 0.42,0.65 0.75,1.44 0.99,2.37 0.24,0.93 0.36,2.19 0.36,3.77 0,1.87 -0.19,3.38 -0.57,4.53 -0.39,1.15 -0.96,2.04 -1.73,2.67 -0.76,0.63 -1.73,0.94 -2.9,0.94 -1.54,0 -2.74,-0.55 -3.62,-1.65 -1.05,-1.33 -1.58,-3.49 -1.58,-6.49 z m 2.01,0 c 0,2.62 0.31,4.36 0.92,5.23 0.61,0.87 1.37,1.3 2.27,1.3 0.9,0 1.66,-0.44 2.27,-1.31 0.61,-0.87 0.92,-2.61 0.92,-5.22 0,-2.63 -0.31,-4.37 -0.92,-5.23 -0.61,-0.87 -1.38,-1.3 -2.29,-1.3 -0.9,0 -1.62,0.38 -2.16,1.14 -0.67,0.98 -1.01,2.77 -1.01,5.39 z"
           id="path4346" />
        <path
           d="m 176.9,552.78 c 0,-1.89 0.2,-3.4 0.59,-4.55 0.38,-1.15 0.96,-2.04 1.73,-2.66 0.76,-0.63 1.72,-0.94 2.88,-0.94 0.86,0 1.61,0.17 2.26,0.52 0.64,0.34 1.18,0.84 1.6,1.49 0.42,0.65 0.75,1.44 0.99,2.37 0.24,0.93 0.36,2.19 0.36,3.77 0,1.87 -0.2,3.38 -0.58,4.53 -0.39,1.15 -0.96,2.04 -1.73,2.67 -0.76,0.63 -1.73,0.94 -2.9,0.94 -1.53,0 -2.74,-0.55 -3.62,-1.65 -1.05,-1.33 -1.58,-3.49 -1.58,-6.49 z m 2.02,0 c 0,2.62 0.3,4.36 0.92,5.23 0.61,0.87 1.37,1.3 2.26,1.3 0.9,0 1.66,-0.44 2.27,-1.31 0.62,-0.87 0.92,-2.61 0.92,-5.22 0,-2.63 -0.3,-4.37 -0.92,-5.23 -0.61,-0.87 -1.37,-1.3 -2.29,-1.3 -0.9,0 -1.61,0.38 -2.15,1.14 -0.68,0.98 -1.01,2.77 -1.01,5.39 z"
           id="path4348" />
      </g>
      <g
         transform="translate(-710.65,1.1156)"
         id="text6258"
         style="font-size:22.284px;font-style:normal;font-variant:normal;font-weight:bold;font-stretch:condensed;text-align:start;line-height:100%;text-anchor:start;fill:#000000;fill-opacity:1;fill-rule:evenodd;stroke:none;font-family:Arial Narrow">
        <path
           d="m 268,194.2 0,-3.82 -6.92,0 0,-1.8 7.28,-10.33 1.6,0 0,10.33 2.15,0 0,1.8 -2.15,0 0,3.82 z m 0,-5.62 0,-7.19 -4.99,7.19 z"
           id="path4333" />
        <path
           d="m 274.13,186.33 c 0,-1.88 0.19,-3.4 0.58,-4.55 0.39,-1.15 0.96,-2.04 1.73,-2.66 0.76,-0.63 1.73,-0.94 2.89,-0.94 0.85,0 1.6,0.17 2.25,0.52 0.65,0.34 1.18,0.84 1.6,1.49 0.42,0.65 0.75,1.44 0.99,2.37 0.24,0.93 0.36,2.19 0.36,3.77 0,1.87 -0.19,3.38 -0.58,4.53 -0.38,1.15 -0.96,2.04 -1.72,2.67 -0.77,0.63 -1.73,0.94 -2.9,0.94 -1.54,0 -2.75,-0.55 -3.63,-1.65 -1.05,-1.33 -1.57,-3.49 -1.57,-6.49 z m 2.01,0 c 0,2.62 0.31,4.36 0.92,5.23 0.61,0.87 1.37,1.3 2.27,1.3 0.9,0 1.65,-0.43 2.27,-1.3 0.61,-0.88 0.92,-2.62 0.92,-5.23 0,-2.62 -0.31,-4.37 -0.92,-5.23 -0.62,-0.86 -1.38,-1.3 -2.29,-1.3 -0.9,0 -1.62,0.38 -2.16,1.15 -0.67,0.97 -1.01,2.76 -1.01,5.38 z"
           id="path4335" />
        <path
           d="m 286.53,186.33 c 0,-1.88 0.19,-3.4 0.58,-4.55 0.39,-1.15 0.97,-2.04 1.73,-2.66 0.77,-0.63 1.73,-0.94 2.89,-0.94 0.86,0 1.61,0.17 2.25,0.52 0.65,0.34 1.18,0.84 1.6,1.49 0.42,0.65 0.75,1.44 0.99,2.37 0.24,0.93 0.36,2.19 0.36,3.77 0,1.87 -0.19,3.38 -0.57,4.53 -0.39,1.15 -0.96,2.04 -1.73,2.67 -0.76,0.63 -1.73,0.94 -2.9,0.94 -1.54,0 -2.74,-0.55 -3.62,-1.65 -1.05,-1.33 -1.58,-3.49 -1.58,-6.49 z m 2.01,0 c 0,2.62 0.31,4.36 0.92,5.23 0.62,0.87 1.37,1.3 2.27,1.3 0.9,0 1.66,-0.43 2.27,-1.3 0.61,-0.88 0.92,-2.62 0.92,-5.23 0,-2.62 -0.31,-4.37 -0.92,-5.23 -0.61,-0.86 -1.38,-1.3 -2.29,-1.3 -0.9,0 -1.62,0.38 -2.15,1.15 -0.68,0.97 -1.02,2.76 -1.02,5.38 z"
           id="path4337" />
        <path
           d="m 298.93,186.33 c 0,-1.88 0.2,-3.4 0.59,-4.55 0.38,-1.15 0.96,-2.04 1.73,-2.66 0.76,-0.63 1.73,-0.94 2.89,-0.94 0.85,0 1.6,0.17 2.25,0.52 0.64,0.34 1.18,0.84 1.6,1.49 0.42,0.65 0.75,1.44 0.99,2.37 0.24,0.93 0.36,2.19 0.36,3.77 0,1.87 -0.2,3.38 -0.58,4.53 -0.38,1.15 -0.96,2.04 -1.72,2.67 -0.77,0.63 -1.74,0.94 -2.9,0.94 -1.54,0 -2.75,-0.55 -3.63,-1.65 -1.05,-1.33 -1.58,-3.49 -1.58,-6.49 z m 2.02,0 c 0,2.62 0.3,4.36 0.92,5.23 0.61,0.87 1.37,1.3 2.27,1.3 0.9,0 1.65,-0.43 2.26,-1.3 0.62,-0.88 0.92,-2.62 0.92,-5.23 0,-2.62 -0.3,-4.37 -0.92,-5.23 -0.61,-0.86 -1.37,-1.3 -2.29,-1.3 -0.9,0 -1.61,0.38 -2.15,1.15 -0.68,0.97 -1.01,2.76 -1.01,5.38 z"
           id="path4339" />
      </g>
      <g
         transform="translate(-710.65,1.1156)"
         id="text6315"
         style="font-size:49.52px;font-style:normal;font-variant:normal;font-weight:bold;font-stretch:normal;text-align:start;line-height:100%;writing-mode:lr-tb;text-anchor:start;fill:#000000;fill-opacity:1;fill-rule:evenodd;stroke:none;font-family:Sans;-inkscape-font-specification:Sans Bold">
        <path
           d="m 357.71,427.82 6.33,0 0,3.77 c 0.82,-1.29 1.93,-2.33 3.34,-3.14 1.4,-0.81 2.96,-1.21 4.66,-1.21 2.99,0 5.52,1.17 7.6,3.51 2.08,2.34 3.12,5.59 3.12,9.77 0,4.28 -1.05,7.62 -3.15,9.99 -2.09,2.38 -4.63,3.57 -7.61,3.57 -1.42,0 -2.71,-0.28 -3.86,-0.85 -1.15,-0.56 -2.37,-1.53 -3.64,-2.9 l 0,12.94 -6.79,0 z m 6.72,12.41 c 0,2.88 0.57,5.01 1.71,6.39 1.15,1.38 2.54,2.07 4.19,2.07 1.58,0 2.89,-0.63 3.94,-1.9 1.05,-1.26 1.57,-3.34 1.57,-6.23 0,-2.69 -0.54,-4.69 -1.62,-5.99 -1.08,-1.31 -2.42,-1.96 -4.01,-1.96 -1.66,0 -3.04,0.64 -4.14,1.92 -1.09,1.28 -1.64,3.18 -1.64,5.7 z"
           id="path4320" />
        <path
           d="m 388.24,418.05 14.17,0 c 2.81,0 4.9,0.12 6.28,0.35 1.38,0.24 2.61,0.73 3.7,1.47 1.09,0.74 1.99,1.73 2.72,2.96 0.72,1.23 1.09,2.61 1.09,4.15 0,1.66 -0.45,3.18 -1.35,4.57 -0.89,1.38 -2.1,2.42 -3.64,3.11 2.16,0.63 3.83,1.71 4.99,3.22 1.16,1.52 1.74,3.3 1.74,5.34 0,1.62 -0.38,3.18 -1.13,4.71 -0.75,1.52 -1.77,2.74 -3.07,3.65 -1.3,0.91 -2.9,1.47 -4.8,1.68 -1.19,0.13 -4.07,0.21 -8.63,0.24 l -12.07,0 z m 7.16,5.9 0,8.2 4.69,0 c 2.79,0 4.52,0 5.2,-0.12 1.23,-0.15 2.19,-0.57 2.89,-1.27 0.7,-0.7 1.05,-1.62 1.05,-2.77 0,-1.09 -0.3,-1.99 -0.9,-2.67 -0.61,-0.69 -1.51,-1.1 -2.7,-1.25 -0.71,-0.1 -2.75,-0.12 -6.12,-0.12 z m 0,14.1 0,9.48 6.63,0 c 2.58,0 4.21,-0.1 4.91,-0.22 1.06,-0.19 1.93,-0.66 2.59,-1.41 0.67,-0.75 1.01,-1.76 1.01,-3.01 0,-1.07 -0.26,-1.97 -0.78,-2.71 -0.51,-0.74 -1.26,-1.28 -2.23,-1.62 -0.98,-0.34 -3.09,-0.51 -6.35,-0.51 z"
           id="path4322" />
        <path
           d="m 424.03,453.5 0,-35.45 15.06,0 c 3.79,0 6.54,0.32 8.26,0.96 1.72,0.64 3.09,1.77 4.12,3.4 1.04,1.62 1.55,3.49 1.55,5.58 0,2.66 -0.78,4.86 -2.34,6.59 -1.57,1.73 -3.9,2.83 -7.02,3.28 1.55,0.9 2.83,1.89 3.84,2.97 1,1.08 2.36,3 4.07,5.76 l 4.33,6.91 -8.56,0 -5.18,-7.71 c -1.83,-2.76 -3.09,-4.5 -3.77,-5.21 -0.67,-0.72 -1.39,-1.21 -2.15,-1.48 -0.76,-0.26 -1.96,-0.4 -3.6,-0.4 l -1.45,0 0,14.8 z m 7.16,-20.46 5.29,0 c 3.44,0 5.58,-0.14 6.43,-0.43 0.86,-0.29 1.53,-0.79 2.01,-1.5 0.48,-0.71 0.73,-1.6 0.73,-2.66 0,-1.19 -0.32,-2.16 -0.96,-2.89 -0.64,-0.73 -1.53,-1.2 -2.69,-1.39 -0.58,-0.1 -2.33,-0.12 -5.23,-0.12 l -5.58,0 z"
           id="path4324" />
        <path
           d="m 458.05,444.09 6.58,-0.79 c 0.21,1.67 0.77,2.95 1.69,3.84 0.92,0.89 2.03,1.33 3.34,1.33 1.4,0 2.58,-0.53 3.54,-1.59 0.96,-1.07 1.44,-2.5 1.44,-4.31 0,-1.71 -0.46,-3.06 -1.38,-4.06 -0.92,-1 -2.04,-1.5 -3.36,-1.5 -0.87,0 -1.91,0.17 -3.12,0.51 l 0.75,-5.54 c 1.84,0 3.24,-0.35 4.21,-1.2 0.96,-0.84 1.45,-1.97 1.45,-3.37 0,-1.19 -0.36,-2.14 -1.07,-2.85 -0.71,-0.71 -1.65,-1.07 -2.83,-1.07 -1.16,0 -2.15,0.41 -2.97,1.21 -0.82,0.81 -1.32,1.99 -1.5,3.53 l -6.26,-1.06 c 0.43,-2.14 1.09,-3.86 1.97,-5.14 0.88,-1.28 2.1,-2.29 3.67,-3.02 1.58,-0.73 3.34,-1.1 5.29,-1.1 3.33,0 6.01,1.06 8.03,3.19 1.66,1.74 2.49,3.71 2.49,5.9 0,3.11 -1.7,5.59 -5.11,7.45 2.04,0.43 3.66,1.41 4.88,2.92 1.21,1.52 1.82,3.35 1.82,5.49 0,3.11 -1.13,5.76 -3.41,7.96 -2.27,2.19 -5.1,3.29 -8.48,3.29 -3.21,0 -5.87,-0.93 -7.98,-2.77 -2.12,-1.85 -3.34,-4.26 -3.68,-7.25 z"
           id="path4326" />
        <path
           d="m 508.8,447.19 0,6.31 -23.81,0 c 0.26,-2.38 1.03,-4.65 2.32,-6.78 1.29,-2.14 3.83,-4.97 7.64,-8.5 3.06,-2.85 4.94,-4.79 5.63,-5.8 0.94,-1.41 1.41,-2.79 1.41,-4.16 0,-1.52 -0.41,-2.68 -1.23,-3.5 -0.81,-0.81 -1.93,-1.22 -3.37,-1.22 -1.42,0 -2.55,0.43 -3.38,1.28 -0.84,0.86 -1.33,2.28 -1.45,4.26 l -6.77,-0.68 c 0.4,-3.74 1.66,-6.42 3.79,-8.05 2.13,-1.63 4.79,-2.44 7.98,-2.44 3.5,0 6.25,0.94 8.25,2.83 1.99,1.88 2.99,4.23 2.99,7.03 0,1.6 -0.28,3.12 -0.85,4.56 -0.58,1.44 -1.48,2.96 -2.72,4.54 -0.83,1.04 -2.31,2.55 -4.45,4.52 -2.15,1.96 -3.51,3.27 -4.08,3.91 -0.57,0.65 -1.03,1.28 -1.39,1.89 z"
           id="path4328" />
        <path
           d="m 536.37,447.19 0,6.31 -23.82,0 c 0.26,-2.38 1.03,-4.65 2.32,-6.78 1.29,-2.14 3.84,-4.97 7.64,-8.5 3.07,-2.85 4.94,-4.79 5.64,-5.8 0.93,-1.41 1.4,-2.79 1.4,-4.16 0,-1.52 -0.41,-2.68 -1.22,-3.5 -0.81,-0.81 -1.94,-1.22 -3.37,-1.22 -1.42,0 -2.55,0.43 -3.39,1.28 -0.84,0.86 -1.32,2.28 -1.45,4.26 l -6.77,-0.68 c 0.4,-3.74 1.67,-6.42 3.8,-8.05 2.12,-1.63 4.78,-2.44 7.98,-2.44 3.49,0 6.24,0.94 8.24,2.83 2,1.88 3,4.23 3,7.03 0,1.6 -0.29,3.12 -0.86,4.56 -0.57,1.44 -1.48,2.96 -2.72,4.54 -0.82,1.04 -2.3,2.55 -4.45,4.52 -2.14,1.96 -3.5,3.27 -4.07,3.91 -0.58,0.65 -1.04,1.28 -1.39,1.89 z"
           id="path4330" />
      </g>
      <path
         d="M -388.58,658.51 C -450.34,623.2 -494.32,563.47 -509.73,494.02"
         id="path6435"
         style="fill:none;stroke:#000101;stroke-width:12.38025;stroke-opacity:1;stroke-dashoffset:0;marker-start:url(#Arrow1Sstart);marker-end:none" />
      <path
         d="m 7.6289,439.35 c 0,149.64 -121.3089,270.95 -270.9589,270.95 -149.64,0 -270.95,-121.31 -270.95,-270.95 0,-149.65 121.31,-270.96 270.95,-270.96 149.65,0 270.9589,121.31 270.9589,270.96 z"
         id="path3052"
         style="fill:none;stroke:#e84f1b;stroke-width:12.37948;stroke-opacity:1;stroke-dashoffset:0" />
      <g
         transform="translate(-710.65,1.1156)"
         id="text6437"
         style="font-size:45.57375px;font-style:italic;font-variant:normal;font-weight:normal;font-stretch:normal;text-align:start;line-height:100%;text-anchor:start;fill:#000000;fill-opacity:1;stroke:none;font-family:Arial">
        <path
           d="m 276.55,586.4 c 0,-4.61 1.36,-8.43 4.07,-11.46 2.24,-2.49 5.18,-3.73 8.82,-3.73 2.84,0 5.14,0.89 6.88,2.67 1.75,1.78 2.62,4.18 2.62,7.21 0,2.71 -0.55,5.24 -1.65,7.57 -1.1,2.34 -2.66,4.13 -4.68,5.38 -2.03,1.24 -4.16,1.87 -6.4,1.87 -1.84,0 -3.51,-0.4 -5.02,-1.18 -1.5,-0.79 -2.65,-1.9 -3.45,-3.34 -0.79,-1.44 -1.19,-3.1 -1.19,-4.99 z m 4.03,-0.4 c 0,2.23 0.53,3.92 1.6,5.07 1.07,1.15 2.43,1.72 4.07,1.72 0.86,0 1.72,-0.17 2.56,-0.52 0.85,-0.35 1.64,-0.88 2.36,-1.59 0.73,-0.71 1.35,-1.53 1.86,-2.44 0.51,-0.91 0.92,-1.89 1.24,-2.95 0.46,-1.47 0.69,-2.88 0.69,-4.23 0,-2.13 -0.54,-3.79 -1.62,-4.97 -1.07,-1.18 -2.43,-1.77 -4.06,-1.77 -1.26,0 -2.41,0.3 -3.45,0.9 -1.04,0.6 -1.98,1.48 -2.81,2.64 -0.84,1.16 -1.46,2.5 -1.85,4.04 -0.39,1.53 -0.59,2.9 -0.59,4.1 z"
           id="path4311"
           style="fill:#000000" />
        <path
           d="m 301.21,595.37 4.94,-23.63 3.56,0 -1,4.83 c 1.21,-1.83 2.4,-3.18 3.57,-4.05 1.16,-0.88 2.35,-1.31 3.57,-1.31 0.8,0 1.79,0.29 2.96,0.86 l -1.65,3.74 c -0.69,-0.5 -1.46,-0.75 -2.29,-0.75 -1.41,0 -2.85,0.78 -4.34,2.35 -1.48,1.58 -2.65,4.4 -3.49,8.48 l -2,9.48 z"
           id="path4313"
           style="fill:#000000" />
        <path
           d="m 322.15,567.31 0.95,-4.56 4.01,0 -0.96,4.56 z m -5.88,28.06 4.94,-23.63 4.03,0 -4.94,23.63 z"
           id="path4315"
           style="fill:#000000" />
      </g>
      <g
         transform="translate(-710.65,1.1156)"
         id="text6315-1"
         style="font-size:32.63144px;font-style:normal;font-variant:normal;font-weight:bold;font-stretch:normal;text-align:start;line-height:100%;text-anchor:start;fill:#000000;fill-opacity:1;fill-rule:evenodd;stroke:none;font-family:Arial Rounded MT Bold">
        <path
           d="m 401.47,489.58 0,-5.6 -10.13,0 0,-2.63 10.66,-15.13 2.34,0 0,15.13 3.16,0 0,2.63 -3.16,0 0,5.6 z m 0,-8.23 0,-10.53 -7.31,10.53 z"
           id="path4298" />
        <path
           d="m 410.46,483.41 2.87,-0.38 c 0.33,1.62 0.89,2.79 1.68,3.51 0.79,0.72 1.75,1.08 2.89,1.08 1.35,0 2.49,-0.47 3.42,-1.41 0.93,-0.93 1.39,-2.09 1.39,-3.47 0,-1.32 -0.43,-2.4 -1.29,-3.26 -0.86,-0.85 -1.95,-1.28 -3.28,-1.28 -0.54,0 -1.22,0.11 -2.02,0.32 l 0.31,-2.52 c 0.2,0 0.35,0 0.47,0 1.22,0 2.32,-0.32 3.29,-0.95 0.98,-0.64 1.47,-1.62 1.47,-2.95 0,-1.05 -0.36,-1.92 -1.07,-2.61 -0.71,-0.7 -1.63,-1.04 -2.75,-1.04 -1.12,0 -2.05,0.35 -2.79,1.05 -0.75,0.7 -1.22,1.75 -1.44,3.16 l -2.86,-0.51 c 0.35,-1.93 1.14,-3.42 2.39,-4.47 1.24,-1.06 2.78,-1.59 4.63,-1.59 1.28,0 2.45,0.27 3.52,0.82 1.08,0.55 1.9,1.3 2.47,2.24 0.56,0.95 0.85,1.95 0.85,3.01 0,1.01 -0.27,1.93 -0.81,2.76 -0.55,0.83 -1.35,1.49 -2.41,1.97 1.38,0.32 2.45,0.98 3.22,1.99 0.76,1 1.14,2.26 1.14,3.77 0,2.04 -0.74,3.76 -2.23,5.18 -1.48,1.42 -3.36,2.13 -5.64,2.13 -2.05,0 -3.75,-0.61 -5.1,-1.83 -1.36,-1.22 -2.13,-2.81 -2.32,-4.75 z"
           id="path4300" />
        <path
           d="m 443.49,471.94 -2.85,0.22 c -0.26,-1.13 -0.62,-1.94 -1.09,-2.45 -0.77,-0.82 -1.73,-1.23 -2.86,-1.23 -0.92,0 -1.72,0.25 -2.41,0.76 -0.9,0.66 -1.62,1.62 -2.14,2.89 -0.52,1.26 -0.79,3.06 -0.81,5.4 0.69,-1.05 1.54,-1.83 2.53,-2.34 1,-0.51 2.05,-0.77 3.14,-0.77 1.92,0 3.54,0.71 4.89,2.11 1.34,1.41 2.01,3.23 2.01,5.46 0,1.47 -0.31,2.83 -0.95,4.09 -0.63,1.26 -1.5,2.22 -2.6,2.89 -1.1,0.67 -2.36,1 -3.76,1 -2.39,0 -4.34,-0.88 -5.85,-2.63 -1.51,-1.76 -2.26,-4.66 -2.26,-8.7 0,-4.51 0.83,-7.79 2.5,-9.84 1.46,-1.79 3.42,-2.68 5.88,-2.68 1.84,0 3.34,0.52 4.52,1.55 1.17,1.03 1.87,2.45 2.11,4.27 z m -11.71,10.07 c 0,0.98 0.21,1.93 0.63,2.83 0.42,0.91 1,1.59 1.76,2.07 0.75,0.47 1.54,0.71 2.37,0.71 1.21,0 2.25,-0.49 3.12,-1.47 0.88,-0.98 1.31,-2.31 1.31,-3.98 0,-1.62 -0.43,-2.89 -1.29,-3.82 -0.86,-0.93 -1.94,-1.39 -3.25,-1.39 -1.3,0 -2.4,0.46 -3.3,1.39 -0.9,0.93 -1.35,2.15 -1.35,3.66 z"
           id="path4302" />
        <path
           d="m 457.57,489.58 -2.86,0 0,-18.28 c -0.69,0.66 -1.6,1.32 -2.72,1.98 -1.12,0.65 -2.13,1.15 -3.02,1.48 l 0,-2.78 c 1.6,-0.75 3.01,-1.66 4.21,-2.74 1.2,-1.07 2.05,-2.11 2.55,-3.12 l 1.84,0 z"
           id="path4304" />
        <path
           d="m 477.43,489.58 -2.66,0 0,-23.36 2.86,0 0,8.33 c 1.21,-1.52 2.76,-2.28 4.64,-2.28 1.04,0 2.03,0.21 2.96,0.63 0.93,0.42 1.69,1.01 2.29,1.77 0.6,0.76 1.07,1.68 1.41,2.75 0.34,1.07 0.51,2.22 0.51,3.44 0,2.9 -0.72,5.14 -2.15,6.72 -1.43,1.59 -3.16,2.38 -5.16,2.38 -2,0 -3.57,-0.84 -4.7,-2.5 z m 0,-8.59 c 0,2.03 0.28,3.49 0.83,4.39 0.91,1.48 2.13,2.22 3.67,2.22 1.25,0 2.33,-0.54 3.25,-1.63 0.91,-1.09 1.37,-2.71 1.37,-4.87 0,-2.21 -0.44,-3.84 -1.32,-4.89 -0.87,-1.05 -1.93,-1.58 -3.17,-1.58 -1.26,0 -2.34,0.54 -3.25,1.63 -0.92,1.09 -1.38,2.67 -1.38,4.73 z"
           id="path4306" />
        <path
           d="m 492.95,496.06 0,-23.41 2.61,0 0,2.2 c 0.61,-0.86 1.31,-1.5 2.09,-1.93 0.77,-0.43 1.71,-0.65 2.82,-0.65 1.44,0 2.72,0.37 3.82,1.12 1.1,0.74 1.94,1.79 2.5,3.14 0.56,1.36 0.85,2.84 0.85,4.46 0,1.73 -0.31,3.29 -0.94,4.67 -0.62,1.39 -1.52,2.45 -2.7,3.19 -1.19,0.74 -2.43,1.11 -3.74,1.11 -0.96,0 -1.81,-0.2 -2.57,-0.61 -0.76,-0.4 -1.39,-0.91 -1.88,-1.53 l 0,8.24 z m 2.59,-14.85 c 0,2.18 0.44,3.79 1.33,4.83 0.88,1.04 1.94,1.56 3.2,1.56 1.27,0 2.36,-0.54 3.27,-1.62 0.91,-1.08 1.36,-2.75 1.36,-5.01 0,-2.16 -0.44,-3.77 -1.33,-4.84 -0.88,-1.08 -1.94,-1.61 -3.17,-1.61 -1.23,0 -2.31,0.57 -3.25,1.71 -0.94,1.14 -1.41,2.8 -1.41,4.98 z"
           id="path4308" />
      </g>
      <g
         transform="translate(-710.65,1.1156)"
         id="text5594-1"
         style="font-size:35.20203px;font-style:normal;font-variant:normal;font-weight:normal;font-stretch:normal;text-align:start;line-height:100%;writing-mode:lr-tb;text-anchor:start;fill:#0000ff;fill-opacity:1;stroke:none;font-family:Tahoma;-inkscape-font-specification:Tahoma">
        <path
           d="m 779.87,231.55 c -1.85,0 -3.43,-0.19 -4.73,-0.58 -1.3,-0.38 -2.53,-0.86 -3.67,-1.42 l 0,-4.26 0.24,0 c 1.12,1.05 2.39,1.87 3.81,2.45 1.42,0.58 2.79,0.87 4.11,0.87 1.88,0 3.3,-0.39 4.26,-1.18 0.97,-0.78 1.45,-1.82 1.45,-3.1 0,-1.02 -0.25,-1.85 -0.76,-2.49 -0.5,-0.65 -1.3,-1.12 -2.4,-1.43 -0.8,-0.23 -1.52,-0.42 -2.17,-0.57 -0.65,-0.15 -1.47,-0.35 -2.46,-0.6 -0.88,-0.23 -1.67,-0.52 -2.37,-0.88 -0.7,-0.35 -1.32,-0.82 -1.86,-1.39 -0.52,-0.56 -0.93,-1.22 -1.23,-1.98 -0.29,-0.77 -0.43,-1.65 -0.43,-2.64 0,-2.08 0.8,-3.82 2.42,-5.22 1.62,-1.4 3.68,-2.1 6.19,-2.1 1.43,0 2.78,0.14 4.06,0.42 1.28,0.29 2.46,0.7 3.55,1.23 l 0,4.07 -0.26,0 c -0.81,-0.75 -1.85,-1.4 -3.12,-1.95 -1.28,-0.56 -2.61,-0.84 -4.01,-0.84 -1.58,0 -2.86,0.37 -3.83,1.11 -0.98,0.74 -1.46,1.71 -1.46,2.92 0,1.09 0.28,1.95 0.86,2.59 0.57,0.64 1.4,1.11 2.49,1.41 0.72,0.2 1.6,0.42 2.65,0.66 1.04,0.25 1.9,0.48 2.59,0.68 1.77,0.54 3.05,1.35 3.87,2.44 0.81,1.09 1.22,2.43 1.22,4.03 0,0.99 -0.2,1.98 -0.61,2.95 -0.41,0.98 -0.98,1.8 -1.71,2.48 -0.83,0.74 -1.76,1.31 -2.79,1.72 -1.04,0.4 -2.34,0.6 -3.9,0.6 z"
           id="path4289"
           style="line-height:100%;fill:#0000ff;font-family:Tahoma;-inkscape-font-specification:Tahoma" />
        <path
           d="m 802.8,226.36 0,-5.33 c -0.77,0.1 -1.74,0.16 -2.91,0.28 -1.18,0.12 -2.12,0.29 -2.85,0.51 -0.86,0.26 -1.57,0.67 -2.13,1.21 -0.56,0.54 -0.84,1.3 -0.84,2.28 0,1.1 0.31,1.93 0.93,2.49 0.62,0.56 1.52,0.84 2.71,0.84 1.02,0 1.95,-0.22 2.77,-0.66 0.83,-0.44 1.6,-0.98 2.32,-1.62 z m 0,2.68 c -0.26,0.19 -0.61,0.46 -1.06,0.81 -0.44,0.35 -0.86,0.63 -1.28,0.84 -0.57,0.3 -1.12,0.52 -1.65,0.69 -0.54,0.16 -1.29,0.24 -2.25,0.24 -0.79,0 -1.54,-0.15 -2.25,-0.45 -0.71,-0.3 -1.33,-0.72 -1.87,-1.26 -0.52,-0.52 -0.93,-1.17 -1.24,-1.95 -0.31,-0.77 -0.46,-1.59 -0.46,-2.45 0,-1.33 0.28,-2.46 0.84,-3.39 0.56,-0.93 1.45,-1.68 2.66,-2.23 1.08,-0.49 2.35,-0.83 3.82,-1.02 1.46,-0.19 3.05,-0.33 4.74,-0.42 l 0,-0.62 c 0,-0.76 -0.11,-1.37 -0.34,-1.83 -0.23,-0.46 -0.55,-0.82 -0.96,-1.07 -0.42,-0.27 -0.92,-0.44 -1.52,-0.53 -0.59,-0.1 -1.21,-0.13 -1.84,-0.13 -0.74,0 -1.62,0.11 -2.63,0.34 -1,0.22 -2.01,0.55 -3.02,0.97 l -0.19,0 0,-3.28 c 0.6,-0.18 1.45,-0.36 2.56,-0.57 1.11,-0.21 2.21,-0.31 3.3,-0.31 1.32,0 2.43,0.1 3.34,0.31 0.9,0.21 1.71,0.58 2.44,1.12 0.69,0.52 1.22,1.2 1.56,2.04 0.34,0.84 0.52,1.86 0.52,3.06 l 0,13.13 -3.22,0 z"
           id="path4291"
           style="line-height:100%;fill:#0000ff;font-family:Tahoma;-inkscape-font-specification:Tahoma" />
        <path
           d="m 813.87,231.08 -3.23,0 0,-26.74 3.23,0 z"
           id="path4293"
           style="line-height:100%;fill:#0000ff;font-family:Tahoma;-inkscape-font-specification:Tahoma" />
        <path
           d="m 827.81,231.08 -9.93,0 0,-2.61 3.26,0 0,-20.37 -3.26,0 0,-2.61 9.93,0 0,2.61 -3.27,0 0,20.37 3.27,0 z"
           id="path4295"
           style="line-height:100%;fill:#0000ff;font-family:Tahoma;-inkscape-font-specification:Tahoma" />
      </g>
      <g
         transform="translate(-710.65,1.1156)"
         id="text5598-4"
         style="font-size:35.20203px;font-style:normal;font-variant:normal;font-weight:normal;font-stretch:normal;text-align:start;line-height:100%;writing-mode:lr-tb;text-anchor:start;fill:#0000ff;fill-opacity:1;stroke:none;font-family:Tahoma;-inkscape-font-specification:Tahoma">
        <path
           d="m 352.34,69.682 0,-25.594 16,0 0,3.026 -12.59,0 0,7.012 11.74,0 0,3.026 -11.74,0 0,9.505 12.59,0 0,3.025 z"
           id="path4278"
           style="line-height:100%;fill:#0000ff;font-family:Tahoma;-inkscape-font-specification:Tahoma" />
        <path
           d="m 379.45,70.112 c -1.32,0 -2.53,-0.204 -3.63,-0.61 -1.1,-0.407 -2.04,-1.023 -2.83,-1.848 -0.8,-0.825 -1.41,-1.865 -1.84,-3.12 -0.44,-1.255 -0.66,-2.73 -0.66,-4.426 0,-1.684 0.23,-3.14 0.68,-4.366 0.45,-1.226 1.06,-2.257 1.82,-3.094 0.75,-0.836 1.69,-1.481 2.82,-1.933 1.13,-0.453 2.34,-0.679 3.64,-0.679 1.05,0 2.07,0.149 3.05,0.447 0.98,0.297 1.85,0.641 2.62,1.031 l 0,3.627 -0.19,0 c -0.23,-0.195 -0.52,-0.419 -0.88,-0.671 -0.36,-0.252 -0.8,-0.51 -1.32,-0.773 -0.45,-0.229 -0.97,-0.43 -1.58,-0.602 -0.61,-0.172 -1.19,-0.258 -1.75,-0.258 -1.68,0 -3.02,0.633 -4.03,1.9 -1.02,1.266 -1.53,3.056 -1.53,5.371 0,2.269 0.49,4.037 1.47,5.303 0.98,1.266 2.34,1.899 4.09,1.899 1.05,0 2.05,-0.218 3,-0.653 0.96,-0.436 1.8,-0.997 2.53,-1.685 l 0.19,0 0,3.627 c -0.32,0.149 -0.72,0.33 -1.2,0.542 -0.48,0.212 -0.92,0.369 -1.31,0.472 -0.55,0.161 -1.04,0.284 -1.48,0.37 -0.43,0.09 -0.99,0.129 -1.68,0.129 z"
           id="path4280"
           style="line-height:100%;fill:#0000ff;font-family:Tahoma;-inkscape-font-specification:Tahoma" />
        <path
           d="m 403.84,60.091 c 0,3.231 -0.78,5.727 -2.34,7.485 -1.56,1.759 -3.63,2.639 -6.22,2.639 -2.67,0 -4.77,-0.908 -6.3,-2.724 -1.53,-1.817 -2.3,-4.283 -2.3,-7.4 0,-3.209 0.79,-5.701 2.37,-7.477 1.57,-1.776 3.65,-2.664 6.23,-2.664 2.59,0 4.66,0.885 6.22,2.655 1.56,1.771 2.34,4.266 2.34,7.486 z m -3.34,0 c 0,-2.487 -0.45,-4.334 -1.35,-5.543 -0.91,-1.209 -2.2,-1.814 -3.87,-1.814 -1.69,0 -2.98,0.605 -3.89,1.814 -0.92,1.209 -1.37,3.056 -1.37,5.543 0,2.406 0.45,4.231 1.37,5.474 0.91,1.244 2.2,1.865 3.89,1.865 1.66,0 2.95,-0.61 3.86,-1.83 0.91,-1.221 1.36,-3.057 1.36,-5.509 z"
           id="path4282"
           style="line-height:100%;fill:#0000ff;font-family:Tahoma;-inkscape-font-specification:Tahoma" />
        <path
           d="m 427.23,69.682 -4.42,0 -8.11,-10.176 -3.88,0 0,10.176 -3.41,0 0,-25.594 6.6,0 c 1.47,0 2.7,0.08 3.69,0.241 0.99,0.161 1.93,0.533 2.83,1.117 0.89,0.573 1.6,1.312 2.12,2.218 0.52,0.905 0.78,2.028 0.78,3.369 0,1.879 -0.47,3.449 -1.42,4.709 -0.95,1.261 -2.25,2.195 -3.89,2.802 z M 419.88,51.29 c 0,-0.744 -0.14,-1.406 -0.4,-1.985 -0.26,-0.579 -0.67,-1.051 -1.22,-1.418 -0.48,-0.321 -1.04,-0.547 -1.68,-0.679 -0.65,-0.132 -1.44,-0.198 -2.39,-0.198 l -3.37,0 0,9.66 2.99,0 c 0.97,0 1.85,-0.09 2.63,-0.257 0.78,-0.172 1.44,-0.528 1.99,-1.066 0.49,-0.481 0.86,-1.054 1.09,-1.719 0.24,-0.665 0.36,-1.444 0.36,-2.338 z"
           id="path4284"
           style="line-height:100%;fill:#0000ff;font-family:Tahoma;-inkscape-font-specification:Tahoma" />
        <path
           d="m 438.22,69.682 -9.94,0 0,-2.613 3.27,0 0,-20.368 -3.27,0 0,-2.613 9.94,0 0,2.613 -3.27,0 0,20.368 3.27,0 z"
           id="path4286"
           style="line-height:100%;fill:#0000ff;font-family:Tahoma;-inkscape-font-specification:Tahoma" />
      </g>
      <g
         transform="translate(-710.65,1.1156)"
         id="text5598-9"
         style="font-size:35.20203px;font-style:normal;font-variant:normal;font-weight:normal;font-stretch:normal;text-align:start;line-height:100%;writing-mode:lr-tb;text-anchor:start;fill:#0000ff;fill-opacity:1;stroke:none;font-family:Tahoma;-inkscape-font-specification:Tahoma">
        <path
           d="m 392.93,826.33 -3.82,0 -11.31,-22.07 0,22.07 -3.18,0 0,-25.6 4.83,0 10.3,20.27 0,-20.27 3.18,0 z"
           id="path4269"
           style="line-height:100%;fill:#0000ff;font-family:Tahoma;-inkscape-font-specification:Tahoma" />
        <path
           d="m 412.66,826.33 -3.23,0 0,-1.96 c -0.51,0.42 -0.94,0.77 -1.31,1.05 -0.37,0.27 -0.8,0.52 -1.29,0.75 -0.46,0.22 -0.93,0.39 -1.42,0.51 -0.5,0.12 -1.07,0.18 -1.72,0.18 -1.05,0 -2.01,-0.22 -2.9,-0.65 -0.89,-0.44 -1.64,-1.07 -2.26,-1.91 -0.63,-0.85 -1.12,-1.89 -1.46,-3.14 -0.35,-1.24 -0.52,-2.67 -0.52,-4.29 0,-1.68 0.22,-3.14 0.66,-4.37 0.43,-1.23 1.03,-2.31 1.8,-3.22 0.7,-0.84 1.55,-1.5 2.54,-1.97 0.99,-0.48 2.03,-0.72 3.12,-0.72 0.96,0 1.8,0.11 2.51,0.32 0.71,0.21 1.46,0.54 2.25,0.99 l 0,-8.32 3.23,0 z m -3.23,-4.68 0,-11.07 c -0.8,-0.39 -1.52,-0.66 -2.16,-0.81 -0.64,-0.14 -1.33,-0.22 -2.07,-0.22 -1.66,0 -2.96,0.62 -3.9,1.87 -0.94,1.24 -1.41,3.04 -1.41,5.38 0,2.26 0.36,3.99 1.08,5.19 0.72,1.19 1.88,1.79 3.47,1.79 0.85,0 1.7,-0.19 2.56,-0.57 0.86,-0.39 1.67,-0.9 2.43,-1.56 z"
           id="path4271"
           style="line-height:100%;fill:#0000ff;font-family:Tahoma;-inkscape-font-specification:Tahoma" />
        <path
           d="m 425.67,826.77 c -3.06,0 -5.43,-0.86 -7.12,-2.58 -1.69,-1.73 -2.54,-4.18 -2.54,-7.35 0,-3.13 0.82,-5.62 2.46,-7.47 1.64,-1.85 3.78,-2.78 6.43,-2.78 1.19,0 2.24,0.18 3.16,0.52 0.92,0.34 1.72,0.88 2.41,1.62 0.68,0.73 1.21,1.63 1.58,2.69 0.36,1.06 0.55,2.35 0.55,3.89 l 0,1.75 -13.31,0 c 0,2.24 0.56,3.94 1.69,5.12 1.12,1.19 2.67,1.78 4.66,1.78 0.71,0 1.4,-0.1 2.08,-0.25 0.69,-0.16 1.3,-0.36 1.85,-0.61 0.59,-0.27 1.08,-0.52 1.48,-0.77 0.4,-0.25 0.73,-0.48 1,-0.7 l 0.19,0 0,3.53 c -0.38,0.15 -0.85,0.33 -1.41,0.56 -0.56,0.22 -1.07,0.4 -1.52,0.52 -0.63,0.17 -1.2,0.3 -1.71,0.4 -0.51,0.1 -1.15,0.13 -1.93,0.13 z m 3.78,-12.18 c 0,-0.87 -0.12,-1.62 -0.31,-2.25 -0.18,-0.63 -0.44,-1.17 -0.79,-1.6 -0.38,-0.48 -0.86,-0.85 -1.45,-1.1 -0.59,-0.25 -1.32,-0.38 -2.19,-0.38 -0.86,0 -1.59,0.13 -2.19,0.39 -0.61,0.25 -1.15,0.63 -1.65,1.12 -0.48,0.51 -0.84,1.06 -1.1,1.68 -0.25,0.61 -0.41,1.32 -0.48,2.14 z"
           id="path4273"
           style="line-height:100%;fill:#0000ff;font-family:Tahoma;-inkscape-font-specification:Tahoma" />
        <path
           d="m 445.09,826.33 -9.93,0 0,-2.62 3.26,0 0,-20.36 -3.26,0 0,-2.62 9.93,0 0,2.62 -3.26,0 0,20.36 3.26,0 z"
           id="path4275"
           style="line-height:100%;fill:#0000ff;font-family:Tahoma;-inkscape-font-specification:Tahoma" />
      </g>
      <g
         transform="translate(-710.65,1.1156)"
         id="text6246-8"
         style="font-size:22.284px;font-style:normal;font-variant:normal;font-weight:bold;font-stretch:normal;text-align:start;line-height:100%;writing-mode:lr-tb;text-anchor:start;fill:#0101ff;fill-opacity:1;fill-rule:evenodd;stroke:none;font-family:Sans;-inkscape-font-specification:Sans Bold">
        <path
           d="m 391.18,154.71 0,-3.21 -6.53,0 0,-2.67 6.92,-10.13 2.57,0 0,10.12 1.98,0 0,2.68 -1.98,0 0,3.21 z m 0,-5.89 0,-5.45 -3.67,5.45 z"
           id="path4260" />
        <path
           d="m 397.48,150.48 2.96,-0.36 c 0.1,0.76 0.34,1.33 0.76,1.73 0.41,0.4 0.91,0.6 1.5,0.6 0.63,0 1.16,-0.24 1.59,-0.72 0.44,-0.48 0.65,-1.12 0.65,-1.93 0,-0.77 -0.21,-1.38 -0.62,-1.83 -0.41,-0.45 -0.92,-0.68 -1.51,-0.68 -0.39,0 -0.86,0.1 -1.4,0.23 l 0.33,-2.49 c 0.83,0 1.46,-0.16 1.9,-0.54 0.43,-0.38 0.65,-0.89 0.65,-1.52 0,-0.53 -0.16,-0.96 -0.48,-1.28 -0.32,-0.32 -0.74,-0.48 -1.27,-0.48 -0.53,0 -0.97,0.18 -1.34,0.54 -0.37,0.37 -0.6,0.9 -0.68,1.59 l -2.81,-0.48 c 0.19,-0.96 0.49,-1.73 0.88,-2.31 0.4,-0.57 0.95,-1.03 1.66,-1.36 0.7,-0.33 1.5,-0.49 2.37,-0.49 1.51,0 2.71,0.48 3.62,1.43 0.74,0.79 1.12,1.67 1.12,2.66 0,1.4 -0.77,2.52 -2.3,3.35 0.91,0.2 1.65,0.63 2.19,1.32 0.55,0.68 0.82,1.5 0.82,2.47 0,1.4 -0.51,2.59 -1.53,3.58 -1.02,0.98 -2.3,1.48 -3.82,1.48 -1.44,0 -2.64,-0.42 -3.59,-1.25 -0.95,-0.83 -1.5,-1.92 -1.65,-3.26 z"
           id="path4262" />
        <path
           d="m 410.03,150.61 3.05,-0.31 c 0.1,0.69 0.34,1.23 0.77,1.63 0.43,0.41 0.92,0.61 1.48,0.61 0.64,0 1.18,-0.26 1.62,-0.78 0.45,-0.52 0.67,-1.3 0.67,-2.35 0,-0.97 -0.22,-1.71 -0.66,-2.2 -0.44,-0.49 -1.01,-0.73 -1.71,-0.73 -0.88,0 -1.67,0.39 -2.37,1.16 l -2.48,-0.36 1.57,-8.3 8.08,0 0,2.86 -5.76,0 -0.48,2.71 c 0.68,-0.34 1.38,-0.51 2.09,-0.51 1.35,0 2.5,0.49 3.45,1.48 0.94,0.99 1.41,2.27 1.41,3.84 0,1.31 -0.38,2.48 -1.14,3.52 -1.04,1.4 -2.48,2.11 -4.32,2.11 -1.47,0 -2.67,-0.4 -3.6,-1.19 -0.93,-0.79 -1.49,-1.85 -1.67,-3.19 z"
           id="path4264" />
        <path
           d="m 422.46,151.03 2.96,-0.33 c 0.1,0.6 0.26,1.05 0.56,1.34 0.31,0.29 0.71,0.43 1.21,0.43 0.63,0 1.17,-0.29 1.61,-0.87 0.45,-0.58 0.73,-1.78 0.85,-3.61 -0.77,0.89 -1.73,1.34 -2.88,1.34 -1.26,0 -2.34,-0.49 -3.25,-1.45 -0.91,-0.97 -1.37,-2.23 -1.37,-3.79 0,-1.61 0.49,-2.92 1.45,-3.91 0.96,-0.99 2.18,-1.48 3.67,-1.48 1.62,0 2.94,0.62 3.98,1.87 1.04,1.26 1.56,3.31 1.56,6.18 0,2.92 -0.54,5.02 -1.62,6.31 -1.08,1.29 -2.49,1.94 -4.23,1.94 -1.24,0 -2.25,-0.34 -3.02,-1 -0.77,-0.66 -1.26,-1.65 -1.48,-2.97 z m 6.92,-6.69 c 0,-0.98 -0.23,-1.75 -0.68,-2.29 -0.45,-0.55 -0.98,-0.82 -1.57,-0.82 -0.57,0 -1.04,0.23 -1.41,0.67 -0.38,0.45 -0.56,1.18 -0.56,2.19 0,1.03 0.2,1.79 0.61,2.27 0.4,0.49 0.91,0.73 1.52,0.73 0.59,0 1.08,-0.24 1.49,-0.7 0.4,-0.46 0.6,-1.15 0.6,-2.05 z"
           id="path4266" />
      </g>
      <g
         transform="translate(-710.65,1.1156)"
         id="text6246-8-2"
         style="font-size:22.284px;font-style:normal;font-variant:normal;font-weight:bold;font-stretch:normal;text-align:start;line-height:100%;writing-mode:lr-tb;text-anchor:start;fill:#0101ff;fill-opacity:1;fill-rule:evenodd;stroke:none;font-family:Sans;-inkscape-font-specification:Sans Bold">
        <path
           d="m 515.55,163.39 -3.05,0 0,-11.52 c -1.12,1.04 -2.44,1.81 -3.95,2.31 l 0,-2.77 c 0.8,-0.26 1.66,-0.76 2.6,-1.49 0.93,-0.73 1.58,-1.58 1.92,-2.55 l 2.48,0 z"
           id="path4253" />
        <path
           d="m 522.76,154.78 c -0.79,-0.33 -1.37,-0.79 -1.73,-1.37 -0.36,-0.59 -0.54,-1.23 -0.54,-1.92 0,-1.19 0.42,-2.18 1.25,-2.95 0.83,-0.78 2.01,-1.17 3.54,-1.17 1.52,0 2.69,0.39 3.53,1.17 0.84,0.77 1.26,1.76 1.26,2.95 0,0.74 -0.19,1.39 -0.58,1.97 -0.38,0.58 -0.92,1.02 -1.62,1.32 0.89,0.36 1.56,0.88 2.02,1.56 0.46,0.68 0.69,1.47 0.69,2.36 0,1.47 -0.47,2.67 -1.41,3.59 -0.94,0.92 -2.19,1.38 -3.75,1.38 -1.45,0 -2.66,-0.38 -3.62,-1.14 -1.14,-0.9 -1.71,-2.13 -1.71,-3.7 0,-0.86 0.22,-1.66 0.64,-2.38 0.43,-0.72 1.11,-1.28 2.03,-1.67 z m 0.63,-3.08 c 0,0.61 0.17,1.09 0.52,1.43 0.34,0.34 0.8,0.51 1.37,0.51 0.58,0 1.05,-0.17 1.39,-0.52 0.35,-0.34 0.53,-0.82 0.53,-1.43 0,-0.57 -0.18,-1.03 -0.52,-1.37 -0.34,-0.35 -0.8,-0.52 -1.37,-0.52 -0.58,0 -1.05,0.17 -1.4,0.52 -0.35,0.35 -0.52,0.81 -0.52,1.38 z m -0.28,6.84 c 0,0.84 0.21,1.49 0.64,1.97 0.43,0.47 0.97,0.7 1.62,0.7 0.63,0 1.15,-0.22 1.57,-0.68 0.41,-0.45 0.62,-1.11 0.62,-1.96 0,-0.75 -0.21,-1.35 -0.64,-1.8 -0.42,-0.46 -0.95,-0.68 -1.59,-0.68 -0.75,0 -1.31,0.26 -1.67,0.77 -0.37,0.52 -0.55,1.07 -0.55,1.68 z"
           id="path4255" />
        <path
           d="m 532.58,159.29 3.05,-0.32 c 0.1,0.69 0.34,1.24 0.77,1.64 0.43,0.4 0.92,0.6 1.48,0.6 0.64,0 1.18,-0.26 1.62,-0.78 0.45,-0.51 0.67,-1.3 0.67,-2.34 0,-0.98 -0.22,-1.71 -0.66,-2.2 -0.44,-0.49 -1.01,-0.74 -1.72,-0.74 -0.87,0 -1.66,0.39 -2.36,1.17 l -2.48,-0.36 1.57,-8.3 8.08,0 0,2.86 -5.76,0 -0.48,2.71 c 0.68,-0.34 1.38,-0.52 2.09,-0.52 1.35,0 2.5,0.5 3.45,1.48 0.94,0.99 1.41,2.27 1.41,3.85 0,1.31 -0.38,2.48 -1.14,3.51 -1.04,1.41 -2.48,2.11 -4.32,2.11 -1.47,0 -2.67,-0.39 -3.6,-1.19 -0.93,-0.79 -1.49,-1.85 -1.67,-3.18 z"
           id="path4257" />
      </g>
      <g
         transform="translate(-710.65,1.1156)"
         id="text6246-8-5"
         style="font-size:22.284px;font-style:normal;font-variant:normal;font-weight:bold;font-stretch:normal;text-align:start;line-height:100%;writing-mode:lr-tb;text-anchor:start;fill:#0101ff;fill-opacity:1;fill-rule:evenodd;stroke:none;font-family:Sans;-inkscape-font-specification:Sans Bold">
        <path
           d="m 472.16,150.97 0,2.84 -10.71,0 c 0.11,-1.07 0.46,-2.09 1.04,-3.05 0.58,-0.96 1.73,-2.23 3.44,-3.82 1.38,-1.29 2.22,-2.16 2.53,-2.61 0.42,-0.64 0.63,-1.26 0.63,-1.88 0,-0.68 -0.18,-1.2 -0.54,-1.57 -0.37,-0.36 -0.88,-0.55 -1.52,-0.55 -0.64,0 -1.15,0.19 -1.53,0.58 -0.37,0.38 -0.59,1.02 -0.65,1.91 l -3.05,-0.3 c 0.19,-1.68 0.76,-2.89 1.71,-3.62 0.96,-0.74 2.16,-1.1 3.59,-1.1 1.58,0 2.81,0.42 3.71,1.27 0.9,0.85 1.35,1.9 1.35,3.17 0,0.71 -0.13,1.4 -0.38,2.05 -0.26,0.65 -0.67,1.33 -1.23,2.04 -0.37,0.47 -1.03,1.15 -2,2.03 -0.96,0.89 -1.58,1.47 -1.83,1.76 -0.26,0.29 -0.47,0.58 -0.63,0.85 z"
           id="path4248" />
        <path
           d="m 474.31,150.12 2.96,-0.32 c 0.1,0.6 0.26,1.05 0.56,1.34 0.31,0.29 0.71,0.43 1.21,0.43 0.63,0 1.17,-0.29 1.61,-0.87 0.44,-0.58 0.73,-1.78 0.85,-3.61 -0.77,0.89 -1.73,1.34 -2.88,1.34 -1.26,0 -2.34,-0.49 -3.25,-1.46 -0.91,-0.96 -1.37,-2.22 -1.37,-3.78 0,-1.61 0.48,-2.92 1.44,-3.91 0.96,-0.99 2.19,-1.48 3.68,-1.48 1.61,0 2.94,0.62 3.98,1.87 1.04,1.26 1.55,3.31 1.55,6.18 0,2.91 -0.54,5.02 -1.62,6.31 -1.08,1.29 -2.49,1.94 -4.22,1.94 -1.25,0 -2.25,-0.34 -3.02,-1 -0.77,-0.66 -1.27,-1.66 -1.48,-2.98 z m 6.92,-6.68 c 0,-0.98 -0.23,-1.75 -0.68,-2.29 -0.46,-0.55 -0.98,-0.82 -1.58,-0.82 -0.56,0 -1.03,0.23 -1.4,0.67 -0.38,0.45 -0.56,1.18 -0.56,2.19 0,1.03 0.2,1.79 0.6,2.27 0.41,0.48 0.92,0.73 1.53,0.73 0.59,0 1.08,-0.24 1.48,-0.7 0.41,-0.46 0.61,-1.15 0.61,-2.05 z"
           id="path4250" />
      </g>
      <g
         transform="translate(-710.65,1.1156)"
         id="text6246-8-1"
         style="font-size:22.284px;font-style:normal;font-variant:normal;font-weight:bold;font-stretch:normal;text-align:start;line-height:100%;writing-mode:lr-tb;text-anchor:start;fill:#0101ff;fill-opacity:1;fill-rule:evenodd;stroke:none;font-family:Sans;-inkscape-font-specification:Sans Bold">
        <path
           d="m 151.5,304.91 2.96,-0.36 c 0.1,0.76 0.34,1.33 0.76,1.73 0.41,0.4 0.91,0.6 1.5,0.6 0.63,0 1.16,-0.24 1.59,-0.72 0.43,-0.48 0.65,-1.12 0.65,-1.93 0,-0.77 -0.21,-1.38 -0.62,-1.83 -0.41,-0.45 -0.92,-0.68 -1.51,-0.68 -0.39,0 -0.86,0.1 -1.41,0.23 l 0.34,-2.49 c 0.83,0 1.46,-0.16 1.89,-0.54 0.44,-0.38 0.66,-0.89 0.66,-1.52 0,-0.53 -0.16,-0.96 -0.48,-1.28 -0.32,-0.32 -0.75,-0.48 -1.27,-0.48 -0.53,0 -0.97,0.18 -1.34,0.55 -0.37,0.36 -0.6,0.89 -0.68,1.58 l -2.82,-0.48 c 0.2,-0.96 0.5,-1.73 0.89,-2.31 0.4,-0.57 0.95,-1.03 1.65,-1.36 0.71,-0.33 1.5,-0.49 2.38,-0.49 1.5,0 2.71,0.48 3.61,1.43 0.75,0.79 1.13,1.67 1.13,2.66 0,1.4 -0.77,2.52 -2.3,3.35 0.91,0.2 1.64,0.63 2.19,1.32 0.55,0.68 0.82,1.5 0.82,2.47 0,1.4 -0.51,2.59 -1.53,3.58 -1.02,0.98 -2.3,1.48 -3.82,1.48 -1.44,0 -2.64,-0.42 -3.59,-1.25 -0.95,-0.83 -1.5,-1.92 -1.65,-3.26 z"
           id="path4239" />
        <path
           d="m 174.37,297.1 -2.96,0.33 c -0.1,-0.61 -0.26,-1.06 -0.57,-1.35 -0.3,-0.29 -0.7,-0.44 -1.18,-0.44 -0.65,0 -1.2,0.29 -1.64,0.87 -0.45,0.58 -0.73,1.79 -0.84,3.62 0.76,-0.89 1.7,-1.34 2.83,-1.34 1.28,0 2.38,0.48 3.29,1.45 0.91,0.98 1.36,2.23 1.36,3.77 0,1.63 -0.48,2.94 -1.44,3.93 -0.95,0.98 -2.18,1.48 -3.68,1.48 -1.61,0 -2.94,-0.63 -3.98,-1.88 -1.03,-1.25 -1.55,-3.3 -1.55,-6.15 0,-2.93 0.54,-5.03 1.62,-6.33 1.08,-1.29 2.48,-1.93 4.21,-1.93 1.21,0 2.22,0.34 3.01,1.01 0.79,0.68 1.3,1.67 1.52,2.96 z m -6.93,6.67 c 0,0.99 0.22,1.76 0.68,2.3 0.46,0.54 0.98,0.81 1.57,0.81 0.56,0 1.04,-0.22 1.41,-0.66 0.38,-0.45 0.57,-1.17 0.57,-2.18 0,-1.04 -0.2,-1.8 -0.61,-2.28 -0.41,-0.48 -0.91,-0.72 -1.52,-0.72 -0.59,0 -1.09,0.23 -1.49,0.69 -0.41,0.46 -0.61,1.14 -0.61,2.04 z"
           id="path4241" />
        <path
           d="m 181.58,293.13 c 1.55,0 2.75,0.55 3.62,1.65 1.04,1.31 1.56,3.47 1.56,6.5 0,3.01 -0.52,5.18 -1.57,6.5 -0.86,1.09 -2.06,1.64 -3.61,1.64 -1.55,0 -2.8,-0.6 -3.75,-1.79 -0.95,-1.2 -1.43,-3.32 -1.43,-6.39 0,-3 0.52,-5.16 1.57,-6.48 0.86,-1.09 2.07,-1.63 3.61,-1.63 z m 0,2.53 c -0.37,0 -0.7,0.12 -0.99,0.36 -0.29,0.23 -0.51,0.65 -0.67,1.26 -0.21,0.79 -0.32,2.13 -0.32,4 0,1.87 0.1,3.15 0.28,3.85 0.19,0.7 0.43,1.17 0.72,1.4 0.28,0.23 0.61,0.35 0.98,0.35 0.37,0 0.7,-0.12 0.99,-0.35 0.29,-0.24 0.52,-0.66 0.68,-1.27 0.21,-0.78 0.31,-2.11 0.31,-3.98 0,-1.87 -0.1,-3.16 -0.28,-3.86 -0.19,-0.7 -0.43,-1.17 -0.71,-1.4 -0.29,-0.24 -0.62,-0.36 -0.99,-0.36 z"
           id="path4243" />
        <path
           d="m 188.82,296.25 0,-2.84 10.45,0 0,2.22 c -0.86,0.85 -1.74,2.07 -2.63,3.66 -0.89,1.58 -1.57,3.27 -2.04,5.06 -0.47,1.79 -0.7,3.39 -0.69,4.79 l -2.95,0 c 0,-2.2 0.51,-4.45 1.37,-6.74 0.86,-2.29 2,-4.34 3.44,-6.15 z"
           id="path4245" />
      </g>
      <g
         transform="translate(-710.65,1.1156)"
         id="text6246-8-11"
         style="font-size:22.284px;font-style:normal;font-variant:normal;font-weight:bold;font-stretch:normal;text-align:start;line-height:100%;writing-mode:lr-tb;text-anchor:start;fill:#0101ff;fill-opacity:1;fill-rule:evenodd;stroke:none;font-family:Sans;-inkscape-font-specification:Sans Bold">
        <path
           d="m 410.05,735.06 0,2.84 -10.72,0 c 0.12,-1.08 0.47,-2.09 1.05,-3.05 0.58,-0.97 1.72,-2.24 3.43,-3.83 1.38,-1.28 2.23,-2.15 2.54,-2.61 0.42,-0.63 0.63,-1.26 0.63,-1.87 0,-0.68 -0.18,-1.21 -0.55,-1.57 -0.37,-0.37 -0.87,-0.55 -1.52,-0.55 -0.64,0 -1.14,0.19 -1.52,0.57 -0.38,0.39 -0.6,1.03 -0.65,1.92 l -3.05,-0.31 c 0.18,-1.68 0.75,-2.89 1.71,-3.62 0.96,-0.73 2.15,-1.1 3.59,-1.1 1.57,0 2.81,0.42 3.71,1.27 0.9,0.85 1.35,1.91 1.35,3.17 0,0.72 -0.13,1.4 -0.39,2.05 -0.26,0.65 -0.66,1.33 -1.22,2.04 -0.37,0.47 -1.04,1.15 -2,2.04 -0.97,0.88 -1.58,1.47 -1.84,1.76 -0.25,0.29 -0.46,0.57 -0.62,0.85 z"
           id="path4230" />
        <path
           d="m 422.45,735.06 0,2.84 -10.71,0 c 0.11,-1.08 0.46,-2.09 1.04,-3.05 0.58,-0.97 1.73,-2.24 3.44,-3.83 1.38,-1.28 2.22,-2.15 2.53,-2.61 0.42,-0.63 0.63,-1.26 0.63,-1.87 0,-0.68 -0.18,-1.21 -0.55,-1.57 -0.36,-0.37 -0.87,-0.55 -1.51,-0.55 -0.64,0 -1.15,0.19 -1.53,0.57 -0.37,0.39 -0.59,1.03 -0.65,1.92 l -3.05,-0.31 c 0.19,-1.68 0.75,-2.89 1.71,-3.62 0.96,-0.73 2.16,-1.1 3.59,-1.1 1.58,0 2.81,0.42 3.71,1.27 0.9,0.85 1.35,1.91 1.35,3.17 0,0.72 -0.13,1.4 -0.38,2.05 -0.26,0.65 -0.67,1.33 -1.23,2.04 -0.37,0.47 -1.03,1.15 -2,2.04 -0.96,0.88 -1.58,1.47 -1.83,1.76 -0.26,0.29 -0.47,0.57 -0.63,0.85 z"
           id="path4232" />
        <path
           d="m 424.6,734.21 2.96,-0.33 c 0.1,0.6 0.26,1.05 0.56,1.34 0.31,0.29 0.71,0.44 1.21,0.44 0.63,0 1.17,-0.29 1.61,-0.87 0.44,-0.59 0.73,-1.79 0.85,-3.62 -0.77,0.89 -1.73,1.34 -2.88,1.34 -1.26,0 -2.34,-0.48 -3.25,-1.45 -0.91,-0.97 -1.37,-2.23 -1.37,-3.78 0,-1.62 0.48,-2.92 1.44,-3.91 0.96,-0.99 2.19,-1.49 3.68,-1.49 1.61,0 2.94,0.63 3.98,1.88 1.04,1.25 1.55,3.31 1.55,6.17 0,2.92 -0.54,5.02 -1.62,6.31 -1.08,1.29 -2.49,1.94 -4.22,1.94 -1.25,0 -2.26,-0.33 -3.02,-1 -0.77,-0.66 -1.27,-1.65 -1.48,-2.97 z m 6.92,-6.68 c 0,-0.99 -0.23,-1.75 -0.68,-2.3 -0.46,-0.54 -0.98,-0.81 -1.58,-0.81 -0.56,0 -1.03,0.22 -1.4,0.66 -0.38,0.45 -0.57,1.18 -0.57,2.2 0,1.03 0.21,1.78 0.61,2.27 0.41,0.48 0.92,0.72 1.53,0.72 0.58,0 1.08,-0.23 1.48,-0.7 0.41,-0.46 0.61,-1.14 0.61,-2.04 z"
           id="path4234" />
        <path
           d="m 436.98,733.8 3.05,-0.32 c 0.1,0.69 0.34,1.23 0.77,1.64 0.43,0.4 0.92,0.6 1.48,0.6 0.64,0 1.18,-0.26 1.62,-0.78 0.44,-0.52 0.66,-1.3 0.66,-2.34 0,-0.98 -0.22,-1.72 -0.66,-2.21 -0.43,-0.48 -1.01,-0.73 -1.71,-0.73 -0.88,0 -1.66,0.39 -2.36,1.16 l -2.48,-0.35 1.57,-8.31 8.08,0 0,2.87 -5.77,0 -0.48,2.7 c 0.69,-0.34 1.38,-0.51 2.09,-0.51 1.36,0 2.51,0.5 3.45,1.48 0.95,0.99 1.42,2.27 1.42,3.84 0,1.32 -0.38,2.49 -1.15,3.52 -1.03,1.41 -2.47,2.11 -4.32,2.11 -1.47,0 -2.67,-0.4 -3.6,-1.19 -0.93,-0.79 -1.48,-1.85 -1.66,-3.18 z"
           id="path4236" />
      </g>
      <g
         transform="translate(-710.65,1.1156)"
         id="text6246-8-7"
         style="font-size:22.284px;font-style:normal;font-variant:normal;font-weight:bold;font-stretch:normal;text-align:start;line-height:100%;writing-mode:lr-tb;text-anchor:start;fill:#0101ff;fill-opacity:1;fill-rule:evenodd;stroke:none;font-family:Sans;-inkscape-font-specification:Sans Bold">
        <path
           d="m 690.31,261.15 -2.96,0.32 c -0.1,-0.61 -0.26,-1.06 -0.56,-1.35 -0.31,-0.29 -0.7,-0.43 -1.19,-0.43 -0.65,0 -1.19,0.29 -1.64,0.87 -0.44,0.58 -0.73,1.79 -0.84,3.62 0.76,-0.9 1.71,-1.35 2.84,-1.35 1.28,0 2.37,0.49 3.28,1.46 0.91,0.97 1.36,2.23 1.36,3.77 0,1.63 -0.47,2.94 -1.43,3.92 -0.96,0.99 -2.19,1.48 -3.69,1.48 -1.61,0 -2.93,-0.62 -3.97,-1.87 -1.04,-1.25 -1.56,-3.31 -1.56,-6.16 0,-2.92 0.54,-5.03 1.62,-6.32 1.08,-1.29 2.49,-1.93 4.21,-1.93 1.22,0 2.22,0.33 3.01,1.01 0.8,0.68 1.3,1.67 1.52,2.96 z m -6.93,6.67 c 0,0.99 0.23,1.76 0.69,2.3 0.45,0.54 0.97,0.81 1.56,0.81 0.57,0 1.04,-0.22 1.42,-0.67 0.37,-0.44 0.56,-1.16 0.56,-2.17 0,-1.04 -0.2,-1.8 -0.61,-2.28 -0.4,-0.48 -0.91,-0.72 -1.52,-0.72 -0.59,0 -1.08,0.23 -1.49,0.69 -0.41,0.46 -0.61,1.14 -0.61,2.04 z"
           id="path4223" />
        <path
           d="m 692.4,269.09 3.05,-0.32 c 0.1,0.69 0.34,1.24 0.77,1.64 0.43,0.4 0.92,0.61 1.48,0.61 0.64,0 1.18,-0.26 1.62,-0.78 0.44,-0.52 0.66,-1.3 0.66,-2.35 0,-0.98 -0.22,-1.71 -0.65,-2.2 -0.44,-0.49 -1.01,-0.73 -1.72,-0.73 -0.88,0 -1.66,0.38 -2.36,1.16 l -2.48,-0.36 1.57,-8.3 8.08,0 0,2.86 -5.77,0 -0.47,2.71 c 0.68,-0.34 1.37,-0.51 2.08,-0.51 1.36,0 2.51,0.49 3.45,1.48 0.95,0.98 1.42,2.26 1.42,3.84 0,1.31 -0.38,2.48 -1.14,3.51 -1.04,1.41 -2.48,2.11 -4.32,2.11 -1.48,0 -2.68,-0.39 -3.61,-1.18 -0.92,-0.79 -1.48,-1.86 -1.66,-3.19 z"
           id="path4225" />
        <path
           d="m 712.58,273.19 -3.05,0 0,-11.52 c -1.12,1.04 -2.44,1.82 -3.95,2.32 l 0,-2.78 c 0.79,-0.26 1.66,-0.75 2.6,-1.48 0.93,-0.73 1.57,-1.58 1.92,-2.55 l 2.48,0 z"
           id="path4227" />
      </g>
      <g
         transform="translate(-710.65,1.1156)"
         id="text6246-8-7-1"
         style="font-size:22.284px;font-style:normal;font-variant:normal;font-weight:bold;font-stretch:normal;text-align:start;line-height:100%;writing-mode:lr-tb;text-anchor:start;fill:#0101ff;fill-opacity:1;fill-rule:evenodd;stroke:none;font-family:Sans;-inkscape-font-specification:Sans Bold">
        <path
           d="m 596.51,194.72 2.96,-0.36 c 0.1,0.76 0.35,1.33 0.76,1.73 0.41,0.4 0.91,0.6 1.5,0.6 0.63,0 1.16,-0.24 1.6,-0.72 0.43,-0.48 0.64,-1.12 0.64,-1.93 0,-0.77 -0.2,-1.38 -0.62,-1.83 -0.41,-0.45 -0.91,-0.68 -1.51,-0.68 -0.39,0 -0.86,0.1 -1.4,0.23 l 0.33,-2.49 c 0.83,0 1.46,-0.16 1.9,-0.54 0.43,-0.38 0.65,-0.89 0.65,-1.52 0,-0.53 -0.16,-0.96 -0.48,-1.28 -0.32,-0.32 -0.74,-0.48 -1.27,-0.48 -0.52,0 -0.97,0.18 -1.34,0.55 -0.37,0.36 -0.59,0.89 -0.67,1.58 l -2.82,-0.48 c 0.19,-0.96 0.49,-1.73 0.88,-2.31 0.4,-0.57 0.95,-1.03 1.66,-1.36 0.71,-0.33 1.5,-0.49 2.38,-0.49 1.5,0 2.7,0.48 3.61,1.43 0.75,0.79 1.12,1.67 1.12,2.66 0,1.4 -0.77,2.52 -2.3,3.35 0.92,0.2 1.65,0.63 2.2,1.32 0.54,0.68 0.82,1.5 0.82,2.47 0,1.4 -0.51,2.59 -1.54,3.58 -1.02,0.98 -2.29,1.48 -3.82,1.48 -1.44,0 -2.64,-0.42 -3.59,-1.25 -0.95,-0.83 -1.5,-1.92 -1.65,-3.26 z"
           id="path4216" />
        <path
           d="m 609.02,186.06 0,-2.84 10.46,0 0,2.22 c -0.86,0.85 -1.74,2.07 -2.63,3.66 -0.9,1.58 -1.58,3.27 -2.04,5.06 -0.47,1.79 -0.7,3.39 -0.7,4.79 l -2.94,0 c 0.1,-2.2 0.5,-4.45 1.36,-6.74 0.86,-2.29 2.01,-4.34 3.45,-6.15 z"
           id="path4218" />
        <path
           d="m 621.47,194.85 3.05,-0.31 c 0.1,0.69 0.34,1.23 0.77,1.63 0.43,0.41 0.92,0.61 1.48,0.61 0.64,0 1.18,-0.26 1.62,-0.78 0.44,-0.52 0.66,-1.3 0.66,-2.34 0,-0.98 -0.22,-1.72 -0.65,-2.21 -0.44,-0.49 -1.01,-0.73 -1.72,-0.73 -0.88,0 -1.66,0.39 -2.36,1.16 l -2.48,-0.36 1.57,-8.3 8.08,0 0,2.86 -5.77,0 -0.47,2.71 c 0.68,-0.34 1.37,-0.51 2.08,-0.51 1.36,0 2.51,0.49 3.45,1.48 0.95,0.99 1.42,2.27 1.42,3.84 0,1.31 -0.38,2.49 -1.14,3.52 -1.04,1.4 -2.48,2.11 -4.32,2.11 -1.48,0 -2.68,-0.4 -3.61,-1.19 -0.92,-0.79 -1.48,-1.85 -1.66,-3.19 z"
           id="path4220" />
      </g>
      <path
         d="m -285.37,131.2 -6.25,-56.715"
         id="path5570-6"
         style="fill:#0000ff;fill-opacity:1;stroke:#0000ff;stroke-width:4.333;stroke-miterlimit:4;stroke-opacity:1;stroke-dasharray:none;stroke-dashoffset:0" />
      <path
         d="m -299.14,794 10,-46.26"
         id="path5570-6-8"
         style="fill:#0000ff;fill-opacity:1;stroke:#0000ff;stroke-width:4.333;stroke-miterlimit:4;stroke-opacity:1;stroke-dasharray:none;stroke-dashoffset:0" />
      <path
         d="M 9.1389,253.93 51.659,227.32"
         id="path5568-5"
         style="fill:#0000ff;fill-opacity:1;stroke:#0000ff;stroke-width:4.333;stroke-miterlimit:4;stroke-opacity:1;stroke-dasharray:none;stroke-dashoffset:0" />
    </g>
  </g>
</svg>
