<?xml version="1.0" standalone="yes"?>

<svg version="1.1" viewBox="0.0 0.0 960.0 737.0" fill="none" stroke="none" stroke-linecap="square" stroke-miterlimit="10" xmlns="http://www.w3.org/2000/svg" xmlns:xlink="http://www.w3.org/1999/xlink"><clipPath id="p.0"><path d="m0 0l960.0 0l0 737.0l-960.0 0l0 -737.0z" clip-rule="nonzero"></path></clipPath><g clip-path="url(#p.0)"><path fill="#000000" fill-opacity="0.0" d="m0 0l960.3412 0l0 737.03937l-960.3412 0z" fill-rule="nonzero"></path><path fill="#9e3eff" fill-opacity="0.1923" d="m-8.619489 0l970.51965 0l0 221.98425l-970.51965 0z" fill-rule="nonzero"></path><path fill="#ff0000" fill-opacity="0.0769" d="m-0.06561758 221.1193l970.51965 0l0 170.64566l-970.51965 0z" fill-rule="nonzero"></path><path fill="#e6b8af" d="m48.918636 137.57318l0 0c0 -41.843178 76.844864 -75.76378 171.63779 -75.76378l0 0c94.79294 0 171.63782 33.9206 171.63782 75.76378l0 0c0 41.843185 -76.84488 75.76378 -171.63782 75.76378l0 0c-94.79293 0 -171.63779 -33.920593 -171.63779 -75.76378z" fill-rule="nonzero"></path><path stroke="#000000" stroke-width="4.0" stroke-linejoin="round" stroke-linecap="butt" d="m48.918636 137.57318l0 0c0 -41.843178 76.844864 -75.76378 171.63779 -75.76378l0 0c94.79294 0 171.63782 33.9206 171.63782 75.76378l0 0c0 41.843185 -76.84488 75.76378 -171.63782 75.76378l0 0c-94.79293 0 -171.63779 -33.920593 -171.63779 -75.76378z" fill-rule="nonzero"></path><path fill="#cfe2f3" d="m315.18106 260.41336l0 0c0 -12.704254 10.298828 -23.003098 23.003082 -23.003098l188.7655 0c6.100769 0 11.951721 2.4235382 16.265625 6.7374573c4.313904 4.313904 6.7374268 10.164841 6.7374268 16.26564l0 92.00958c0 12.704254 -10.298828 23.003082 -23.003052 23.003082l-188.7655 0c-12.704254 0 -23.003082 -10.298828 -23.003082 -23.003082z" fill-rule="nonzero"></path><path stroke="#000000" stroke-width="4.0" stroke-linejoin="round" stroke-linecap="butt" d="m315.18106 260.41336l0 0c0 -12.704254 10.298828 -23.003098 23.003082 -23.003098l188.7655 0c6.100769 0 11.951721 2.4235382 16.265625 6.7374573c4.313904 4.313904 6.7374268 10.164841 6.7374268 16.26564l0 92.00958c0 12.704254 -10.298828 23.003082 -23.003052 23.003082l-188.7655 0c-12.704254 0 -23.003082 -10.298828 -23.003082 -23.003082z" fill-rule="nonzero"></path><path fill="#2df5ff" fill-opacity="0.1846" d="m-0.06561758 391.76495l970.51965 0l0 158.70868l-970.51965 0z" fill-rule="nonzero"></path><path fill="#cfe2f3" d="m470.61417 422.50244l0 0c0 -12.704254 10.298828 -23.003113 23.003082 -23.003113l188.7655 0c6.100769 0 11.951721 2.4235535 16.265625 6.7374573c4.313904 4.3139343 6.7374268 10.164856 6.7374268 16.265656l0 92.00958c0 12.704224 -10.298828 23.003052 -23.003052 23.003052l-188.7655 0c-12.704254 0 -23.003082 -10.298828 -23.003082 -23.003052z" fill-rule="nonzero"></path><path stroke="#000000" stroke-width="4.0" stroke-linejoin="round" stroke-linecap="butt" d="m470.61417 422.50244l0 0c0 -12.704254 10.298828 -23.003113 23.003082 -23.003113l188.7655 0c6.100769 0 11.951721 2.4235535 16.265625 6.7374573c4.313904 4.3139343 6.7374268 10.164856 6.7374268 16.265656l0 92.00958c0 12.704224 -10.298828 23.003052 -23.003052 23.003052l-188.7655 0c-12.704254 0 -23.003082 -10.298828 -23.003082 -23.003052z" fill-rule="nonzero"></path><path fill="#ff0000" d="m494.12595 503.95135l0 0c0 -12.967804 16.24466 -23.480316 36.283478 -23.480316l0 0c20.038757 0 36.283447 10.512512 36.283447 23.480316l0 0c0 12.967834 -16.24469 23.480347 -36.283447 23.480347l0 0c-20.038818 0 -36.283478 -10.512512 -36.283478 -23.480347zm11.740143 0c0 6.483917 10.988403 11.740173 24.543335 11.740173c13.554871 0 24.543274 -5.256256 24.543274 -11.740173c0 -6.483917 -10.988403 -11.740143 -24.543274 -11.740143l0 0c-13.554932 0 -24.543335 5.2562256 -24.543335 11.740143z" fill-rule="nonzero"></path><path stroke="#000000" stroke-width="2.0" stroke-linejoin="round" stroke-linecap="butt" d="m494.12595 503.95135l0 0c0 -12.967804 16.24466 -23.480316 36.283478 -23.480316l0 0c20.038757 0 36.283447 10.512512 36.283447 23.480316l0 0c0 12.967834 -16.24469 23.480347 -36.283447 23.480347l0 0c-20.038818 0 -36.283478 -10.512512 -36.283478 -23.480347zm11.740143 0c0 6.483917 10.988403 11.740173 24.543335 11.740173c13.554871 0 24.543274 -5.256256 24.543274 -11.740173c0 -6.483917 -10.988403 -11.740143 -24.543274 -11.740143l0 0c-13.554932 0 -24.543335 5.2562256 -24.543335 11.740143z" fill-rule="nonzero"></path><path fill="#fcff5e" fill-opacity="0.2462" d="m0 548.08923l960.34644 0l0 188.94489l-960.34644 0z" fill-rule="nonzero"></path><path fill="#c27ba0" d="m448.2021 303.7215l0 0c0 -19.256042 16.56195 -34.86615 36.992126 -34.86615l0 0c9.810944 0 19.220032 3.6734009 26.15738 10.212067c6.9374084 6.538666 10.834747 15.407013 10.834747 24.654083l0 0c0 19.256042 -16.56192 34.86615 -36.992126 34.86615l0 0c-20.430176 0 -36.992126 -15.610107 -36.992126 -34.86615z" fill-rule="nonzero"></path><path stroke="#000000" stroke-width="2.0" stroke-linejoin="round" stroke-linecap="butt" d="m448.2021 303.7215l0 0c0 -19.256042 16.56195 -34.86615 36.992126 -34.86615l0 0c9.810944 0 19.220032 3.6734009 26.15738 10.212067c6.9374084 6.538666 10.834747 15.407013 10.834747 24.654083l0 0c0 19.256042 -16.56192 34.86615 -36.992126 34.86615l0 0c-20.430176 0 -36.992126 -15.610107 -36.992126 -34.86615z" fill-rule="nonzero"></path><path fill="#000000" d="m487.49075 309.88556l-2.609375 0l0 -9.828125q-1.4375 1.34375 -3.375 1.984375l0 -2.375q1.03125 -0.328125 2.21875 -1.25q1.203125 -0.9375 1.640625 -2.1875l2.125 0l0 13.65625z" fill-rule="nonzero"></path><path fill="#ff0000" d="m244.02625 148.037l0 0c0 -12.967819 16.24466 -23.480316 36.283478 -23.480316l0 0c20.038788 0 36.283447 10.512497 36.283447 23.480316l0 0c0 12.967819 -16.24466 23.480316 -36.283447 23.480316l0 0c-20.038818 0 -36.283478 -10.512497 -36.283478 -23.480316zm11.740158 0c0 6.483917 10.988419 11.740158 24.54332 11.740158c13.554871 0 24.543304 -5.256241 24.543304 -11.740158c0 -6.483917 -10.988434 -11.740158 -24.543304 -11.740158l0 0c-13.554901 0 -24.54332 5.256241 -24.54332 11.740158z" fill-rule="nonzero"></path><path stroke="#000000" stroke-width="2.0" stroke-linejoin="round" stroke-linecap="butt" d="m244.02625 148.037l0 0c0 -12.967819 16.24466 -23.480316 36.283478 -23.480316l0 0c20.038788 0 36.283447 10.512497 36.283447 23.480316l0 0c0 12.967819 -16.24466 23.480316 -36.283447 23.480316l0 0c-20.038818 0 -36.283478 -10.512497 -36.283478 -23.480316zm11.740158 0c0 6.483917 10.988419 11.740158 24.54332 11.740158c13.554871 0 24.543304 -5.256241 24.543304 -11.740158c0 -6.483917 -10.988434 -11.740158 -24.543304 -11.740158l0 0c-13.554901 0 -24.54332 5.256241 -24.54332 11.740158z" fill-rule="nonzero"></path><path fill="#ff0000" d="m330.01968 329.16528l0 0c0 -12.967804 16.24466 -23.480316 36.283478 -23.480316l0 0c20.038788 0 36.283447 10.512512 36.283447 23.480316l0 0c0 12.967834 -16.24466 23.480316 -36.283447 23.480316l0 0c-20.038818 0 -36.283478 -10.512482 -36.283478 -23.480316zm11.740173 0c0 6.483917 10.988403 11.740173 24.543304 11.740173c13.554871 0 24.543304 -5.256256 24.543304 -11.740173c0 -6.4838867 -10.988434 -11.740143 -24.543304 -11.740143l0 0c-13.554901 0 -24.543304 5.256256 -24.543304 11.740143z" fill-rule="nonzero"></path><path stroke="#000000" stroke-width="2.0" stroke-linejoin="round" stroke-linecap="butt" d="m330.01968 329.16528l0 0c0 -12.967804 16.24466 -23.480316 36.283478 -23.480316l0 0c20.038788 0 36.283447 10.512512 36.283447 23.480316l0 0c0 12.967834 -16.24466 23.480316 -36.283447 23.480316l0 0c-20.038818 0 -36.283478 -10.512482 -36.283478 -23.480316zm11.740173 0c0 6.483917 10.988403 11.740173 24.543304 11.740173c13.554871 0 24.543304 -5.256256 24.543304 -11.740173c0 -6.4838867 -10.988434 -11.740143 -24.543304 -11.740143l0 0c-13.554901 0 -24.543304 5.256256 -24.543304 11.740143z" fill-rule="nonzero"></path><path fill="#ffff00" d="m244.02625 148.037l0 0c0 -6.3979645 4.567383 -12.48085 12.517914 -16.671494c7.9505005 -4.1906357 18.50113 -6.0763016 28.91626 -5.1680603l-2.2805786 9.669907l0 0c-7.4735413 -0.37722778 -14.941162 0.7339325 -20.537964 3.0559845c-5.5968323 2.3220367 -8.79451 5.6357727 -8.79451 9.113663z" fill-rule="nonzero"></path><path stroke="#000000" stroke-width="2.0" stroke-linejoin="round" stroke-linecap="butt" d="m244.02625 148.037l0 0c0 -6.3979645 4.567383 -12.48085 12.517914 -16.671494c7.9505005 -4.1906357 18.50113 -6.0763016 28.91626 -5.1680603l-2.2805786 9.669907l0 0c-7.4735413 -0.37722778 -14.941162 0.7339325 -20.537964 3.0559845c-5.5968323 2.3220367 -8.79451 5.6357727 -8.79451 9.113663z" fill-rule="nonzero"></path><path fill="#00ff00" d="m270.59448 123.44382l12.803162 -12.09449l12.803131 12.09449l-12.803131 12.094482z" fill-rule="nonzero"></path><path stroke="#000000" stroke-width="2.0" stroke-linejoin="round" stroke-linecap="butt" d="m270.59448 123.44382l12.803162 -12.09449l12.803131 12.09449l-12.803131 12.094482z" fill-rule="nonzero"></path><path fill="#999999" d="m242.42224 171.64095l-23.716812 59.905396l9.870453 3.9079895l-19.4328 8.409561l-8.409729 -19.433182l9.870453 3.9079742l23.716812 -59.905396z" fill-rule="nonzero"></path><path stroke="#000000" stroke-width="2.0" stroke-linejoin="round" stroke-linecap="butt" d="m242.42224 171.64095l-23.716812 59.905396l9.870453 3.9079895l-19.4328 8.409561l-8.409729 -19.433182l9.870453 3.9079742l23.716812 -59.905396z" fill-rule="nonzero"></path><path fill="#ffff00" d="m184.27296 290.91833l0 0c0 -6.397949 4.567383 -12.480835 12.517899 -16.671478c7.9505157 -4.1906433 18.501144 -6.076294 28.916275 -5.1680603l-2.2805786 9.669891l0 0c-7.4735413 -0.37719727 -14.941147 0.73394775 -20.53798 3.0559998c-5.596817 2.322052 -8.794495 5.6357727 -8.794495 9.113647z" fill-rule="nonzero"></path><path stroke="#000000" stroke-width="2.0" stroke-linejoin="round" stroke-linecap="butt" d="m184.27296 290.91833l0 0c0 -6.397949 4.567383 -12.480835 12.517899 -16.671478c7.9505157 -4.1906433 18.501144 -6.076294 28.916275 -5.1680603l-2.2805786 9.669891l0 0c-7.4735413 -0.37719727 -14.941147 0.73394775 -20.53798 3.0559998c-5.596817 2.322052 -8.794495 5.6357727 -8.794495 9.113647z" fill-rule="nonzero"></path><path fill="#ffff00" d="m495.88977 503.95135l0 0c0 -6.397949 4.567383 -12.480835 12.517883 -16.671478c7.9505005 -4.1906433 18.50116 -6.076294 28.91626 -5.1680603l-2.2805786 9.669891l0 0c-7.4735107 -0.37722778 -14.941101 0.73394775 -20.537964 3.0559998c-5.5968018 2.3220215 -8.794495 5.6357727 -8.794495 9.113647z" fill-rule="nonzero"></path><path stroke="#000000" stroke-width="2.0" stroke-linejoin="round" stroke-linecap="butt" d="m495.88977 503.95135l0 0c0 -6.397949 4.567383 -12.480835 12.517883 -16.671478c7.9505005 -4.1906433 18.50116 -6.076294 28.91626 -5.1680603l-2.2805786 9.669891l0 0c-7.4735107 -0.37722778 -14.941101 0.73394775 -20.537964 3.0559998c-5.5968018 2.3220215 -8.794495 5.6357727 -8.794495 9.113647z" fill-rule="nonzero"></path><path fill="#ff00ff" d="m514.39374 477.0046l17.77948 -9.239349l17.77948 9.239349l-6.7911377 14.949554l-21.976685 0z" fill-rule="nonzero"></path><path stroke="#000000" stroke-width="2.0" stroke-linejoin="round" stroke-linecap="butt" d="m514.39374 477.0046l17.77948 -9.239349l17.77948 9.239349l-6.7911377 14.949554l-21.976685 0z" fill-rule="nonzero"></path><path fill="#cfe2f3" d="m643.50397 595.43164l0 0c0 -12.704224 10.298828 -23.003052 23.003052 -23.003052l188.7655 0c6.100769 0 11.951721 2.423523 16.265625 6.7374268c4.313904 4.313904 6.7374268 10.164856 6.7374268 16.265625l0 92.00958c0 12.704224 -10.298828 23.003113 -23.003052 23.003113l-188.7655 0c-12.704224 0 -23.003052 -10.298889 -23.003052 -23.003113z" fill-rule="nonzero"></path><path stroke="#000000" stroke-width="4.0" stroke-linejoin="round" stroke-linecap="butt" d="m643.50397 595.43164l0 0c0 -12.704224 10.298828 -23.003052 23.003052 -23.003052l188.7655 0c6.100769 0 11.951721 2.423523 16.265625 6.7374268c4.313904 4.313904 6.7374268 10.164856 6.7374268 16.265625l0 92.00958c0 12.704224 -10.298828 23.003113 -23.003052 23.003113l-188.7655 0c-12.704224 0 -23.003052 -10.298889 -23.003052 -23.003113z" fill-rule="nonzero"></path><path fill="#c27ba0" d="m773.69293 641.43646l0 0c0 -19.256042 16.56189 -34.86615 36.992126 -34.86615l0 0c9.810913 0 19.21997 3.6733398 26.157349 10.212036c6.937378 6.5386963 10.834778 15.406982 10.834778 24.654114l0 0c0 19.255981 -16.56195 34.86609 -36.992126 34.86609l0 0c-20.430237 0 -36.992126 -15.610107 -36.992126 -34.86609z" fill-rule="nonzero"></path><path stroke="#000000" stroke-width="2.0" stroke-linejoin="round" stroke-linecap="butt" d="m773.69293 641.43646l0 0c0 -19.256042 16.56189 -34.86615 36.992126 -34.86615l0 0c9.810913 0 19.21997 3.6733398 26.157349 10.212036c6.937378 6.5386963 10.834778 15.406982 10.834778 24.654114l0 0c0 19.255981 -16.56195 34.86609 -36.992126 34.86609l0 0c-20.430237 0 -36.992126 -15.610107 -36.992126 -34.86609z" fill-rule="nonzero"></path><path fill="#000000" d="m812.98157 647.60046l-2.609375 0l0 -9.828125q-1.4375 1.34375 -3.375 1.984375l0 -2.375q1.03125 -0.328125 2.21875 -1.25q1.203125 -0.9375 1.640625 -2.1875l2.125 0l0 13.65625z" fill-rule="nonzero"></path><path fill="#ff0000" d="m672.53674 666.9251l0 0c0 -12.967834 16.24469 -23.480286 36.283447 -23.480286l0 0c20.038818 0 36.28351 10.512451 36.28351 23.480286l0 0c0 12.967834 -16.24469 23.480347 -36.28351 23.480347l0 0c-20.038757 0 -36.283447 -10.512512 -36.283447 -23.480347zm11.740173 0c0 6.4838867 10.988403 11.740173 24.543274 11.740173c13.554932 0 24.543335 -5.2562866 24.543335 -11.740173c0 -6.4838867 -10.988403 -11.740173 -24.543335 -11.740173l0 0c-13.554871 0 -24.543274 5.2562866 -24.543274 11.740173z" fill-rule="nonzero"></path><path stroke="#000000" stroke-width="2.0" stroke-linejoin="round" stroke-linecap="butt" d="m672.53674 666.9251l0 0c0 -12.967834 16.24469 -23.480286 36.283447 -23.480286l0 0c20.038818 0 36.28351 10.512451 36.28351 23.480286l0 0c0 12.967834 -16.24469 23.480347 -36.28351 23.480347l0 0c-20.038757 0 -36.283447 -10.512512 -36.283447 -23.480347zm11.740173 0c0 6.4838867 10.988403 11.740173 24.543274 11.740173c13.554932 0 24.543335 -5.2562866 24.543335 -11.740173c0 -6.4838867 -10.988403 -11.740173 -24.543335 -11.740173l0 0c-13.554871 0 -24.543274 5.2562866 -24.543274 11.740173z" fill-rule="nonzero"></path><path fill="#ffff00" d="m672.53674 666.9251l0 0c0 -6.397949 4.567383 -12.480835 12.517883 -16.671509c7.9505615 -4.190613 18.50116 -6.076294 28.91626 -5.16803l-2.2805786 9.669861l0 0c-7.4735107 -0.37719727 -14.941101 0.73394775 -20.537964 3.0560303c-5.5968018 2.3220215 -8.794495 5.635742 -8.794495 9.113647z" fill-rule="nonzero"></path><path stroke="#000000" stroke-width="2.0" stroke-linejoin="round" stroke-linecap="butt" d="m672.53674 666.9251l0 0c0 -6.397949 4.567383 -12.480835 12.517883 -16.671509c7.9505615 -4.190613 18.50116 -6.076294 28.91626 -5.16803l-2.2805786 9.669861l0 0c-7.4735107 -0.37719727 -14.941101 0.73394775 -20.537964 3.0560303c-5.5968018 2.3220215 -8.794495 5.635742 -8.794495 9.113647z" fill-rule="nonzero"></path><path fill="#000000" fill-opacity="0.0" d="m420.38058 309.12924l71.1496 0l0 27.02362l-71.1496 0z" fill-rule="nonzero"></path><path fill="#000000" d="m438.98996 332.598l0 2.421875l-9.140625 0q0.15625 -1.375 0.890625 -2.59375q0.75 -1.234375 2.9375 -3.265625q1.765625 -1.640625 2.15625 -2.234375q0.546875 -0.796875 0.546875 -1.59375q0 -0.875 -0.46875 -1.34375q-0.46875 -0.46875 -1.296875 -0.46875q-0.8125 0 -1.296875 0.5q-0.484375 0.484375 -0.5625 1.625l-2.59375 -0.25q0.234375 -2.15625 1.453125 -3.09375q1.21875 -0.9375 3.0625 -0.9375q2.015625 0 3.15625 1.09375q1.15625 1.078125 1.15625 2.6875q0 0.921875 -0.328125 1.75q-0.328125 0.828125 -1.046875 1.734375q-0.46875 0.609375 -1.703125 1.75q-1.234375 1.125 -1.5625 1.5q-0.328125 0.359375 -0.53125 0.71875l5.171875 0z" fill-rule="nonzero"></path><path fill="#000000" fill-opacity="0.0" d="m346.24802 124.451515l74.48819 0l0 40.44094l-74.48819 0z" fill-rule="nonzero"></path><path fill="#000000" d="m355.96677 146.73277l2.515625 -0.3125q0.125 0.96875 0.65625 1.484375q0.53125 0.5 1.28125 0.5q0.796875 0 1.34375 -0.609375q0.5625 -0.609375 0.5625 -1.640625q0 -0.984375 -0.53125 -1.5625q-0.53125 -0.578125 -1.28125 -0.578125q-0.5 0 -1.203125 0.203125l0.28125 -2.125q1.0625 0.015625 1.609375 -0.46875q0.5625 -0.484375 0.5625 -1.296875q0 -0.6875 -0.40625 -1.09375q-0.40625 -0.40625 -1.078125 -0.40625q-0.671875 0 -1.140625 0.46875q-0.46875 0.46875 -0.578125 1.359375l-2.40625 -0.421875q0.25 -1.234375 0.75 -1.96875q0.515625 -0.734375 1.421875 -1.15625q0.90625 -0.421875 2.03125 -0.421875q1.90625 0 3.078125 1.21875q0.953125 1.0 0.953125 2.265625q0 1.796875 -1.953125 2.859375q1.15625 0.25 1.859375 1.125q0.703125 0.875 0.703125 2.109375q0 1.78125 -1.3125 3.046875q-1.296875 1.265625 -3.25 1.265625q-1.84375 0 -3.0625 -1.0625q-1.21875 -1.0625 -1.40625 -2.78125z" fill-rule="nonzero"></path><path fill="#000000" fill-opacity="0.0" d="m340.07874 45.53281l-49.795258 66.866135" fill-rule="nonzero"></path><path stroke="#000000" stroke-width="2.0" stroke-linejoin="round" stroke-linecap="butt" d="m340.07874 45.53281l-42.62796 57.24171" fill-rule="evenodd"></path><path fill="#000000" stroke="#000000" stroke-width="2.0" stroke-linecap="butt" d="m294.8013 100.801445l-2.771515 9.25251l8.070496 -5.3063507z" fill-rule="evenodd"></path><path fill="#000000" fill-opacity="0.0" d="m81.10761 214.86089l162.92914 -79.30708" fill-rule="nonzero"></path><path stroke="#000000" stroke-width="2.0" stroke-linejoin="round" stroke-linecap="butt" d="m81.10761 214.86089l152.13947 -74.055115" fill-rule="evenodd"></path><path fill="#000000" stroke="#000000" stroke-width="2.0" stroke-linecap="butt" d="m234.69289 143.77603l6.7149506 -6.942581l-9.606567 1.0020447z" fill-rule="evenodd"></path><path fill="#000000" fill-opacity="0.0" d="m334.63385 15.249089l63.338593 0l0 27.02362l-63.338593 0z" fill-rule="nonzero"></path><path fill="#000000" d="m344.4776 37.639713l2.59375 -0.265625q0.109375 0.875 0.65625 1.390625q0.546875 0.515625 1.265625 0.515625q0.8125 0 1.375 -0.65625q0.578125 -0.671875 0.578125 -2.0q0 -1.25 -0.5625 -1.875q-0.5625 -0.625 -1.46875 -0.625q-1.109375 0 -2.0 0.984375l-2.125 -0.3125l1.34375 -7.078125l6.890625 0l0 2.453125l-4.921875 0l-0.40625 2.296875q0.875 -0.421875 1.78125 -0.421875q1.734375 0 2.9375 1.265625q1.203125 1.25 1.203125 3.265625q0 1.671875 -0.96875 3.0q-1.328125 1.796875 -3.6875 1.796875q-1.875 0 -3.0625 -1.015625q-1.1875 -1.015625 -1.421875 -2.71875z" fill-rule="nonzero"></path><path fill="#000000" fill-opacity="0.0" d="m56.034122 204.88715l50.45669 0l0 29.039368l-50.45669 0z" fill-rule="nonzero"></path><path fill="#000000" d="m70.95599 230.77777l0 -2.734375l-5.5625 0l0 -2.28125l5.890625 -8.640625l2.1875 0l0 8.625l1.6875 0l0 2.296875l-1.6875 0l0 2.734375l-2.515625 0zm0 -5.03125l0 -4.640625l-3.125 4.640625l3.125 0z" fill-rule="nonzero"></path><path fill="#000000" fill-opacity="0.0" d="m613.2808 360.0l-71.1496 109.5748" fill-rule="nonzero"></path><path stroke="#000000" stroke-width="2.0" stroke-linejoin="round" stroke-linecap="butt" d="m613.2808 360.0l-64.6145 99.510376" fill-rule="evenodd"></path><path fill="#000000" stroke="#000000" stroke-width="2.0" stroke-linecap="butt" d="m545.8957 457.71133l-2.1721802 9.411255l7.71344 -5.8131714z" fill-rule="evenodd"></path><path fill="#000000" fill-opacity="0.0" d="m604.73486 326.66135l51.968506 0l0 25.984253l-51.968506 0z" fill-rule="nonzero"></path><path fill="#000000" d="m623.3755 342.28635l-2.53125 0.28125q-0.09375 -0.78125 -0.484375 -1.15625q-0.375 -0.375 -1.0 -0.375q-0.828125 0 -1.40625 0.75q-0.5625 0.734375 -0.71875 3.078125q0.984375 -1.140625 2.421875 -1.140625q1.640625 0 2.796875 1.25q1.171875 1.234375 1.171875 3.203125q0 2.078125 -1.234375 3.34375q-1.21875 1.265625 -3.140625 1.265625q-2.0625 0 -3.390625 -1.59375q-1.3125 -1.609375 -1.3125 -5.25q0 -3.75 1.375 -5.390625q1.390625 -1.65625 3.59375 -1.65625q1.546875 0 2.5625 0.875q1.015625 0.859375 1.296875 2.515625zm-5.90625 5.6875q0 1.265625 0.578125 1.953125q0.59375 0.6875 1.34375 0.6875q0.71875 0 1.203125 -0.5625q0.484375 -0.5625 0.484375 -1.84375q0 -1.328125 -0.53125 -1.9375q-0.515625 -0.625 -1.296875 -0.625q-0.75 0 -1.265625 0.59375q-0.515625 0.578125 -0.515625 1.734375z" fill-rule="nonzero"></path><path fill="#000000" fill-opacity="0.0" d="m587.38055 643.4448l56.566895 0l0 32.094482l-56.566895 0z" fill-rule="nonzero"></path><path fill="#000000" d="m597.19305 658.33545l0 -2.421875l8.90625 0l0 1.90625q-1.09375 1.078125 -2.234375 3.109375q-1.140625 2.03125 -1.75 4.328125q-0.59375 2.28125 -0.578125 4.078125l-2.515625 0q0.0625 -2.828125 1.15625 -5.75q1.109375 -2.9375 2.9375 -5.25l-5.921875 0z" fill-rule="nonzero"></path><path fill="#000000" fill-opacity="0.0" d="m398.40683 305.68497l0 0c7.070984 0 12.803131 0.95532227 12.803131 2.133789l0 19.236237c0 1.1784668 5.7321777 2.133789 12.803162 2.133789l0 0c-7.070984 0 -12.803162 0.95532227 -12.803162 2.1337585l0 19.1893c0 1.1784363 -5.732147 2.1337585 -12.803131 2.1337585z" fill-rule="nonzero"></path><path fill="#000000" fill-opacity="0.0" d="m398.40683 305.68497l0 0c7.070984 0 12.803131 0.95532227 12.803131 2.133789l0 19.236237c0 1.1784668 5.7321777 2.133789 12.803162 2.133789l0 0c-7.070984 0 -12.803162 0.95532227 -12.803162 2.1337585l0 19.1893c0 1.1784363 -5.732147 2.1337585 -12.803131 2.1337585" fill-rule="nonzero"></path><path stroke="#000000" stroke-width="2.0" stroke-linejoin="round" stroke-linecap="butt" d="m398.40683 305.68497l0 0c7.070984 0 12.803131 0.95532227 12.803131 2.133789l0 19.236237c0 1.1784668 5.7321777 2.133789 12.803162 2.133789l0 0c-7.070984 0 -12.803162 0.95532227 -12.803162 2.1337585l0 19.1893c0 1.1784363 -5.732147 2.1337585 -12.803131 2.1337585" fill-rule="nonzero"></path><path fill="#000000" fill-opacity="0.0" d="m320.64172 124.55669l0 0c7.070984 0 12.803162 0.95532227 12.803162 2.1337738l0 19.236252c0 1.1784515 5.732147 2.1337738 12.803131 2.1337738l0 0c-7.070984 0 -12.803131 0.95532227 -12.803131 2.1337738l0 19.189285c0 1.1784515 -5.7321777 2.1337738 -12.803162 2.1337738z" fill-rule="nonzero"></path><path fill="#000000" fill-opacity="0.0" d="m320.64172 124.55669l0 0c7.070984 0 12.803162 0.95532227 12.803162 2.1337738l0 19.236252c0 1.1784515 5.732147 2.1337738 12.803131 2.1337738l0 0c-7.070984 0 -12.803131 0.95532227 -12.803131 2.1337738l0 19.189285c0 1.1784515 -5.7321777 2.1337738 -12.803162 2.1337738" fill-rule="nonzero"></path><path stroke="#000000" stroke-width="2.0" stroke-linejoin="round" stroke-linecap="butt" d="m320.64172 124.55669l0 0c7.070984 0 12.803162 0.95532227 12.803162 2.1337738l0 19.236252c0 1.1784515 5.732147 2.1337738 12.803131 2.1337738l0 0c-7.070984 0 -12.803131 0.95532227 -12.803131 2.1337738l0 19.189285c0 1.1784515 -5.7321777 2.1337738 -12.803162 2.1337738" fill-rule="nonzero"></path><path fill="#000000" fill-opacity="0.0" d="m411.20996 238.47244l0 0" fill-rule="nonzero"></path><path stroke="#000000" stroke-width="2.0" stroke-linejoin="round" stroke-linecap="butt" d="m411.20996 238.47244l0 0" fill-rule="nonzero"></path><path fill="#000000" fill-opacity="0.0" d="m669.1102 690.6259l0 0c-7.070984 -0.12176514 -12.785828 -1.1757812 -12.764526 -2.354248l0.34838867 -19.236267c0.02130127 -1.1784668 -5.6935425 -2.232483 -12.764526 -2.354248l0 0c7.070984 0.12176514 12.820435 -0.73480225 12.841797 -1.913269l0.34747314 -19.189331c0.021362305 -1.1784668 5.770813 -2.0350342 12.841797 -1.913269z" fill-rule="nonzero"></path><path fill="#000000" fill-opacity="0.0" d="m669.1102 690.6259l0 0c-7.070984 -0.12176514 -12.785828 -1.1757812 -12.764526 -2.354248l0.34838867 -19.236267c0.02130127 -1.1784668 -5.6935425 -2.232483 -12.764526 -2.354248l0 0c7.070984 0.12176514 12.820435 -0.73480225 12.841797 -1.913269l0.34747314 -19.189331c0.021362305 -1.1784668 5.770813 -2.0350342 12.841797 -1.913269" fill-rule="nonzero"></path><path stroke="#000000" stroke-width="2.0" stroke-linejoin="round" stroke-linecap="butt" d="m669.1102 690.6259l0 0c-7.070984 -0.12176514 -12.785828 -1.1757812 -12.764526 -2.354248l0.34838867 -19.236267c0.02130127 -1.1784668 -5.6935425 -2.232483 -12.764526 -2.354248l0 0c7.070984 0.12176514 12.820435 -0.73480225 12.841797 -1.913269l0.34747314 -19.189331c0.021362305 -1.1784668 5.770813 -2.0350342 12.841797 -1.913269" fill-rule="nonzero"></path><path fill="#000000" fill-opacity="0.0" d="m889.88715 336.51968l52.661438 0l0 40.44095l-52.661438 0z" fill-rule="nonzero"></path><path fill="#000000" d="m907.684 366.4728l0 0.4375l-8.3125 0l0 -0.4375l0.53125 0q0.6875 0 1.109375 -0.25q0.296875 -0.15625 0.46875 -0.5625q0.125 -0.28125 0.125 -1.46875l0 -10.453125q0 -1.21875 -0.125 -1.515625q-0.125 -0.3125 -0.53125 -0.53125q-0.390625 -0.234375 -1.046875 -0.234375l-0.53125 0l0 -0.4375l8.3125 0l0 0.4375l-0.53125 0q-0.6875 0 -1.109375 0.234375q-0.3125 0.171875 -0.484375 0.5625q-0.125 0.28125 -0.125 1.484375l0 10.453125q0 1.21875 0.125 1.53125q0.140625 0.296875 0.53125 0.53125q0.390625 0.21875 1.0625 0.21875l0.53125 0zm9.339844 0l0 0.4375l-8.3125 0l0 -0.4375l0.53125 0q0.6875 0 1.109375 -0.25q0.296875 -0.15625 0.46875 -0.5625q0.125 -0.28125 0.125 -1.46875l0 -10.453125q0 -1.21875 -0.125 -1.515625q-0.125 -0.3125 -0.53125 -0.53125q-0.390625 -0.234375 -1.046875 -0.234375l-0.53125 0l0 -0.4375l8.3125 0l0 0.4375l-0.53125 0q-0.6875 0 -1.109375 0.234375q-0.3125 0.171875 -0.484375 0.5625q-0.125 0.28125 -0.125 1.484375l0 10.453125q0 1.21875 0.125 1.53125q0.140625 0.296875 0.53125 0.53125q0.390625 0.21875 1.0625 0.21875l0.53125 0z" fill-rule="nonzero"></path><path fill="#000000" fill-opacity="0.0" d="m889.88715 492.33072l52.661438 0l0 40.44095l-52.661438 0z" fill-rule="nonzero"></path><path fill="#000000" d="m907.684 522.2838l0 0.4375l-8.3125 0l0 -0.4375l0.53125 0q0.6875 0 1.109375 -0.25q0.296875 -0.15625 0.46875 -0.5625q0.125 -0.28125 0.125 -1.46875l0 -10.4530945q0 -1.21875 -0.125 -1.515625q-0.125 -0.3125 -0.53125 -0.53125q-0.390625 -0.234375 -1.046875 -0.234375l-0.53125 0l0 -0.4375l8.3125 0l0 0.4375l-0.53125 0q-0.6875 0 -1.109375 0.234375q-0.3125 0.171875 -0.484375 0.5625q-0.125 0.28125 -0.125 1.484375l0 10.4530945q0 1.21875 0.125 1.53125q0.140625 0.296875 0.53125 0.53125q0.390625 0.21875 1.0625 0.21875l0.53125 0zm9.339844 0l0 0.4375l-8.3125 0l0 -0.4375l0.53125 0q0.6875 0 1.109375 -0.25q0.296875 -0.15625 0.46875 -0.5625q0.125 -0.28125 0.125 -1.46875l0 -10.4530945q0 -1.21875 -0.125 -1.515625q-0.125 -0.3125 -0.53125 -0.53125q-0.390625 -0.234375 -1.046875 -0.234375l-0.53125 0l0 -0.4375l8.3125 0l0 0.4375l-0.53125 0q-0.6875 0 -1.109375 0.234375q-0.3125 0.171875 -0.484375 0.5625q-0.125 0.28125 -0.125 1.484375l0 10.4530945q0 1.21875 0.125 1.53125q0.140625 0.296875 0.53125 0.53125q0.390625 0.21875 1.0625 0.21875l0.53125 0zm9.339844 0l0 0.4375l-8.3125 0l0 -0.4375l0.53125 0q0.6875 0 1.109375 -0.25q0.296875 -0.15625 0.46875 -0.5625q0.125 -0.28125 0.125 -1.46875l0 -10.4530945q0 -1.21875 -0.125 -1.515625q-0.125 -0.3125 -0.53125 -0.53125q-0.390625 -0.234375 -1.046875 -0.234375l-0.53125 0l0 -0.4375l8.3125 0l0 0.4375l-0.53125 0q-0.6875 0 -1.109375 0.234375q-0.3125 0.171875 -0.484375 0.5625q-0.125 0.28125 -0.125 1.484375l0 10.4530945q0 1.21875 0.125 1.53125q0.140625 0.296875 0.53125 0.53125q0.390625 0.21875 1.0625 0.21875l0.53125 0z" fill-rule="nonzero"></path><path fill="#000000" fill-opacity="0.0" d="m889.88715 662.8949l52.661438 0l0 40.440918l-52.661438 0z" fill-rule="nonzero"></path><path fill="#000000" d="m907.684 692.848l0 0.4375l-8.3125 0l0 -0.4375l0.53125 0q0.6875 0 1.109375 -0.25q0.296875 -0.15625 0.46875 -0.5625q0.125 -0.28125 0.125 -1.46875l0 -10.453125q0 -1.21875 -0.125 -1.515625q-0.125 -0.3125 -0.53125 -0.53125q-0.390625 -0.234375 -1.046875 -0.234375l-0.53125 0l0 -0.4375l8.3125 0l0 0.4375l-0.53125 0q-0.6875 0 -1.109375 0.234375q-0.3125 0.171875 -0.484375 0.5625q-0.125 0.28125 -0.125 1.484375l0 10.453125q0 1.21875 0.125 1.53125q0.140625 0.296875 0.53125 0.53125q0.390625 0.21875 1.0625 0.21875l0.53125 0zm17.636719 -15.453125l0 0.4375q-0.875 0.140625 -1.546875 0.921875q-0.5 0.578125 -1.46875 2.75l-5.46875 12.140625l-0.390625 0l-5.453125 -12.625q-0.984375 -2.296875 -1.328125 -2.6875q-0.328125 -0.40625 -1.25 -0.5l0 -0.4375l7.625 0l0 0.4375l-0.265625 0q-1.03125 0 -1.40625 0.25q-0.265625 0.171875 -0.265625 0.515625q0 0.21875 0.09375 0.5q0.09375 0.28125 0.625 1.546875l3.390625 7.90625l3.140625 -7.046875q0.5625 -1.28125 0.6875 -1.703125q0.140625 -0.4375 0.140625 -0.75q0 -0.34375 -0.1875 -0.609375q-0.1875 -0.28125 -0.5625 -0.421875q-0.5 -0.1875 -1.328125 -0.1875l0 -0.4375l5.21875 0z" fill-rule="nonzero"></path><path fill="#c27ba0" d="m605.80316 468.5072l0 0c0 -19.256012 16.56195 -34.86612 36.992126 -34.86612l0 0c9.810913 0 19.21997 3.6733704 26.157349 10.212036c6.937378 6.5386963 10.834778 15.407013 10.834778 24.654083l0 0c0 19.256042 -16.56195 34.86615 -36.992126 34.86615l0 0c-20.430176 0 -36.992126 -15.610107 -36.992126 -34.86615z" fill-rule="nonzero"></path><path stroke="#000000" stroke-width="2.0" stroke-linejoin="round" stroke-linecap="butt" d="m605.80316 468.5072l0 0c0 -19.256012 16.56195 -34.86612 36.992126 -34.86612l0 0c9.810913 0 19.21997 3.6733704 26.157349 10.212036c6.937378 6.5386963 10.834778 15.407013 10.834778 24.654083l0 0c0 19.256042 -16.56195 34.86615 -36.992126 34.86615l0 0c-20.430176 0 -36.992126 -15.610107 -36.992126 -34.86615z" fill-rule="nonzero"></path><path fill="#000000" d="m645.0918 474.67126l-2.609375 0l0 -9.828125q-1.4375 1.34375 -3.375 1.984375l0 -2.375q1.03125 -0.328125 2.21875 -1.25q1.203125 -0.9375 1.640625 -2.1875l2.125 0l0 13.65625z" fill-rule="nonzero"></path><path fill="#999999" d="m230.23799 302.66556l58.94609 25.934235l4.2764587 -9.725281l7.6838074 19.750793l-19.746796 7.6822815l4.276428 -9.725311l-58.94609 -25.934235z" fill-rule="nonzero"></path><path stroke="#000000" stroke-width="2.0" stroke-linejoin="round" stroke-linecap="butt" d="m230.23799 302.66556l58.94609 25.934235l4.2764587 -9.725281l7.6838074 19.750793l-19.746796 7.6822815l4.276428 -9.725311l-58.94609 -25.934235z" fill-rule="nonzero"></path><path fill="#000000" fill-opacity="0.0" d="m643.92957 666.68115l0 0" fill-rule="nonzero"></path><path stroke="#000000" stroke-width="2.0" stroke-linejoin="round" stroke-linecap="butt" d="m643.92957 666.68115l0 0" fill-rule="nonzero"></path><path fill="#000000" fill-opacity="0.0" d="m614.0577 666.9251l29.88977 0" fill-rule="nonzero"></path><path stroke="#000000" stroke-width="2.0" stroke-linejoin="round" stroke-linecap="butt" d="m614.0577 666.9251l29.88977 0" fill-rule="nonzero"></path><path fill="#000000" fill-opacity="0.0" d="m889.88715 180.70866l52.661438 0l0 40.44095l-52.661438 0z" fill-rule="nonzero"></path><path fill="#000000" d="m907.684 210.66179l0 0.4375l-8.3125 0l0 -0.4375l0.53125 0q0.6875 0 1.109375 -0.25q0.296875 -0.15625 0.46875 -0.5625q0.125 -0.28125 0.125 -1.46875l0 -10.453125q0 -1.21875 -0.125 -1.515625q-0.125 -0.3125 -0.53125 -0.53125q-0.390625 -0.234375 -1.046875 -0.234375l-0.53125 0l0 -0.4375l8.3125 0l0 0.4375l-0.53125 0q-0.6875 0 -1.109375 0.234375q-0.3125 0.171875 -0.484375 0.5625q-0.125 0.28125 -0.125 1.484375l0 10.453125q0 1.21875 0.125 1.53125q0.140625 0.296875 0.53125 0.53125q0.390625 0.21875 1.0625 0.21875l0.53125 0z" fill-rule="nonzero"></path><path fill="#c27ba0" d="m82.52756 130.55667l0 0c0 -19.256035 16.561943 -34.866135 36.992126 -34.866135l0 0c9.810928 0 19.220016 3.6733856 26.15738 10.212051c6.937378 6.5386734 10.834747 15.407013 10.834747 24.654083l0 0c0 19.256042 -16.561935 34.86615 -36.992126 34.86615l0 0c-20.430183 0 -36.992126 -15.610107 -36.992126 -34.86615z" fill-rule="nonzero"></path><path stroke="#000000" stroke-width="2.0" stroke-linejoin="round" stroke-linecap="butt" d="m82.52756 130.55667l0 0c0 -19.256035 16.561943 -34.866135 36.992126 -34.866135l0 0c9.810928 0 19.220016 3.6733856 26.15738 10.212051c6.937378 6.5386734 10.834747 15.407013 10.834747 24.654083l0 0c0 19.256042 -16.561935 34.86615 -36.992126 34.86615l0 0c-20.430183 0 -36.992126 -15.610107 -36.992126 -34.86615z" fill-rule="nonzero"></path><path fill="#000000" d="m121.8162 136.72073l-2.609375 0l0 -9.828125q-1.4375 1.34375 -3.375 1.984375l0 -2.375q1.03125 -0.328125 2.21875 -1.25q1.203125 -0.9375 1.640625 -2.1875l2.125 0l0 13.65625z" fill-rule="nonzero"></path></g></svg>

