<?xml version="1.0" encoding="UTF-8" standalone="no"?>
<!-- Created with Inkscape (http://www.inkscape.org/) -->
<svg
   xmlns:dc="http://purl.org/dc/elements/1.1/"
   xmlns:cc="http://web.resource.org/cc/"
   xmlns:rdf="http://www.w3.org/1999/02/22-rdf-syntax-ns#"
   xmlns:svg="http://www.w3.org/2000/svg"
   xmlns="http://www.w3.org/2000/svg"
   xmlns:sodipodi="http://sodipodi.sourceforge.net/DTD/sodipodi-0.dtd"
   xmlns:inkscape="http://www.inkscape.org/namespaces/inkscape"
   width="769"
   height="589"
   id="svg2"
   sodipodi:version="0.32"
   inkscape:version="0.45.1"
   sodipodi:docbase="/home/romanov/Desktop"
   sodipodi:docname="Pedegree.svg"
   inkscape:output_extension="org.inkscape.output.svg.inkscape"
   version="1.0">
  <defs
     id="defs4" />
  <sodipodi:namedview
     id="base"
     pagecolor="#ffffff"
     bordercolor="#666666"
     borderopacity="1.0"
     inkscape:pageopacity="0.0"
     inkscape:pageshadow="2"
     inkscape:zoom="0.5"
     inkscape:cx="586.88251"
     inkscape:cy="134.14605"
     inkscape:document-units="px"
     inkscape:current-layer="layer1"
     inkscape:window-width="1014"
     inkscape:window-height="685"
     inkscape:window-x="0"
     inkscape:window-y="29" />
  <metadata
     id="metadata7">
    <rdf:RDF>
      <cc:Work
         rdf:about="">
        <dc:format>image/svg+xml</dc:format>
        <dc:type
           rdf:resource="http://purl.org/dc/dcmitype/StillImage" />
      </cc:Work>
    </rdf:RDF>
  </metadata>
  <g
     inkscape:label="Calque 1"
     inkscape:groupmode="layer"
     id="layer1"
     transform="translate(6.5000001,-25.862183)">
    <path
       style="color:#000000;fill:none;fill-opacity:1;fill-rule:evenodd;stroke:#000000;stroke-width:1;stroke-linecap:butt;stroke-linejoin:round;stroke-miterlimit:4;stroke-dashoffset:0;stroke-opacity:1;marker:none;marker-start:none;marker-mid:none;marker-end:none;visibility:visible;display:inline;overflow:visible;enable-background:accumulate"
       d="M 296.0567,50.538429 L 331.73222,50.538429 L 331.73222,87.838638 L 296.0567,87.838638 L 296.0567,50.538429 z "
       id="rect2160" />
    <path
       transform="matrix(0.474003,0,0,0.4627172,145.1141,21.823792)"
       style="color:#000000;fill:none;fill-opacity:1;fill-rule:evenodd;stroke:#000000;stroke-width:2.13526416;stroke-linecap:butt;stroke-linejoin:round;stroke-miterlimit:4;stroke-dashoffset:0;stroke-opacity:1;marker:none;marker-start:none;marker-mid:none;marker-end:none;visibility:visible;display:inline;overflow:visible;enable-background:accumulate"
       d="M 558,102.36218 C 558,125.54618 539.632,144.36218 517,144.36218 C 494.368,144.36218 476,125.54618 476,102.36218 C 476,79.178183 494.368,60.362183 517,60.362183 C 539.632,60.362183 558,79.178183 558,102.36218 z "
       id="path3134" />
    <path
       style="fill:none;fill-rule:evenodd;stroke:#000000;stroke-width:1;stroke-linecap:butt;stroke-linejoin:miter;stroke-miterlimit:4;stroke-opacity:1;display:inline"
       d="M 331.03494,69.18853 L 370.23347,69.188533"
       id="path5074" />
    <path
       style="fill:none;fill-rule:evenodd;stroke:#000000;stroke-width:1;stroke-linecap:butt;stroke-linejoin:miter;stroke-miterlimit:4;stroke-opacity:1"
       d="M 84.876451,141.36218 L 586.12355,141.36218"
       id="path6045" />
    <path
       transform="matrix(0.474003,0,0,0.4627172,-83.8859,183.32379)"
       style="color:#000000;fill:none;fill-opacity:1;fill-rule:evenodd;stroke:#000000;stroke-width:2.13526416;stroke-linecap:butt;stroke-linejoin:round;stroke-miterlimit:4;stroke-dashoffset:0;stroke-opacity:1;marker:none;marker-start:none;marker-mid:none;marker-end:none;visibility:visible;display:inline;overflow:visible;enable-background:accumulate"
       d="M 558,102.36218 C 558,125.54618 539.632,144.36218 517,144.36218 C 494.368,144.36218 476,125.54618 476,102.36218 C 476,79.178183 494.368,60.362183 517,60.362183 C 539.632,60.362183 558,79.178183 558,102.36218 z "
       id="path7018" />
    <path
       style="fill:none;fill-rule:evenodd;stroke:#000000;stroke-width:1;stroke-linecap:butt;stroke-linejoin:miter;stroke-miterlimit:4;stroke-opacity:1;display:inline"
       d="M 102.03494,230.68853 L 141.16399,230.68853"
       id="path7020" />
    <path
       style="color:#000000;fill:none;fill-opacity:1;fill-rule:evenodd;stroke:#000000;stroke-width:1;stroke-linecap:butt;stroke-linejoin:round;stroke-miterlimit:4;stroke-dashoffset:0;stroke-opacity:1;marker:none;marker-start:none;marker-mid:none;marker-end:none;visibility:visible;display:inline;overflow:visible;enable-background:accumulate"
       d="M 232.0567,212.03842 L 267.73222,212.03842 L 267.73222,249.33863 L 232.0567,249.33863 L 232.0567,212.03842 z "
       id="rect7022" />
    <path
       transform="matrix(0.474003,0,0,0.4627172,81.1141,183.32379)"
       style="color:#000000;fill:none;fill-opacity:1;fill-rule:evenodd;stroke:#000000;stroke-width:2.13526416;stroke-linecap:butt;stroke-linejoin:round;stroke-miterlimit:4;stroke-dashoffset:0;stroke-opacity:1;marker:none;marker-start:none;marker-mid:none;marker-end:none;visibility:visible;display:inline;overflow:visible;enable-background:accumulate"
       d="M 558,102.36218 C 558,125.54618 539.632,144.36218 517,144.36218 C 494.368,144.36218 476,125.54618 476,102.36218 C 476,79.178183 494.368,60.362183 517,60.362183 C 539.632,60.362183 558,79.178183 558,102.36218 z "
       id="path7024" />
    <path
       style="fill:none;fill-rule:evenodd;stroke:#000000;stroke-width:1;stroke-linecap:butt;stroke-linejoin:miter;stroke-miterlimit:4;stroke-opacity:1;display:inline"
       d="M 267.03494,230.68853 L 306.16399,230.68853"
       id="path7026" />
    <path
       transform="scale(-1,1)"
       style="color:#000000;fill:#000000;fill-opacity:1;fill-rule:evenodd;stroke:#000000;stroke-width:1;stroke-linecap:butt;stroke-linejoin:round;stroke-miterlimit:4;stroke-dashoffset:0;stroke-opacity:1;marker:none;marker-start:none;marker-mid:none;marker-end:none;visibility:visible;display:inline;overflow:visible;enable-background:accumulate"
       d="M -506.60779,212.03842 L -470.93227,212.03842 L -470.93227,249.33863 L -506.60779,249.33863 L -506.60779,212.03842 z "
       id="rect7034" />
    <path
       transform="matrix(-0.474003,0,0,0.4627172,657.55038,183.32379)"
       style="color:#000000;fill:none;fill-opacity:1;fill-rule:evenodd;stroke:#000000;stroke-width:2.13526416;stroke-linecap:butt;stroke-linejoin:round;stroke-miterlimit:4;stroke-dashoffset:0;stroke-opacity:1;marker:none;marker-start:none;marker-mid:none;marker-end:none;visibility:visible;display:inline;overflow:visible;enable-background:accumulate"
       d="M 558,102.36218 C 558,125.54618 539.632,144.36218 517,144.36218 C 494.368,144.36218 476,125.54618 476,102.36218 C 476,79.178183 494.368,60.362183 517,60.362183 C 539.632,60.362183 558,79.178183 558,102.36218 z "
       id="path7036" />
    <path
       style="fill:none;fill-rule:evenodd;stroke:#000000;stroke-width:1;stroke-linecap:butt;stroke-linejoin:miter;stroke-miterlimit:4;stroke-opacity:1;display:inline"
       d="M 471.62954,230.68853 L 432.50049,230.68853"
       id="path7038" />
    <path
       style="color:#000000;fill:none;fill-opacity:1;fill-rule:evenodd;stroke:#000000;stroke-width:1;stroke-linecap:butt;stroke-linejoin:round;stroke-miterlimit:4;stroke-dashoffset:0;stroke-opacity:1;marker:none;marker-start:none;marker-mid:none;marker-end:none;visibility:visible;display:inline;overflow:visible;enable-background:accumulate"
       d="M 567.0567,212.03842 L 602.73222,212.03842 L 602.73222,249.33863 L 567.0567,249.33863 L 567.0567,212.03842 z "
       id="rect7040" />
    <path
       transform="matrix(0.474003,0,0,0.4627172,416.1141,183.32379)"
       style="color:#000000;fill:none;fill-opacity:1;fill-rule:evenodd;stroke:#000000;stroke-width:2.13526416;stroke-linecap:butt;stroke-linejoin:round;stroke-miterlimit:4;stroke-dashoffset:0;stroke-opacity:1;marker:none;marker-start:none;marker-mid:none;marker-end:none;visibility:visible;display:inline;overflow:visible;enable-background:accumulate"
       d="M 558,102.36218 C 558,125.54618 539.632,144.36218 517,144.36218 C 494.368,144.36218 476,125.54618 476,102.36218 C 476,79.178183 494.368,60.362183 517,60.362183 C 539.632,60.362183 558,79.178183 558,102.36218 z "
       id="path7042" />
    <path
       style="fill:none;fill-rule:evenodd;stroke:#000000;stroke-width:1;stroke-linecap:butt;stroke-linejoin:miter;stroke-miterlimit:4;stroke-opacity:1;display:inline"
       d="M 602.03494,230.68853 L 641.16399,230.68853"
       id="path7044" />
    <path
       style="fill:none;fill-rule:evenodd;stroke:#000000;stroke-width:1;stroke-linecap:butt;stroke-linejoin:miter;stroke-miterlimit:4;stroke-opacity:1"
       d="M 84.97954,211.53842 L 85.292893,141.00863"
       id="path7046" />
    <path
       style="fill:none;fill-rule:evenodd;stroke:#000000;stroke-width:1;stroke-linecap:butt;stroke-linejoin:miter;stroke-miterlimit:4;stroke-opacity:1"
       d="M 325.13766,211.03842 L 325.29289,141.00863"
       id="path7048" />
    <path
       style="fill:none;fill-rule:evenodd;stroke:#000000;stroke-width:1;stroke-linecap:butt;stroke-linejoin:miter;stroke-miterlimit:4;stroke-opacity:1"
       d="M 491.13766,211.03842 L 491.29289,141.00863"
       id="path7050" />
    <path
       style="fill:none;fill-rule:evenodd;stroke:#000000;stroke-width:1;stroke-linecap:butt;stroke-linejoin:miter;stroke-miterlimit:4;stroke-opacity:1"
       d="M 585.13766,211.03842 L 585.29289,141.00863"
       id="path7052" />
    <path
       style="fill:none;fill-rule:evenodd;stroke:#000000;stroke-width:1;stroke-linecap:butt;stroke-linejoin:miter;stroke-miterlimit:4;stroke-opacity:1"
       d="M 349.13766,141.03842 L 349.29289,69.00863"
       id="path8041" />
    <path
       style="fill:none;fill-rule:evenodd;stroke:#000000;stroke-width:1px;stroke-linecap:butt;stroke-linejoin:miter;stroke-opacity:1"
       d="M 287,97.36218 L 341,41.362183"
       id="path8043" />
    <path
       style="fill:none;fill-rule:evenodd;stroke:#000000;stroke-width:1px;stroke-linecap:butt;stroke-linejoin:miter;stroke-opacity:1"
       d="M 365,97.36218 L 419,41.362183"
       id="path8045" />
    <path
       style="fill:none;fill-rule:evenodd;stroke:#000000;stroke-width:1px;stroke-linecap:butt;stroke-linejoin:miter;stroke-opacity:1"
       d="M 387,255.36218 L 441,199.36218"
       id="path8047" />
    <path
       style="fill:none;fill-rule:evenodd;stroke:#000000;stroke-width:1px;stroke-linecap:butt;stroke-linejoin:miter;stroke-opacity:1"
       d="M 465,255.36218 L 519,199.36218"
       id="path8049" />
    <g
       id="g9102">
      <rect
         style="opacity:1;color:#000000;fill:#000000;fill-opacity:1;fill-rule:evenodd;stroke:#000000;stroke-width:1;stroke-linecap:butt;stroke-linejoin:round;marker:none;marker-start:none;marker-mid:none;marker-end:none;stroke-miterlimit:4;stroke-dasharray:none;stroke-dashoffset:0;stroke-opacity:1;visibility:visible;display:inline;overflow:visible;enable-background:accumulate"
         id="rect7016"
         width="35.675514"
         height="37.300209"
         x="67.056702"
         y="212.03842"
         rx="0"
         ry="0" />
      <path
         style="fill:none;fill-rule:evenodd;stroke:#000000;stroke-width:1px;stroke-linecap:butt;stroke-linejoin:miter;stroke-opacity:1"
         d="M 61,255.36218 L 115,199.36218"
         id="path8051"
         sodipodi:nodetypes="cc" />
    </g>
    <path
       style="fill:none;fill-rule:evenodd;stroke:#000000;stroke-width:1px;stroke-linecap:butt;stroke-linejoin:miter;stroke-opacity:1"
       d="M 139,255.36218 L 193,199.36218"
       id="path8053" />
    <path
       style="fill:none;fill-rule:evenodd;stroke:#000000;stroke-width:1px;stroke-linecap:butt;stroke-linejoin:miter;stroke-opacity:1"
       d="M 227,255.36218 L 281,199.36218"
       id="path8055" />
    <path
       style="fill:none;fill-rule:evenodd;stroke:#000000;stroke-width:1px;stroke-linecap:butt;stroke-linejoin:miter;stroke-opacity:1"
       d="M 305,255.36218 L 359,199.36218"
       id="path8057" />
    <path
       style="fill:none;fill-rule:evenodd;stroke:#000000;stroke-width:1px;stroke-linecap:butt;stroke-linejoin:miter;stroke-opacity:1"
       d="M 561,255.36218 L 615,199.36218"
       id="path8059" />
    <path
       style="fill:none;fill-rule:evenodd;stroke:#000000;stroke-width:1px;stroke-linecap:butt;stroke-linejoin:miter;stroke-opacity:1"
       d="M 639,255.36218 L 693,199.36218"
       id="path8061" />
    <path
       style="fill:none;fill-rule:evenodd;stroke:#000000;stroke-width:1px;stroke-linecap:butt;stroke-linejoin:miter;stroke-opacity:1"
       d="M 122,231.36218 L 122,315.36218"
       id="path8063" />
    <path
       style="fill:none;fill-rule:evenodd;stroke:#000000;stroke-width:1.11511278;stroke-linecap:butt;stroke-linejoin:miter;stroke-miterlimit:4;stroke-opacity:1;display:inline"
       d="M 59.872407,313.98142 L 184.02501,313.98142"
       id="path8065" />
    <path
       style="color:#000000;fill:none;fill-opacity:1;fill-rule:evenodd;stroke:#000000;stroke-width:1;stroke-linecap:butt;stroke-linejoin:round;stroke-miterlimit:4;stroke-dashoffset:0;stroke-opacity:1;marker:none;marker-start:none;marker-mid:none;marker-end:none;visibility:visible;display:inline;overflow:visible;enable-background:accumulate"
       d="M 104.41025,385.59836 L 140.08576,385.59836 L 140.08576,422.89857 L 104.41025,422.89857 L 104.41025,385.59836 z "
       id="rect8067" />
    <path
       transform="matrix(0.474003,0,0,0.4627172,-62.165116,356.88371)"
       style="color:#000000;fill:none;fill-opacity:1;fill-rule:evenodd;stroke:#000000;stroke-width:2.13526416;stroke-linecap:butt;stroke-linejoin:round;stroke-miterlimit:4;stroke-dashoffset:0;stroke-opacity:1;marker:none;marker-start:none;marker-mid:none;marker-end:none;visibility:visible;display:inline;overflow:visible;enable-background:accumulate"
       d="M 558,102.36218 C 558,125.54618 539.632,144.36218 517,144.36218 C 494.368,144.36218 476,125.54618 476,102.36218 C 476,79.178183 494.368,60.362183 517,60.362183 C 539.632,60.362183 558,79.178183 558,102.36218 z "
       id="path8069" />
    <path
       style="color:#000000;fill:#000000;fill-opacity:1;fill-rule:evenodd;stroke:#000000;stroke-width:1;stroke-linecap:butt;stroke-linejoin:round;stroke-miterlimit:4;stroke-dashoffset:0;stroke-opacity:1;marker:none;marker-start:none;marker-mid:none;marker-end:none;visibility:visible;display:inline;overflow:visible;enable-background:accumulate"
       d="M 43.763809,385.59836 L 79.439323,385.59836 L 79.439323,422.89857 L 43.763809,422.89857 L 43.763809,385.59836 z "
       id="rect8077" />
    <path
       style="fill:none;fill-rule:evenodd;stroke:#000000;stroke-width:1;stroke-linecap:butt;stroke-linejoin:miter;stroke-miterlimit:4;stroke-opacity:1"
       d="M 183.71631,384.74404 L 183.62154,313.71425"
       id="path8079" />
    <path
       style="fill:none;fill-rule:evenodd;stroke:#000000;stroke-width:1;stroke-linecap:butt;stroke-linejoin:miter;stroke-miterlimit:4;stroke-opacity:1"
       d="M 121.71631,384.74404 L 121.87154,314.71425"
       id="path8081" />
    <path
       style="fill:none;fill-rule:evenodd;stroke:#000000;stroke-width:1;stroke-linecap:butt;stroke-linejoin:miter;stroke-miterlimit:4;stroke-opacity:1"
       d="M 59.716307,384.74404 L 59.871537,313.71425"
       id="path8083" />
    <path
       style="fill:none;fill-rule:evenodd;stroke:#000000;stroke-width:1px;stroke-linecap:butt;stroke-linejoin:miter;stroke-opacity:1"
       d="M 288,231.36218 L 288,315.36218"
       id="path8087" />
    <path
       style="fill:none;fill-rule:evenodd;stroke:#000000;stroke-width:1.11511278;stroke-linecap:butt;stroke-linejoin:miter;stroke-miterlimit:4;stroke-opacity:1;display:inline"
       d="M 225.87241,313.98142 L 350.02501,313.98142"
       id="path8089" />
    <path
       transform="matrix(0.474003,0,0,0.4627172,103.83488,356.88371)"
       style="color:#000000;fill:none;fill-opacity:1;fill-rule:evenodd;stroke:#000000;stroke-width:2.13526416;stroke-linecap:butt;stroke-linejoin:round;stroke-miterlimit:4;stroke-dashoffset:0;stroke-opacity:1;marker:none;marker-start:none;marker-mid:none;marker-end:none;visibility:visible;display:inline;overflow:visible;enable-background:accumulate"
       d="M 558,102.36218 C 558,125.54618 539.632,144.36218 517,144.36218 C 494.368,144.36218 476,125.54618 476,102.36218 C 476,79.178183 494.368,60.362183 517,60.362183 C 539.632,60.362183 558,79.178183 558,102.36218 z "
       id="path8093" />
    <path
       style="color:#000000;fill:#000000;fill-opacity:1;fill-rule:evenodd;stroke:#000000;stroke-width:1;stroke-linecap:butt;stroke-linejoin:round;stroke-miterlimit:4;stroke-dashoffset:0;stroke-opacity:1;marker:none;marker-start:none;marker-mid:none;marker-end:none;visibility:visible;display:inline;overflow:visible;enable-background:accumulate"
       d="M 209.76381,385.59836 L 245.43932,385.59836 L 245.43932,422.89857 L 209.76381,422.89857 L 209.76381,385.59836 z "
       id="rect8095" />
    <path
       style="fill:none;fill-rule:evenodd;stroke:#000000;stroke-width:1;stroke-linecap:butt;stroke-linejoin:miter;stroke-miterlimit:4;stroke-opacity:1"
       d="M 349.71631,384.74404 L 349.62154,313.71425"
       id="path8097" />
    <path
       style="fill:none;fill-rule:evenodd;stroke:#000000;stroke-width:1;stroke-linecap:butt;stroke-linejoin:miter;stroke-miterlimit:4;stroke-opacity:1"
       d="M 225.71631,384.74404 L 225.87154,313.71425"
       id="path8101" />
    <path
       transform="matrix(0.474003,0,0,0.4627172,205.83488,356.88371)"
       style="color:#000000;fill:none;fill-opacity:1;fill-rule:evenodd;stroke:#000000;stroke-width:2.13526416;stroke-linecap:butt;stroke-linejoin:round;stroke-miterlimit:4;stroke-dashoffset:0;stroke-opacity:1;marker:none;marker-start:none;marker-mid:none;marker-end:none;visibility:visible;display:inline;overflow:visible;enable-background:accumulate"
       d="M 558,102.36218 C 558,125.54618 539.632,144.36218 517,144.36218 C 494.368,144.36218 476,125.54618 476,102.36218 C 476,79.178183 494.368,60.362183 517,60.362183 C 539.632,60.362183 558,79.178183 558,102.36218 z "
       id="path8103" />
    <path
       style="fill:none;fill-rule:evenodd;stroke:#000000;stroke-width:1;stroke-linecap:butt;stroke-linejoin:miter;stroke-miterlimit:4;stroke-opacity:1"
       d="M 451.71631,384.74404 L 451.71631,229.71425"
       id="path8105" />
    <path
       style="fill:none;fill-rule:evenodd;stroke:#000000;stroke-width:1px;stroke-linecap:butt;stroke-linejoin:miter;stroke-opacity:1"
       d="M 622,231.36218 L 622,315.36218"
       id="path8109" />
    <path
       style="fill:none;fill-rule:evenodd;stroke:#000000;stroke-width:1.11511278;stroke-linecap:butt;stroke-linejoin:miter;stroke-miterlimit:4;stroke-opacity:1;display:inline"
       d="M 559.87241,313.98142 L 684.02501,313.98142"
       id="path8111" />
    <path
       style="color:#000000;fill:#000000;fill-opacity:1;fill-rule:evenodd;stroke:#000000;stroke-width:1;stroke-linecap:butt;stroke-linejoin:round;stroke-miterlimit:4;stroke-dashoffset:0;stroke-opacity:1;marker:none;marker-start:none;marker-mid:none;marker-end:none;visibility:visible;display:inline;overflow:visible;enable-background:accumulate"
       d="M 604.41028,385.59839 L 640.08579,385.59839 L 640.08579,422.8986 L 604.41028,422.8986 L 604.41028,385.59839 z "
       id="rect8113" />
    <path
       transform="matrix(0.474003,0,0,0.4627172,437.83488,356.88371)"
       style="color:#000000;fill:none;fill-opacity:1;fill-rule:evenodd;stroke:#000000;stroke-width:2.13526416;stroke-linecap:butt;stroke-linejoin:round;stroke-miterlimit:4;stroke-dashoffset:0;stroke-opacity:1;marker:none;marker-start:none;marker-mid:none;marker-end:none;visibility:visible;display:inline;overflow:visible;enable-background:accumulate"
       d="M 558,102.36218 C 558,125.54618 539.632,144.36218 517,144.36218 C 494.368,144.36218 476,125.54618 476,102.36218 C 476,79.178183 494.368,60.362183 517,60.362183 C 539.632,60.362183 558,79.178183 558,102.36218 z "
       id="path8115" />
    <path
       style="color:#000000;fill:#000000;fill-opacity:1;fill-rule:evenodd;stroke:#000000;stroke-width:1;stroke-linecap:butt;stroke-linejoin:round;stroke-miterlimit:4;stroke-dashoffset:0;stroke-opacity:1;marker:none;marker-start:none;marker-mid:none;marker-end:none;visibility:visible;display:inline;overflow:visible;enable-background:accumulate"
       d="M 543.76379,385.59839 L 579.43931,385.59839 L 579.43931,422.8986 L 543.76379,422.8986 L 543.76379,385.59839 z "
       id="rect8117" />
    <path
       style="fill:none;fill-rule:evenodd;stroke:#000000;stroke-width:1;stroke-linecap:butt;stroke-linejoin:miter;stroke-miterlimit:4;stroke-opacity:1"
       d="M 683.71631,384.74404 L 683.62154,313.71425"
       id="path8119" />
    <path
       style="fill:none;fill-rule:evenodd;stroke:#000000;stroke-width:1;stroke-linecap:butt;stroke-linejoin:miter;stroke-miterlimit:4;stroke-opacity:1"
       d="M 621.71631,384.74404 L 621.87154,314.71425"
       id="path8121" />
    <path
       style="fill:none;fill-rule:evenodd;stroke:#000000;stroke-width:1;stroke-linecap:butt;stroke-linejoin:miter;stroke-miterlimit:4;stroke-opacity:1"
       d="M 559.71631,384.74404 L 559.87154,313.71425"
       id="path8123" />
    <path
       style="fill:none;fill-rule:evenodd;stroke:#000000;stroke-width:1px;stroke-linecap:butt;stroke-linejoin:miter;stroke-opacity:1"
       d="M 595.64823,431.43177 L 649.64823,375.43177"
       id="path8125" />
    <path
       style="color:#000000;fill:#fff6d5;fill-opacity:1;fill-rule:evenodd;stroke:#000000;stroke-width:1.00830817;stroke-linecap:butt;stroke-linejoin:round;stroke-miterlimit:4;stroke-dashoffset:0;stroke-opacity:1;marker:none;marker-start:none;marker-mid:none;marker-end:none;visibility:visible;display:inline;overflow:visible;enable-background:accumulate"
       d="M 2.0041618,452.36636 L 753.9958,452.36636 L 753.9958,606.35803 L 2.0041618,606.35803 L 2.0041618,452.36636 z "
       id="rect8127" />
    <path
       style="color:#000000;fill:#ffffff;fill-opacity:1;fill-rule:evenodd;stroke:#000000;stroke-width:1;stroke-linecap:butt;stroke-linejoin:round;stroke-miterlimit:4;stroke-dashoffset:0;stroke-opacity:1;marker:none;marker-start:none;marker-mid:none;marker-end:none;visibility:visible;display:inline;overflow:visible;enable-background:accumulate"
       d="M 460.9321,470.53842 L 496.60761,470.53842 L 496.60761,507.83863 L 460.9321,507.83863 L 460.9321,470.53842 z "
       id="rect9098" />
    <path
       style="fill:#ffffff;fill-rule:evenodd;stroke:#000000;stroke-width:1px;stroke-linecap:butt;stroke-linejoin:miter;stroke-opacity:1"
       d="M 451.76985,517.36218 L 505.76985,461.36218"
       id="path9100" />
    <path
       style="color:#000000;fill:#000000;fill-opacity:1;fill-rule:evenodd;stroke:#000000;stroke-width:1;stroke-linecap:butt;stroke-linejoin:round;stroke-miterlimit:4;stroke-dashoffset:0;stroke-opacity:1;marker:none;marker-start:none;marker-mid:none;marker-end:none;visibility:visible;display:inline;overflow:visible;enable-background:accumulate"
       d="M 167.23015,470.71207 L 202.90566,470.71207 L 202.90566,508.01228 L 167.23015,508.01228 L 167.23015,470.71207 z "
       id="rect9108" />
    <path
       style="color:#000000;fill:#ffffff;fill-opacity:1;fill-rule:evenodd;stroke:#000000;stroke-width:1;stroke-linecap:butt;stroke-linejoin:round;stroke-miterlimit:4;stroke-dashoffset:0;stroke-opacity:1;marker:none;marker-start:none;marker-mid:none;marker-end:none;visibility:visible;display:inline;overflow:visible;enable-background:accumulate"
       d="M 11.230148,470.71207 L 46.905663,470.71207 L 46.905663,508.01228 L 11.230148,508.01228 L 11.230148,470.71207 z "
       id="rect9116" />
    <path
       transform="matrix(0.474003,0,0,0.4627172,231.88395,525.82379)"
       style="color:#000000;fill:#ffffff;fill-opacity:1;fill-rule:evenodd;stroke:#000000;stroke-width:2.13526416;stroke-linecap:butt;stroke-linejoin:round;stroke-miterlimit:4;stroke-dashoffset:0;stroke-opacity:1;marker:none;marker-start:none;marker-mid:none;marker-end:none;visibility:visible;display:inline;overflow:visible;enable-background:accumulate"
       d="M 558,102.36218 C 558,125.54618 539.632,144.36218 517,144.36218 C 494.368,144.36218 476,125.54618 476,102.36218 C 476,79.178183 494.368,60.362183 517,60.362183 C 539.632,60.362183 558,79.178183 558,102.36218 z "
       id="path9122" />
    <path
       style="fill:#ffffff;fill-rule:evenodd;stroke:#000000;stroke-width:1px;stroke-linecap:butt;stroke-linejoin:miter;stroke-opacity:1"
       d="M 451.76985,601.36218 L 505.76985,545.36218"
       id="path9124" />
    <path
       transform="matrix(0.474003,0,0,0.4627172,-58.39528,525.99744)"
       style="color:#000000;fill:#000000;fill-opacity:1;fill-rule:evenodd;stroke:#000000;stroke-width:2.13526416;stroke-linecap:butt;stroke-linejoin:round;stroke-miterlimit:4;stroke-dashoffset:0;stroke-opacity:1;marker:none;marker-start:none;marker-mid:none;marker-end:none;visibility:visible;display:inline;overflow:visible;enable-background:accumulate"
       d="M 558,102.36218 C 558,125.54618 539.632,144.36218 517,144.36218 C 494.368,144.36218 476,125.54618 476,102.36218 C 476,79.178183 494.368,60.362183 517,60.362183 C 539.632,60.362183 558,79.178183 558,102.36218 z "
       id="path9126" />
    <path
       transform="matrix(0.474003,0,0,0.4627172,-214.39528,525.99744)"
       style="color:#000000;fill:#ffffff;fill-opacity:1;fill-rule:evenodd;stroke:#000000;stroke-width:2.13526416;stroke-linecap:butt;stroke-linejoin:round;stroke-miterlimit:4;stroke-dashoffset:0;stroke-opacity:1;marker:none;marker-start:none;marker-mid:none;marker-end:none;visibility:visible;display:inline;overflow:visible;enable-background:accumulate"
       d="M 558,102.36218 C 558,125.54618 539.632,144.36218 517,144.36218 C 494.368,144.36218 476,125.54618 476,102.36218 C 476,79.178183 494.368,60.362183 517,60.362183 C 539.632,60.362183 558,79.178183 558,102.36218 z "
       id="path9128" />
    <path
       transform="translate(-227.90039,-192.48332)"
       style="font-size:28px"
       d="M 298.56055,679.91093 C 299.18944,678.78073 299.94139,677.94675 300.81641,677.40898 C 301.69139,676.87123 302.72134,676.60235 303.90625,676.60234 C 305.50128,676.60235 306.73175,677.1629 307.59766,678.28398 C 308.46352,679.39597 308.89646,680.9819 308.89648,683.04179 L 308.89648,692.28398 L 306.36719,692.28398 L 306.36719,683.12382 C 306.36717,681.65638 306.1074,680.56719 305.58789,679.85624 C 305.06834,679.14532 304.27537,678.78985 303.20898,678.78984 C 301.90558,678.78985 300.87563,679.22279 300.11914,680.08866 C 299.36261,680.95456 298.98436,682.1349 298.98438,683.62968 L 298.98438,692.28398 L 296.45508,692.28398 L 296.45508,683.12382 C 296.45507,681.64727 296.1953,680.55808 295.67578,679.85624 C 295.15624,679.14532 294.35416,678.78985 293.26953,678.78984 C 291.98437,678.78985 290.96353,679.22735 290.20703,680.10234 C 289.45052,680.96823 289.07226,682.14401 289.07227,683.62968 L 289.07227,692.28398 L 286.54297,692.28398 L 286.54297,676.97148 L 289.07227,676.97148 L 289.07227,679.35038 C 289.64648,678.41159 290.33463,677.71889 291.13672,677.27226 C 291.93879,676.82566 292.89127,676.60235 293.99414,676.60234 C 295.10611,676.60235 296.04947,676.8849 296.82422,677.44999 C 297.60806,678.01511 298.18683,678.83542 298.56055,679.91093 M 320.88672,684.58671 C 318.85416,684.58672 317.44596,684.81914 316.66211,685.28398 C 315.87825,685.74883 315.48632,686.54179 315.48633,687.66288 C 315.48632,688.55612 315.77799,689.26705 316.36133,689.7957 C 316.95377,690.31523 317.75585,690.57499 318.76758,690.57499 C 320.1621,690.57499 321.27864,690.08281 322.11719,689.09843 C 322.96483,688.10494 323.38866,686.78789 323.38867,685.14726 L 323.38867,684.58671 L 320.88672,684.58671 M 325.9043,683.54765 L 325.9043,692.28398 L 323.38867,692.28398 L 323.38867,689.95976 C 322.81444,690.88945 322.09895,691.5776 321.24219,692.02421 C 320.38541,692.46171 319.33723,692.68046 318.09766,692.68046 C 316.52994,692.68046 315.28125,692.24296 314.35156,691.36796 C 313.43099,690.48385 312.9707,689.30351 312.9707,687.82695 C 312.9707,686.1043 313.54492,684.80547 314.69336,683.93046 C 315.85091,683.05547 317.57356,682.61797 319.86133,682.61796 L 323.38867,682.61796 L 323.38867,682.37187 C 323.38866,681.21433 323.00585,680.3211 322.24023,679.69218 C 321.48371,679.05417 320.41731,678.73516 319.04102,678.73515 C 318.16601,678.73516 317.3138,678.83998 316.48438,679.0496 C 315.65494,679.25925 314.85742,679.5737 314.0918,679.99296 L 314.0918,677.66874 C 315.01237,677.31329 315.90559,677.04897 316.77148,676.87577 C 317.63736,676.6935 318.48046,676.60235 319.30078,676.60234 C 321.51561,676.60235 323.16991,677.17657 324.26367,678.32499 C 325.35741,679.47344 325.90428,681.21433 325.9043,683.54765 M 331.09961,671.01054 L 333.61523,671.01054 L 333.61523,692.28398 L 331.09961,692.28398 L 331.09961,671.01054 M 351.96289,683.99882 L 351.96289,685.22929 L 340.39648,685.22929 C 340.50586,686.96107 341.02539,688.28268 341.95508,689.19413 C 342.89387,690.09648 344.19726,690.54765 345.86523,690.54765 C 346.83137,690.54765 347.76561,690.42916 348.66797,690.19218 C 349.57941,689.9552 350.48176,689.59973 351.375,689.12577 L 351.375,691.50468 C 350.47264,691.88749 349.54751,692.17916 348.59961,692.37968 C 347.65168,692.5802 346.69009,692.68046 345.71484,692.68046 C 343.27213,692.68046 341.33528,691.96952 339.9043,690.54765 C 338.48242,689.12578 337.77148,687.2026 337.77148,684.77812 C 337.77148,682.27162 338.44596,680.28464 339.79492,678.81718 C 341.15299,677.34063 342.98046,676.60235 345.27734,676.60234 C 347.33723,676.60235 348.96418,677.26772 350.1582,678.59843 C 351.36131,679.92006 351.96287,681.72018 351.96289,683.99882 M 349.44727,683.26054 C 349.42902,681.88425 349.04165,680.78594 348.28516,679.96562 C 347.53775,679.14532 346.54426,678.73516 345.30469,678.73515 C 343.90103,678.73516 342.77538,679.13165 341.92773,679.9246 C 341.08919,680.71758 340.60612,681.83412 340.47852,683.27421 L 349.44727,683.26054"
       id="flowRoot9146" />
    <path
       transform="translate(-226,-108.48332)"
       style="font-size:28px"
       d="M 294.39062,671.01054 L 294.39062,673.10234 L 291.98438,673.10234 C 291.08202,673.10236 290.45312,673.28465 290.09766,673.64921 C 289.7513,674.01381 289.57812,674.67006 289.57812,675.61796 L 289.57812,676.97148 L 293.7207,676.97148 L 293.7207,678.92655 L 289.57812,678.92655 L 289.57812,692.28398 L 287.04883,692.28398 L 287.04883,678.92655 L 284.64258,678.92655 L 284.64258,676.97148 L 287.04883,676.97148 L 287.04883,675.90507 C 287.04883,674.20066 287.44531,672.96108 288.23828,672.18632 C 289.03124,671.40249 290.28906,671.01056 292.01172,671.01054 L 294.39062,671.01054 M 309.58008,683.99882 L 309.58008,685.22929 L 298.01367,685.22929 C 298.12304,686.96107 298.64257,688.28268 299.57227,689.19413 C 300.51106,690.09648 301.81445,690.54765 303.48242,690.54765 C 304.44856,690.54765 305.3828,690.42916 306.28516,690.19218 C 307.1966,689.9552 308.09894,689.59973 308.99219,689.12577 L 308.99219,691.50468 C 308.08983,691.88749 307.1647,692.17916 306.2168,692.37968 C 305.26887,692.5802 304.30728,692.68046 303.33203,692.68046 C 300.88932,692.68046 298.95247,691.96952 297.52148,690.54765 C 296.09961,689.12578 295.38867,687.2026 295.38867,684.77812 C 295.38867,682.27162 296.06315,680.28464 297.41211,678.81718 C 298.77018,677.34063 300.59765,676.60235 302.89453,676.60234 C 304.95442,676.60235 306.58137,677.26772 307.77539,678.59843 C 308.9785,679.92006 309.58006,681.72018 309.58008,683.99882 M 307.06445,683.26054 C 307.04621,681.88425 306.65884,680.78594 305.90234,679.96562 C 305.15494,679.14532 304.16145,678.73516 302.92188,678.73515 C 301.51822,678.73516 300.39257,679.13165 299.54492,679.9246 C 298.70638,680.71758 298.2233,681.83412 298.0957,683.27421 L 307.06445,683.26054 M 325.63086,679.91093 C 326.25975,678.78073 327.0117,677.94675 327.88672,677.40898 C 328.7617,676.87123 329.79165,676.60235 330.97656,676.60234 C 332.57159,676.60235 333.80206,677.1629 334.66797,678.28398 C 335.53383,679.39597 335.96677,680.9819 335.9668,683.04179 L 335.9668,692.28398 L 333.4375,692.28398 L 333.4375,683.12382 C 333.43748,681.65638 333.17771,680.56719 332.6582,679.85624 C 332.13865,679.14532 331.34568,678.78985 330.2793,678.78984 C 328.97589,678.78985 327.94595,679.22279 327.18945,680.08866 C 326.43293,680.95456 326.05467,682.1349 326.05469,683.62968 L 326.05469,692.28398 L 323.52539,692.28398 L 323.52539,683.12382 C 323.52538,681.64727 323.26561,680.55808 322.74609,679.85624 C 322.22655,679.14532 321.42447,678.78985 320.33984,678.78984 C 319.05468,678.78985 318.03385,679.22735 317.27734,680.10234 C 316.52083,680.96823 316.14257,682.14401 316.14258,683.62968 L 316.14258,692.28398 L 313.61328,692.28398 L 313.61328,676.97148 L 316.14258,676.97148 L 316.14258,679.35038 C 316.71679,678.41159 317.40494,677.71889 318.20703,677.27226 C 319.00911,676.82566 319.96158,676.60235 321.06445,676.60234 C 322.17642,676.60235 323.11978,676.8849 323.89453,677.44999 C 324.67837,678.01511 325.25715,678.83542 325.63086,679.91093 M 347.95703,684.58671 C 345.92447,684.58672 344.51627,684.81914 343.73242,685.28398 C 342.94856,685.74883 342.55664,686.54179 342.55664,687.66288 C 342.55664,688.55612 342.8483,689.26705 343.43164,689.7957 C 344.02408,690.31523 344.82617,690.57499 345.83789,690.57499 C 347.23241,690.57499 348.34895,690.08281 349.1875,689.09843 C 350.03514,688.10494 350.45897,686.78789 350.45898,685.14726 L 350.45898,684.58671 L 347.95703,684.58671 M 352.97461,683.54765 L 352.97461,692.28398 L 350.45898,692.28398 L 350.45898,689.95976 C 349.88475,690.88945 349.16926,691.5776 348.3125,692.02421 C 347.45572,692.46171 346.40754,692.68046 345.16797,692.68046 C 343.60026,692.68046 342.35156,692.24296 341.42188,691.36796 C 340.5013,690.48385 340.04101,689.30351 340.04102,687.82695 C 340.04101,686.1043 340.61523,684.80547 341.76367,683.93046 C 342.92122,683.05547 344.64387,682.61797 346.93164,682.61796 L 350.45898,682.61796 L 350.45898,682.37187 C 350.45897,681.21433 350.07616,680.3211 349.31055,679.69218 C 348.55403,679.05417 347.48762,678.73516 346.11133,678.73515 C 345.23632,678.73516 344.38411,678.83998 343.55469,679.0496 C 342.72526,679.25925 341.92773,679.5737 341.16211,679.99296 L 341.16211,677.66874 C 342.08268,677.31329 342.97591,677.04897 343.8418,676.87577 C 344.70768,676.6935 345.55077,676.60235 346.37109,676.60234 C 348.58593,676.60235 350.24022,677.17657 351.33398,678.32499 C 352.42772,679.47344 352.97459,681.21433 352.97461,683.54765 M 358.16992,671.01054 L 360.68555,671.01054 L 360.68555,692.28398 L 358.16992,692.28398 L 358.16992,671.01054 M 379.0332,683.99882 L 379.0332,685.22929 L 367.4668,685.22929 C 367.57617,686.96107 368.0957,688.28268 369.02539,689.19413 C 369.96419,690.09648 371.26757,690.54765 372.93555,690.54765 C 373.90168,690.54765 374.83593,690.42916 375.73828,690.19218 C 376.64973,689.9552 377.55207,689.59973 378.44531,689.12577 L 378.44531,691.50468 C 377.54295,691.88749 376.61783,692.17916 375.66992,692.37968 C 374.72199,692.5802 373.76041,692.68046 372.78516,692.68046 C 370.34244,692.68046 368.40559,691.96952 366.97461,690.54765 C 365.55273,689.12578 364.8418,687.2026 364.8418,684.77812 C 364.8418,682.27162 365.51627,680.28464 366.86523,678.81718 C 368.2233,677.34063 370.05077,676.60235 372.34766,676.60234 C 374.40754,676.60235 376.03449,677.26772 377.22852,678.59843 C 378.43163,679.92006 379.03319,681.72018 379.0332,683.99882 M 376.51758,683.26054 C 376.49934,681.88425 376.11197,680.78594 375.35547,679.96562 C 374.60806,679.14532 373.61457,678.73516 372.375,678.73515 C 370.97135,678.73516 369.8457,679.13165 368.99805,679.9246 C 368.1595,680.71758 367.67643,681.83412 367.54883,683.27421 L 376.51758,683.26054"
       id="flowRoot9154" />
    <path
       transform="translate(-70,-192.48332)"
       style="font-size:28px"
       d="M 293.59766,684.58671 C 291.5651,684.58672 290.15689,684.81914 289.37305,685.28398 C 288.58919,685.74883 288.19726,686.54179 288.19727,687.66288 C 288.19726,688.55612 288.48893,689.26705 289.07227,689.7957 C 289.66471,690.31523 290.46679,690.57499 291.47852,690.57499 C 292.87304,690.57499 293.98957,690.08281 294.82812,689.09843 C 295.67577,688.10494 296.0996,686.78789 296.09961,685.14726 L 296.09961,684.58671 L 293.59766,684.58671 M 298.61523,683.54765 L 298.61523,692.28398 L 296.09961,692.28398 L 296.09961,689.95976 C 295.52538,690.88945 294.80989,691.5776 293.95312,692.02421 C 293.09635,692.46171 292.04817,692.68046 290.80859,692.68046 C 289.24088,692.68046 287.99218,692.24296 287.0625,691.36796 C 286.14192,690.48385 285.68164,689.30351 285.68164,687.82695 C 285.68164,686.1043 286.25586,684.80547 287.4043,683.93046 C 288.56184,683.05547 290.2845,682.61797 292.57227,682.61796 L 296.09961,682.61796 L 296.09961,682.37187 C 296.0996,681.21433 295.71679,680.3211 294.95117,679.69218 C 294.19465,679.05417 293.12825,678.73516 291.75195,678.73515 C 290.87695,678.73516 290.02473,678.83998 289.19531,679.0496 C 288.36588,679.25925 287.56836,679.5737 286.80273,679.99296 L 286.80273,677.66874 C 287.7233,677.31329 288.61653,677.04897 289.48242,676.87577 C 290.3483,676.6935 291.1914,676.60235 292.01172,676.60234 C 294.22655,676.60235 295.88085,677.17657 296.97461,678.32499 C 298.06835,679.47344 298.61522,681.21433 298.61523,683.54765 M 311.5625,671.01054 L 311.5625,673.10234 L 309.15625,673.10234 C 308.2539,673.10236 307.62499,673.28465 307.26953,673.64921 C 306.92317,674.01381 306.74999,674.67006 306.75,675.61796 L 306.75,676.97148 L 310.89258,676.97148 L 310.89258,678.92655 L 306.75,678.92655 L 306.75,692.28398 L 304.2207,692.28398 L 304.2207,678.92655 L 301.81445,678.92655 L 301.81445,676.97148 L 304.2207,676.97148 L 304.2207,675.90507 C 304.2207,674.20066 304.61718,672.96108 305.41016,672.18632 C 306.20312,671.40249 307.46093,671.01056 309.18359,671.01054 L 311.5625,671.01054 M 321.40625,671.01054 L 321.40625,673.10234 L 319,673.10234 C 318.09765,673.10236 317.46874,673.28465 317.11328,673.64921 C 316.76692,674.01381 316.59374,674.67006 316.59375,675.61796 L 316.59375,676.97148 L 320.73633,676.97148 L 320.73633,678.92655 L 316.59375,678.92655 L 316.59375,692.28398 L 314.06445,692.28398 L 314.06445,678.92655 L 311.6582,678.92655 L 311.6582,676.97148 L 314.06445,676.97148 L 314.06445,675.90507 C 314.06445,674.20066 314.46093,672.96108 315.25391,672.18632 C 316.04687,671.40249 317.30468,671.01056 319.02734,671.01054 L 321.40625,671.01054 M 336.5957,683.99882 L 336.5957,685.22929 L 325.0293,685.22929 C 325.13867,686.96107 325.6582,688.28268 326.58789,689.19413 C 327.52669,690.09648 328.83007,690.54765 330.49805,690.54765 C 331.46418,690.54765 332.39843,690.42916 333.30078,690.19218 C 334.21223,689.9552 335.11457,689.59973 336.00781,689.12577 L 336.00781,691.50468 C 335.10545,691.88749 334.18033,692.17916 333.23242,692.37968 C 332.28449,692.5802 331.32291,692.68046 330.34766,692.68046 C 327.90494,692.68046 325.96809,691.96952 324.53711,690.54765 C 323.11523,689.12578 322.4043,687.2026 322.4043,684.77812 C 322.4043,682.27162 323.07877,680.28464 324.42773,678.81718 C 325.7858,677.34063 327.61327,676.60235 329.91016,676.60234 C 331.97004,676.60235 333.59699,677.26772 334.79102,678.59843 C 335.99413,679.92006 336.59569,681.72018 336.5957,683.99882 M 334.08008,683.26054 C 334.06184,681.88425 333.67447,680.78594 332.91797,679.96562 C 332.17056,679.14532 331.17707,678.73516 329.9375,678.73515 C 328.53385,678.73516 327.4082,679.13165 326.56055,679.9246 C 325.722,680.71758 325.23893,681.83412 325.11133,683.27421 L 334.08008,683.26054 M 351.74414,677.55937 L 351.74414,679.91093 C 351.03319,679.51902 350.3177,679.22735 349.59766,679.03593 C 348.88671,678.83542 348.16666,678.73516 347.4375,678.73515 C 345.80598,678.73516 344.53906,679.25469 343.63672,680.29374 C 342.73437,681.3237 342.2832,682.77292 342.2832,684.6414 C 342.2832,686.50989 342.73437,687.96367 343.63672,689.00273 C 344.53906,690.03268 345.80598,690.54765 347.4375,690.54765 C 348.16666,690.54765 348.88671,690.45195 349.59766,690.26054 C 350.3177,690.06002 351.03319,689.7638 351.74414,689.37187 L 351.74414,691.69609 C 351.0423,692.02421 350.31314,692.2703 349.55664,692.43437 C 348.80923,692.59843 348.01171,692.68046 347.16406,692.68046 C 344.85807,692.68046 343.02604,691.95585 341.66797,690.50663 C 340.30989,689.05742 339.63086,687.10234 339.63086,684.6414 C 339.63086,682.14401 340.31445,680.17982 341.68164,678.74882 C 343.05794,677.31785 344.9401,676.60235 347.32812,676.60234 C 348.10285,676.60235 348.85936,676.68438 349.59766,676.84843 C 350.33593,677.00339 351.05142,677.24037 351.74414,677.55937 M 358.63477,672.62382 L 358.63477,676.97148 L 363.81641,676.97148 L 363.81641,678.92655 L 358.63477,678.92655 L 358.63477,687.23905 C 358.63476,688.48776 358.80338,689.28984 359.14062,689.6453 C 359.48697,690.00078 360.18424,690.17851 361.23242,690.17851 L 363.81641,690.17851 L 363.81641,692.28398 L 361.23242,692.28398 C 359.29101,692.28398 357.95117,691.92395 357.21289,691.2039 C 356.47461,690.47473 356.10547,689.15312 356.10547,687.23905 L 356.10547,678.92655 L 354.25977,678.92655 L 354.25977,676.97148 L 356.10547,676.97148 L 356.10547,672.62382 L 358.63477,672.62382 M 380.23633,683.99882 L 380.23633,685.22929 L 368.66992,685.22929 C 368.77929,686.96107 369.29882,688.28268 370.22852,689.19413 C 371.16731,690.09648 372.4707,690.54765 374.13867,690.54765 C 375.10481,690.54765 376.03905,690.42916 376.94141,690.19218 C 377.85285,689.9552 378.75519,689.59973 379.64844,689.12577 L 379.64844,691.50468 C 378.74608,691.88749 377.82095,692.17916 376.87305,692.37968 C 375.92512,692.5802 374.96353,692.68046 373.98828,692.68046 C 371.54557,692.68046 369.60872,691.96952 368.17773,690.54765 C 366.75586,689.12578 366.04492,687.2026 366.04492,684.77812 C 366.04492,682.27162 366.7194,680.28464 368.06836,678.81718 C 369.42643,677.34063 371.2539,676.60235 373.55078,676.60234 C 375.61067,676.60235 377.23762,677.26772 378.43164,678.59843 C 379.63475,679.92006 380.23631,681.72018 380.23633,683.99882 M 377.7207,683.26054 C 377.70246,681.88425 377.31509,680.78594 376.55859,679.96562 C 375.81119,679.14532 374.8177,678.73516 373.57812,678.73515 C 372.17447,678.73516 371.04882,679.13165 370.20117,679.9246 C 369.36263,680.71758 368.87955,681.83412 368.75195,683.27421 L 377.7207,683.26054 M 394.44141,679.2957 L 394.44141,671.01054 L 396.95703,671.01054 L 396.95703,692.28398 L 394.44141,692.28398 L 394.44141,689.9871 C 393.91275,690.89856 393.24283,691.5776 392.43164,692.02421 C 391.62955,692.46171 390.6634,692.68046 389.5332,692.68046 C 387.68294,692.68046 386.17447,691.94218 385.00781,690.46562 C 383.85026,688.98906 383.27148,687.04765 383.27148,684.6414 C 383.27148,682.23516 383.85026,680.29375 385.00781,678.81718 C 386.17447,677.34063 387.68294,676.60235 389.5332,676.60234 C 390.6634,676.60235 391.62955,676.82566 392.43164,677.27226 C 393.24283,677.70977 393.91275,678.38425 394.44141,679.2957 M 385.86914,684.6414 C 385.86914,686.49166 386.24739,687.94544 387.00391,689.00273 C 387.76953,690.05091 388.8177,690.57499 390.14844,690.57499 C 391.47916,690.57499 392.52733,690.05091 393.29297,689.00273 C 394.05858,687.94544 394.44139,686.49166 394.44141,684.6414 C 394.44139,682.79115 394.05858,681.34193 393.29297,680.29374 C 392.52733,679.23646 391.47916,678.70782 390.14844,678.7078 C 388.8177,678.70782 387.76953,679.23646 387.00391,680.29374 C 386.24739,681.34193 385.86914,682.79115 385.86914,684.6414 M 422.97461,679.91093 C 423.6035,678.78073 424.35545,677.94675 425.23047,677.40898 C 426.10545,676.87123 427.1354,676.60235 428.32031,676.60234 C 429.91534,676.60235 431.14581,677.1629 432.01172,678.28398 C 432.87758,679.39597 433.31052,680.9819 433.31055,683.04179 L 433.31055,692.28398 L 430.78125,692.28398 L 430.78125,683.12382 C 430.78123,681.65638 430.52146,680.56719 430.00195,679.85624 C 429.4824,679.14532 428.68943,678.78985 427.62305,678.78984 C 426.31964,678.78985 425.2897,679.22279 424.5332,680.08866 C 423.77668,680.95456 423.39842,682.1349 423.39844,683.62968 L 423.39844,692.28398 L 420.86914,692.28398 L 420.86914,683.12382 C 420.86913,681.64727 420.60936,680.55808 420.08984,679.85624 C 419.5703,679.14532 418.76822,678.78985 417.68359,678.78984 C 416.39843,678.78985 415.3776,679.22735 414.62109,680.10234 C 413.86458,680.96823 413.48632,682.14401 413.48633,683.62968 L 413.48633,692.28398 L 410.95703,692.28398 L 410.95703,676.97148 L 413.48633,676.97148 L 413.48633,679.35038 C 414.06054,678.41159 414.74869,677.71889 415.55078,677.27226 C 416.35286,676.82566 417.30533,676.60235 418.4082,676.60234 C 419.52017,676.60235 420.46353,676.8849 421.23828,677.44999 C 422.02212,678.01511 422.6009,678.83542 422.97461,679.91093 M 445.30078,684.58671 C 443.26822,684.58672 441.86002,684.81914 441.07617,685.28398 C 440.29231,685.74883 439.90039,686.54179 439.90039,687.66288 C 439.90039,688.55612 440.19205,689.26705 440.77539,689.7957 C 441.36783,690.31523 442.16992,690.57499 443.18164,690.57499 C 444.57616,690.57499 445.6927,690.08281 446.53125,689.09843 C 447.37889,688.10494 447.80272,686.78789 447.80273,685.14726 L 447.80273,684.58671 L 445.30078,684.58671 M 450.31836,683.54765 L 450.31836,692.28398 L 447.80273,692.28398 L 447.80273,689.95976 C 447.2285,690.88945 446.51301,691.5776 445.65625,692.02421 C 444.79947,692.46171 443.75129,692.68046 442.51172,692.68046 C 440.94401,692.68046 439.69531,692.24296 438.76562,691.36796 C 437.84505,690.48385 437.38476,689.30351 437.38477,687.82695 C 437.38476,686.1043 437.95898,684.80547 439.10742,683.93046 C 440.26497,683.05547 441.98762,682.61797 444.27539,682.61796 L 447.80273,682.61796 L 447.80273,682.37187 C 447.80272,681.21433 447.41991,680.3211 446.6543,679.69218 C 445.89778,679.05417 444.83137,678.73516 443.45508,678.73515 C 442.58007,678.73516 441.72786,678.83998 440.89844,679.0496 C 440.06901,679.25925 439.27148,679.5737 438.50586,679.99296 L 438.50586,677.66874 C 439.42643,677.31329 440.31966,677.04897 441.18555,676.87577 C 442.05143,676.6935 442.89452,676.60235 443.71484,676.60234 C 445.92968,676.60235 447.58397,677.17657 448.67773,678.32499 C 449.77147,679.47344 450.31834,681.21433 450.31836,683.54765 M 455.51367,671.01054 L 458.0293,671.01054 L 458.0293,692.28398 L 455.51367,692.28398 L 455.51367,671.01054 M 476.37695,683.99882 L 476.37695,685.22929 L 464.81055,685.22929 C 464.91992,686.96107 465.43945,688.28268 466.36914,689.19413 C 467.30794,690.09648 468.61132,690.54765 470.2793,690.54765 C 471.24543,690.54765 472.17968,690.42916 473.08203,690.19218 C 473.99348,689.9552 474.89582,689.59973 475.78906,689.12577 L 475.78906,691.50468 C 474.8867,691.88749 473.96158,692.17916 473.01367,692.37968 C 472.06574,692.5802 471.10416,692.68046 470.12891,692.68046 C 467.68619,692.68046 465.74934,691.96952 464.31836,690.54765 C 462.89648,689.12578 462.18555,687.2026 462.18555,684.77812 C 462.18555,682.27162 462.86002,680.28464 464.20898,678.81718 C 465.56705,677.34063 467.39452,676.60235 469.69141,676.60234 C 471.75129,676.60235 473.37824,677.26772 474.57227,678.59843 C 475.77538,679.92006 476.37694,681.72018 476.37695,683.99882 M 473.86133,683.26054 C 473.84309,681.88425 473.45572,680.78594 472.69922,679.96562 C 471.95181,679.14532 470.95832,678.73516 469.71875,678.73515 C 468.3151,678.73516 467.18945,679.13165 466.3418,679.9246 C 465.50325,680.71758 465.02018,681.83412 464.89258,683.27421 L 473.86133,683.26054"
       id="flowRoot9162" />
    <path
       transform="translate(-70,-108.48332)"
       style="font-size:28px"
       d="M 293.59766,684.58671 C 291.5651,684.58672 290.15689,684.81914 289.37305,685.28398 C 288.58919,685.74883 288.19726,686.54179 288.19727,687.66288 C 288.19726,688.55612 288.48893,689.26705 289.07227,689.7957 C 289.66471,690.31523 290.46679,690.57499 291.47852,690.57499 C 292.87304,690.57499 293.98957,690.08281 294.82812,689.09843 C 295.67577,688.10494 296.0996,686.78789 296.09961,685.14726 L 296.09961,684.58671 L 293.59766,684.58671 M 298.61523,683.54765 L 298.61523,692.28398 L 296.09961,692.28398 L 296.09961,689.95976 C 295.52538,690.88945 294.80989,691.5776 293.95312,692.02421 C 293.09635,692.46171 292.04817,692.68046 290.80859,692.68046 C 289.24088,692.68046 287.99218,692.24296 287.0625,691.36796 C 286.14192,690.48385 285.68164,689.30351 285.68164,687.82695 C 285.68164,686.1043 286.25586,684.80547 287.4043,683.93046 C 288.56184,683.05547 290.2845,682.61797 292.57227,682.61796 L 296.09961,682.61796 L 296.09961,682.37187 C 296.0996,681.21433 295.71679,680.3211 294.95117,679.69218 C 294.19465,679.05417 293.12825,678.73516 291.75195,678.73515 C 290.87695,678.73516 290.02473,678.83998 289.19531,679.0496 C 288.36588,679.25925 287.56836,679.5737 286.80273,679.99296 L 286.80273,677.66874 C 287.7233,677.31329 288.61653,677.04897 289.48242,676.87577 C 290.3483,676.6935 291.1914,676.60235 292.01172,676.60234 C 294.22655,676.60235 295.88085,677.17657 296.97461,678.32499 C 298.06835,679.47344 298.61522,681.21433 298.61523,683.54765 M 311.5625,671.01054 L 311.5625,673.10234 L 309.15625,673.10234 C 308.2539,673.10236 307.62499,673.28465 307.26953,673.64921 C 306.92317,674.01381 306.74999,674.67006 306.75,675.61796 L 306.75,676.97148 L 310.89258,676.97148 L 310.89258,678.92655 L 306.75,678.92655 L 306.75,692.28398 L 304.2207,692.28398 L 304.2207,678.92655 L 301.81445,678.92655 L 301.81445,676.97148 L 304.2207,676.97148 L 304.2207,675.90507 C 304.2207,674.20066 304.61718,672.96108 305.41016,672.18632 C 306.20312,671.40249 307.46093,671.01056 309.18359,671.01054 L 311.5625,671.01054 M 321.40625,671.01054 L 321.40625,673.10234 L 319,673.10234 C 318.09765,673.10236 317.46874,673.28465 317.11328,673.64921 C 316.76692,674.01381 316.59374,674.67006 316.59375,675.61796 L 316.59375,676.97148 L 320.73633,676.97148 L 320.73633,678.92655 L 316.59375,678.92655 L 316.59375,692.28398 L 314.06445,692.28398 L 314.06445,678.92655 L 311.6582,678.92655 L 311.6582,676.97148 L 314.06445,676.97148 L 314.06445,675.90507 C 314.06445,674.20066 314.46093,672.96108 315.25391,672.18632 C 316.04687,671.40249 317.30468,671.01056 319.02734,671.01054 L 321.40625,671.01054 M 336.5957,683.99882 L 336.5957,685.22929 L 325.0293,685.22929 C 325.13867,686.96107 325.6582,688.28268 326.58789,689.19413 C 327.52669,690.09648 328.83007,690.54765 330.49805,690.54765 C 331.46418,690.54765 332.39843,690.42916 333.30078,690.19218 C 334.21223,689.9552 335.11457,689.59973 336.00781,689.12577 L 336.00781,691.50468 C 335.10545,691.88749 334.18033,692.17916 333.23242,692.37968 C 332.28449,692.5802 331.32291,692.68046 330.34766,692.68046 C 327.90494,692.68046 325.96809,691.96952 324.53711,690.54765 C 323.11523,689.12578 322.4043,687.2026 322.4043,684.77812 C 322.4043,682.27162 323.07877,680.28464 324.42773,678.81718 C 325.7858,677.34063 327.61327,676.60235 329.91016,676.60234 C 331.97004,676.60235 333.59699,677.26772 334.79102,678.59843 C 335.99413,679.92006 336.59569,681.72018 336.5957,683.99882 M 334.08008,683.26054 C 334.06184,681.88425 333.67447,680.78594 332.91797,679.96562 C 332.17056,679.14532 331.17707,678.73516 329.9375,678.73515 C 328.53385,678.73516 327.4082,679.13165 326.56055,679.9246 C 325.722,680.71758 325.23893,681.83412 325.11133,683.27421 L 334.08008,683.26054 M 351.74414,677.55937 L 351.74414,679.91093 C 351.03319,679.51902 350.3177,679.22735 349.59766,679.03593 C 348.88671,678.83542 348.16666,678.73516 347.4375,678.73515 C 345.80598,678.73516 344.53906,679.25469 343.63672,680.29374 C 342.73437,681.3237 342.2832,682.77292 342.2832,684.6414 C 342.2832,686.50989 342.73437,687.96367 343.63672,689.00273 C 344.53906,690.03268 345.80598,690.54765 347.4375,690.54765 C 348.16666,690.54765 348.88671,690.45195 349.59766,690.26054 C 350.3177,690.06002 351.03319,689.7638 351.74414,689.37187 L 351.74414,691.69609 C 351.0423,692.02421 350.31314,692.2703 349.55664,692.43437 C 348.80923,692.59843 348.01171,692.68046 347.16406,692.68046 C 344.85807,692.68046 343.02604,691.95585 341.66797,690.50663 C 340.30989,689.05742 339.63086,687.10234 339.63086,684.6414 C 339.63086,682.14401 340.31445,680.17982 341.68164,678.74882 C 343.05794,677.31785 344.9401,676.60235 347.32812,676.60234 C 348.10285,676.60235 348.85936,676.68438 349.59766,676.84843 C 350.33593,677.00339 351.05142,677.24037 351.74414,677.55937 M 358.63477,672.62382 L 358.63477,676.97148 L 363.81641,676.97148 L 363.81641,678.92655 L 358.63477,678.92655 L 358.63477,687.23905 C 358.63476,688.48776 358.80338,689.28984 359.14062,689.6453 C 359.48697,690.00078 360.18424,690.17851 361.23242,690.17851 L 363.81641,690.17851 L 363.81641,692.28398 L 361.23242,692.28398 C 359.29101,692.28398 357.95117,691.92395 357.21289,691.2039 C 356.47461,690.47473 356.10547,689.15312 356.10547,687.23905 L 356.10547,678.92655 L 354.25977,678.92655 L 354.25977,676.97148 L 356.10547,676.97148 L 356.10547,672.62382 L 358.63477,672.62382 M 380.23633,683.99882 L 380.23633,685.22929 L 368.66992,685.22929 C 368.77929,686.96107 369.29882,688.28268 370.22852,689.19413 C 371.16731,690.09648 372.4707,690.54765 374.13867,690.54765 C 375.10481,690.54765 376.03905,690.42916 376.94141,690.19218 C 377.85285,689.9552 378.75519,689.59973 379.64844,689.12577 L 379.64844,691.50468 C 378.74608,691.88749 377.82095,692.17916 376.87305,692.37968 C 375.92512,692.5802 374.96353,692.68046 373.98828,692.68046 C 371.54557,692.68046 369.60872,691.96952 368.17773,690.54765 C 366.75586,689.12578 366.04492,687.2026 366.04492,684.77812 C 366.04492,682.27162 366.7194,680.28464 368.06836,678.81718 C 369.42643,677.34063 371.2539,676.60235 373.55078,676.60234 C 375.61067,676.60235 377.23762,677.26772 378.43164,678.59843 C 379.63475,679.92006 380.23631,681.72018 380.23633,683.99882 M 377.7207,683.26054 C 377.70246,681.88425 377.31509,680.78594 376.55859,679.96562 C 375.81119,679.14532 374.8177,678.73516 373.57812,678.73515 C 372.17447,678.73516 371.04882,679.13165 370.20117,679.9246 C 369.36263,680.71758 368.87955,681.83412 368.75195,683.27421 L 377.7207,683.26054 M 394.44141,679.2957 L 394.44141,671.01054 L 396.95703,671.01054 L 396.95703,692.28398 L 394.44141,692.28398 L 394.44141,689.9871 C 393.91275,690.89856 393.24283,691.5776 392.43164,692.02421 C 391.62955,692.46171 390.6634,692.68046 389.5332,692.68046 C 387.68294,692.68046 386.17447,691.94218 385.00781,690.46562 C 383.85026,688.98906 383.27148,687.04765 383.27148,684.6414 C 383.27148,682.23516 383.85026,680.29375 385.00781,678.81718 C 386.17447,677.34063 387.68294,676.60235 389.5332,676.60234 C 390.6634,676.60235 391.62955,676.82566 392.43164,677.27226 C 393.24283,677.70977 393.91275,678.38425 394.44141,679.2957 M 385.86914,684.6414 C 385.86914,686.49166 386.24739,687.94544 387.00391,689.00273 C 387.76953,690.05091 388.8177,690.57499 390.14844,690.57499 C 391.47916,690.57499 392.52733,690.05091 393.29297,689.00273 C 394.05858,687.94544 394.44139,686.49166 394.44141,684.6414 C 394.44139,682.79115 394.05858,681.34193 393.29297,680.29374 C 392.52733,679.23646 391.47916,678.70782 390.14844,678.7078 C 388.8177,678.70782 387.76953,679.23646 387.00391,680.29374 C 386.24739,681.34193 385.86914,682.79115 385.86914,684.6414 M 418.80469,671.01054 L 418.80469,673.10234 L 416.39844,673.10234 C 415.49609,673.10236 414.86718,673.28465 414.51172,673.64921 C 414.16536,674.01381 413.99218,674.67006 413.99219,675.61796 L 413.99219,676.97148 L 418.13477,676.97148 L 418.13477,678.92655 L 413.99219,678.92655 L 413.99219,692.28398 L 411.46289,692.28398 L 411.46289,678.92655 L 409.05664,678.92655 L 409.05664,676.97148 L 411.46289,676.97148 L 411.46289,675.90507 C 411.46289,674.20066 411.85937,672.96108 412.65234,672.18632 C 413.44531,671.40249 414.70312,671.01056 416.42578,671.01054 L 418.80469,671.01054 M 433.99414,683.99882 L 433.99414,685.22929 L 422.42773,685.22929 C 422.53711,686.96107 423.05664,688.28268 423.98633,689.19413 C 424.92512,690.09648 426.22851,690.54765 427.89648,690.54765 C 428.86262,690.54765 429.79686,690.42916 430.69922,690.19218 C 431.61066,689.9552 432.51301,689.59973 433.40625,689.12577 L 433.40625,691.50468 C 432.50389,691.88749 431.57876,692.17916 430.63086,692.37968 C 429.68293,692.5802 428.72134,692.68046 427.74609,692.68046 C 425.30338,692.68046 423.36653,691.96952 421.93555,690.54765 C 420.51367,689.12578 419.80273,687.2026 419.80273,684.77812 C 419.80273,682.27162 420.47721,680.28464 421.82617,678.81718 C 423.18424,677.34063 425.01171,676.60235 427.30859,676.60234 C 429.36848,676.60235 430.99543,677.26772 432.18945,678.59843 C 433.39256,679.92006 433.99412,681.72018 433.99414,683.99882 M 431.47852,683.26054 C 431.46027,681.88425 431.0729,680.78594 430.31641,679.96562 C 429.569,679.14532 428.57551,678.73516 427.33594,678.73515 C 425.93228,678.73516 424.80663,679.13165 423.95898,679.9246 C 423.12044,680.71758 422.63737,681.83412 422.50977,683.27421 L 431.47852,683.26054 M 450.04492,679.91093 C 450.67381,678.78073 451.42577,677.94675 452.30078,677.40898 C 453.17576,676.87123 454.20571,676.60235 455.39062,676.60234 C 456.98566,676.60235 458.21612,677.1629 459.08203,678.28398 C 459.94789,679.39597 460.38083,680.9819 460.38086,683.04179 L 460.38086,692.28398 L 457.85156,692.28398 L 457.85156,683.12382 C 457.85154,681.65638 457.59177,680.56719 457.07227,679.85624 C 456.55271,679.14532 455.75975,678.78985 454.69336,678.78984 C 453.38996,678.78985 452.36001,679.22279 451.60352,680.08866 C 450.84699,680.95456 450.46874,682.1349 450.46875,683.62968 L 450.46875,692.28398 L 447.93945,692.28398 L 447.93945,683.12382 C 447.93944,681.64727 447.67968,680.55808 447.16016,679.85624 C 446.64061,679.14532 445.83853,678.78985 444.75391,678.78984 C 443.46874,678.78985 442.44791,679.22735 441.69141,680.10234 C 440.93489,680.96823 440.55664,682.14401 440.55664,683.62968 L 440.55664,692.28398 L 438.02734,692.28398 L 438.02734,676.97148 L 440.55664,676.97148 L 440.55664,679.35038 C 441.13085,678.41159 441.819,677.71889 442.62109,677.27226 C 443.42317,676.82566 444.37564,676.60235 445.47852,676.60234 C 446.59048,676.60235 447.53384,676.8849 448.30859,677.44999 C 449.09243,678.01511 449.67121,678.83542 450.04492,679.91093 M 472.37109,684.58671 C 470.33853,684.58672 468.93033,684.81914 468.14648,685.28398 C 467.36263,685.74883 466.9707,686.54179 466.9707,687.66288 C 466.9707,688.55612 467.26237,689.26705 467.8457,689.7957 C 468.43815,690.31523 469.24023,690.57499 470.25195,690.57499 C 471.64648,690.57499 472.76301,690.08281 473.60156,689.09843 C 474.44921,688.10494 474.87303,686.78789 474.87305,685.14726 L 474.87305,684.58671 L 472.37109,684.58671 M 477.38867,683.54765 L 477.38867,692.28398 L 474.87305,692.28398 L 474.87305,689.95976 C 474.29882,690.88945 473.58332,691.5776 472.72656,692.02421 C 471.86978,692.46171 470.82161,692.68046 469.58203,692.68046 C 468.01432,692.68046 466.76562,692.24296 465.83594,691.36796 C 464.91536,690.48385 464.45508,689.30351 464.45508,687.82695 C 464.45508,686.1043 465.02929,684.80547 466.17773,683.93046 C 467.33528,683.05547 469.05794,682.61797 471.3457,682.61796 L 474.87305,682.61796 L 474.87305,682.37187 C 474.87303,681.21433 474.49022,680.3211 473.72461,679.69218 C 472.96809,679.05417 471.90168,678.73516 470.52539,678.73515 C 469.65038,678.73516 468.79817,678.83998 467.96875,679.0496 C 467.13932,679.25925 466.34179,679.5737 465.57617,679.99296 L 465.57617,677.66874 C 466.49674,677.31329 467.38997,677.04897 468.25586,676.87577 C 469.12174,676.6935 469.96484,676.60235 470.78516,676.60234 C 472.99999,676.60235 474.65428,677.17657 475.74805,678.32499 C 476.84178,679.47344 477.38866,681.21433 477.38867,683.54765 M 482.58398,671.01054 L 485.09961,671.01054 L 485.09961,692.28398 L 482.58398,692.28398 L 482.58398,671.01054 M 503.44727,683.99882 L 503.44727,685.22929 L 491.88086,685.22929 C 491.99023,686.96107 492.50976,688.28268 493.43945,689.19413 C 494.37825,690.09648 495.68163,690.54765 497.34961,690.54765 C 498.31574,690.54765 499.24999,690.42916 500.15234,690.19218 C 501.06379,689.9552 501.96613,689.59973 502.85938,689.12577 L 502.85938,691.50468 C 501.95702,691.88749 501.03189,692.17916 500.08398,692.37968 C 499.13606,692.5802 498.17447,692.68046 497.19922,692.68046 C 494.7565,692.68046 492.81966,691.96952 491.38867,690.54765 C 489.96679,689.12578 489.25586,687.2026 489.25586,684.77812 C 489.25586,682.27162 489.93034,680.28464 491.2793,678.81718 C 492.63736,677.34063 494.46484,676.60235 496.76172,676.60234 C 498.8216,676.60235 500.44855,677.26772 501.64258,678.59843 C 502.84569,679.92006 503.44725,681.72018 503.44727,683.99882 M 500.93164,683.26054 C 500.9134,681.88425 500.52603,680.78594 499.76953,679.96562 C 499.02212,679.14532 498.02864,678.73516 496.78906,678.73515 C 495.38541,678.73516 494.25976,679.13165 493.41211,679.9246 C 492.57356,680.71758 492.09049,681.83412 491.96289,683.27421 L 500.93164,683.26054"
       id="flowRoot9170" />
    <path
       transform="translate(220,-192.48332)"
       style="font-size:28px"
       d="M 296.71484,679.2957 L 296.71484,671.01054 L 299.23047,671.01054 L 299.23047,692.28398 L 296.71484,692.28398 L 296.71484,689.9871 C 296.18619,690.89856 295.51626,691.5776 294.70508,692.02421 C 293.90298,692.46171 292.93684,692.68046 291.80664,692.68046 C 289.95637,692.68046 288.44791,691.94218 287.28125,690.46562 C 286.1237,688.98906 285.54492,687.04765 285.54492,684.6414 C 285.54492,682.23516 286.1237,680.29375 287.28125,678.81718 C 288.44791,677.34063 289.95637,676.60235 291.80664,676.60234 C 292.93684,676.60235 293.90298,676.82566 294.70508,677.27226 C 295.51626,677.70977 296.18619,678.38425 296.71484,679.2957 M 288.14258,684.6414 C 288.14257,686.49166 288.52083,687.94544 289.27734,689.00273 C 290.04296,690.05091 291.09114,690.57499 292.42188,690.57499 C 293.75259,690.57499 294.80077,690.05091 295.56641,689.00273 C 296.33202,687.94544 296.71483,686.49166 296.71484,684.6414 C 296.71483,682.79115 296.33202,681.34193 295.56641,680.29374 C 294.80077,679.23646 293.75259,678.70782 292.42188,678.7078 C 291.09114,678.70782 290.04296,679.23646 289.27734,680.29374 C 288.52083,681.34193 288.14257,682.79115 288.14258,684.6414 M 317.50977,683.99882 L 317.50977,685.22929 L 305.94336,685.22929 C 306.05273,686.96107 306.57226,688.28268 307.50195,689.19413 C 308.44075,690.09648 309.74413,690.54765 311.41211,690.54765 C 312.37824,690.54765 313.31249,690.42916 314.21484,690.19218 C 315.12629,689.9552 316.02863,689.59973 316.92188,689.12577 L 316.92188,691.50468 C 316.01952,691.88749 315.09439,692.17916 314.14648,692.37968 C 313.19856,692.5802 312.23697,692.68046 311.26172,692.68046 C 308.819,692.68046 306.88216,691.96952 305.45117,690.54765 C 304.02929,689.12578 303.31836,687.2026 303.31836,684.77812 C 303.31836,682.27162 303.99284,680.28464 305.3418,678.81718 C 306.69986,677.34063 308.52734,676.60235 310.82422,676.60234 C 312.8841,676.60235 314.51105,677.26772 315.70508,678.59843 C 316.90819,679.92006 317.50975,681.72018 317.50977,683.99882 M 314.99414,683.26054 C 314.9759,681.88425 314.58853,680.78594 313.83203,679.96562 C 313.08462,679.14532 312.09114,678.73516 310.85156,678.73515 C 309.44791,678.73516 308.32226,679.13165 307.47461,679.9246 C 306.63606,680.71758 306.15299,681.83412 306.02539,683.27421 L 314.99414,683.26054 M 332.6582,677.55937 L 332.6582,679.91093 C 331.94725,679.51902 331.23176,679.22735 330.51172,679.03593 C 329.80077,678.83542 329.08072,678.73516 328.35156,678.73515 C 326.72004,678.73516 325.45312,679.25469 324.55078,680.29374 C 323.64843,681.3237 323.19726,682.77292 323.19727,684.6414 C 323.19726,686.50989 323.64843,687.96367 324.55078,689.00273 C 325.45312,690.03268 326.72004,690.54765 328.35156,690.54765 C 329.08072,690.54765 329.80077,690.45195 330.51172,690.26054 C 331.23176,690.06002 331.94725,689.7638 332.6582,689.37187 L 332.6582,691.69609 C 331.95637,692.02421 331.2272,692.2703 330.4707,692.43437 C 329.7233,692.59843 328.92577,692.68046 328.07812,692.68046 C 325.77213,692.68046 323.9401,691.95585 322.58203,690.50663 C 321.22396,689.05742 320.54492,687.10234 320.54492,684.6414 C 320.54492,682.14401 321.22851,680.17982 322.5957,678.74882 C 323.972,677.31785 325.85416,676.60235 328.24219,676.60234 C 329.01692,676.60235 329.77343,676.68438 330.51172,676.84843 C 331.24999,677.00339 331.96548,677.24037 332.6582,677.55937 M 350.1582,683.99882 L 350.1582,685.22929 L 338.5918,685.22929 C 338.70117,686.96107 339.2207,688.28268 340.15039,689.19413 C 341.08919,690.09648 342.39257,690.54765 344.06055,690.54765 C 345.02668,690.54765 345.96093,690.42916 346.86328,690.19218 C 347.77473,689.9552 348.67707,689.59973 349.57031,689.12577 L 349.57031,691.50468 C 348.66795,691.88749 347.74283,692.17916 346.79492,692.37968 C 345.84699,692.5802 344.88541,692.68046 343.91016,692.68046 C 341.46744,692.68046 339.53059,691.96952 338.09961,690.54765 C 336.67773,689.12578 335.9668,687.2026 335.9668,684.77812 C 335.9668,682.27162 336.64127,680.28464 337.99023,678.81718 C 339.3483,677.34063 341.17577,676.60235 343.47266,676.60234 C 345.53254,676.60235 347.15949,677.26772 348.35352,678.59843 C 349.55663,679.92006 350.15819,681.72018 350.1582,683.99882 M 347.64258,683.26054 C 347.62434,681.88425 347.23697,680.78594 346.48047,679.96562 C 345.73306,679.14532 344.73957,678.73516 343.5,678.73515 C 342.09635,678.73516 340.9707,679.13165 340.12305,679.9246 C 339.2845,680.71758 338.80143,681.83412 338.67383,683.27421 L 347.64258,683.26054 M 361.24609,684.58671 C 359.21353,684.58672 357.80533,684.81914 357.02148,685.28398 C 356.23763,685.74883 355.8457,686.54179 355.8457,687.66288 C 355.8457,688.55612 356.13737,689.26705 356.7207,689.7957 C 357.31315,690.31523 358.11523,690.57499 359.12695,690.57499 C 360.52148,690.57499 361.63801,690.08281 362.47656,689.09843 C 363.32421,688.10494 363.74803,686.78789 363.74805,685.14726 L 363.74805,684.58671 L 361.24609,684.58671 M 366.26367,683.54765 L 366.26367,692.28398 L 363.74805,692.28398 L 363.74805,689.95976 C 363.17382,690.88945 362.45832,691.5776 361.60156,692.02421 C 360.74478,692.46171 359.69661,692.68046 358.45703,692.68046 C 356.88932,692.68046 355.64062,692.24296 354.71094,691.36796 C 353.79036,690.48385 353.33008,689.30351 353.33008,687.82695 C 353.33008,686.1043 353.90429,684.80547 355.05273,683.93046 C 356.21028,683.05547 357.93294,682.61797 360.2207,682.61796 L 363.74805,682.61796 L 363.74805,682.37187 C 363.74803,681.21433 363.36522,680.3211 362.59961,679.69218 C 361.84309,679.05417 360.77668,678.73516 359.40039,678.73515 C 358.52538,678.73516 357.67317,678.83998 356.84375,679.0496 C 356.01432,679.25925 355.21679,679.5737 354.45117,679.99296 L 354.45117,677.66874 C 355.37174,677.31329 356.26497,677.04897 357.13086,676.87577 C 357.99674,676.6935 358.83984,676.60235 359.66016,676.60234 C 361.87499,676.60235 363.52928,677.17657 364.62305,678.32499 C 365.71678,679.47344 366.26366,681.21433 366.26367,683.54765 M 381.2207,677.42265 L 381.2207,679.80155 C 380.50975,679.43698 379.77147,679.16355 379.00586,678.98124 C 378.24022,678.79896 377.44726,678.70782 376.62695,678.7078 C 375.37825,678.70782 374.43945,678.89922 373.81055,679.28202 C 373.19075,679.66485 372.88086,680.23907 372.88086,681.00468 C 372.88086,681.58802 373.10416,682.04831 373.55078,682.38554 C 373.99739,682.71367 374.89518,683.02813 376.24414,683.3289 L 377.10547,683.5203 C 378.89192,683.90313 380.15884,684.44544 380.90625,685.14726 C 381.66275,685.83997 382.041,686.81067 382.04102,688.05937 C 382.041,689.48124 381.4759,690.60689 380.3457,691.43632 C 379.2246,692.26575 377.67968,692.68046 375.71094,692.68046 C 374.89062,692.68046 374.03385,692.59843 373.14062,692.43437 C 372.25651,692.27942 371.32226,692.04244 370.33789,691.72343 L 370.33789,689.12577 C 371.26758,689.60885 372.18359,689.97343 373.08594,690.21952 C 373.98828,690.4565 374.8815,690.57499 375.76562,690.57499 C 376.95051,690.57499 377.86197,690.37447 378.5,689.97343 C 379.13801,689.56328 379.45702,688.98906 379.45703,688.25077 C 379.45702,687.56718 379.2246,687.0431 378.75977,686.67851 C 378.30403,686.31393 377.29687,685.96302 375.73828,685.62577 L 374.86328,685.4207 C 373.30468,685.09258 372.17903,684.59128 371.48633,683.91679 C 370.79362,683.2332 370.44726,682.29896 370.44727,681.11405 C 370.44726,679.67396 370.95768,678.56199 371.97852,677.77812 C 372.99934,676.99428 374.44856,676.60235 376.32617,676.60234 C 377.25585,676.60235 378.13085,676.67071 378.95117,676.80741 C 379.77147,676.94415 380.52798,677.14923 381.2207,677.42265 M 399.1582,683.99882 L 399.1582,685.22929 L 387.5918,685.22929 C 387.70117,686.96107 388.2207,688.28268 389.15039,689.19413 C 390.08919,690.09648 391.39257,690.54765 393.06055,690.54765 C 394.02668,690.54765 394.96093,690.42916 395.86328,690.19218 C 396.77473,689.9552 397.67707,689.59973 398.57031,689.12577 L 398.57031,691.50468 C 397.66795,691.88749 396.74283,692.17916 395.79492,692.37968 C 394.84699,692.5802 393.88541,692.68046 392.91016,692.68046 C 390.46744,692.68046 388.53059,691.96952 387.09961,690.54765 C 385.67773,689.12578 384.9668,687.2026 384.9668,684.77812 C 384.9668,682.27162 385.64127,680.28464 386.99023,678.81718 C 388.3483,677.34063 390.17577,676.60235 392.47266,676.60234 C 394.53254,676.60235 396.15949,677.26772 397.35352,678.59843 C 398.55663,679.92006 399.15819,681.72018 399.1582,683.99882 M 396.64258,683.26054 C 396.62434,681.88425 396.23697,680.78594 395.48047,679.96562 C 394.73306,679.14532 393.73957,678.73516 392.5,678.73515 C 391.09635,678.73516 389.9707,679.13165 389.12305,679.9246 C 388.2845,680.71758 387.80143,681.83412 387.67383,683.27421 L 396.64258,683.26054 M 413.36328,679.2957 L 413.36328,671.01054 L 415.87891,671.01054 L 415.87891,692.28398 L 413.36328,692.28398 L 413.36328,689.9871 C 412.83462,690.89856 412.1647,691.5776 411.35352,692.02421 C 410.55142,692.46171 409.58528,692.68046 408.45508,692.68046 C 406.60481,692.68046 405.09635,691.94218 403.92969,690.46562 C 402.77213,688.98906 402.19336,687.04765 402.19336,684.6414 C 402.19336,682.23516 402.77213,680.29375 403.92969,678.81718 C 405.09635,677.34063 406.60481,676.60235 408.45508,676.60234 C 409.58528,676.60235 410.55142,676.82566 411.35352,677.27226 C 412.1647,677.70977 412.83462,678.38425 413.36328,679.2957 M 404.79102,684.6414 C 404.79101,686.49166 405.16927,687.94544 405.92578,689.00273 C 406.6914,690.05091 407.73958,690.57499 409.07031,690.57499 C 410.40103,690.57499 411.44921,690.05091 412.21484,689.00273 C 412.98046,687.94544 413.36327,686.49166 413.36328,684.6414 C 413.36327,682.79115 412.98046,681.34193 412.21484,680.29374 C 411.44921,679.23646 410.40103,678.70782 409.07031,678.7078 C 407.73958,678.70782 406.6914,679.23646 405.92578,680.29374 C 405.16927,681.34193 404.79101,682.79115 404.79102,684.6414 M 441.89648,679.91093 C 442.52538,678.78073 443.27733,677.94675 444.15234,677.40898 C 445.02733,676.87123 446.05727,676.60235 447.24219,676.60234 C 448.83722,676.60235 450.06769,677.1629 450.93359,678.28398 C 451.79945,679.39597 452.2324,680.9819 452.23242,683.04179 L 452.23242,692.28398 L 449.70312,692.28398 L 449.70312,683.12382 C 449.7031,681.65638 449.44334,680.56719 448.92383,679.85624 C 448.40428,679.14532 447.61131,678.78985 446.54492,678.78984 C 445.24152,678.78985 444.21157,679.22279 443.45508,680.08866 C 442.69855,680.95456 442.3203,682.1349 442.32031,683.62968 L 442.32031,692.28398 L 439.79102,692.28398 L 439.79102,683.12382 C 439.791,681.64727 439.53124,680.55808 439.01172,679.85624 C 438.49218,679.14532 437.69009,678.78985 436.60547,678.78984 C 435.3203,678.78985 434.29947,679.22735 433.54297,680.10234 C 432.78645,680.96823 432.4082,682.14401 432.4082,683.62968 L 432.4082,692.28398 L 429.87891,692.28398 L 429.87891,676.97148 L 432.4082,676.97148 L 432.4082,679.35038 C 432.98242,678.41159 433.67057,677.71889 434.47266,677.27226 C 435.27473,676.82566 436.2272,676.60235 437.33008,676.60234 C 438.44205,676.60235 439.3854,676.8849 440.16016,677.44999 C 440.944,678.01511 441.52277,678.83542 441.89648,679.91093 M 464.22266,684.58671 C 462.1901,684.58672 460.78189,684.81914 459.99805,685.28398 C 459.21419,685.74883 458.82226,686.54179 458.82227,687.66288 C 458.82226,688.55612 459.11393,689.26705 459.69727,689.7957 C 460.28971,690.31523 461.09179,690.57499 462.10352,690.57499 C 463.49804,690.57499 464.61457,690.08281 465.45312,689.09843 C 466.30077,688.10494 466.7246,686.78789 466.72461,685.14726 L 466.72461,684.58671 L 464.22266,684.58671 M 469.24023,683.54765 L 469.24023,692.28398 L 466.72461,692.28398 L 466.72461,689.95976 C 466.15038,690.88945 465.43489,691.5776 464.57812,692.02421 C 463.72135,692.46171 462.67317,692.68046 461.43359,692.68046 C 459.86588,692.68046 458.61718,692.24296 457.6875,691.36796 C 456.76692,690.48385 456.30664,689.30351 456.30664,687.82695 C 456.30664,686.1043 456.88086,684.80547 458.0293,683.93046 C 459.18684,683.05547 460.9095,682.61797 463.19727,682.61796 L 466.72461,682.61796 L 466.72461,682.37187 C 466.7246,681.21433 466.34179,680.3211 465.57617,679.69218 C 464.81965,679.05417 463.75325,678.73516 462.37695,678.73515 C 461.50195,678.73516 460.64973,678.83998 459.82031,679.0496 C 458.99088,679.25925 458.19336,679.5737 457.42773,679.99296 L 457.42773,677.66874 C 458.3483,677.31329 459.24153,677.04897 460.10742,676.87577 C 460.9733,676.6935 461.8164,676.60235 462.63672,676.60234 C 464.85155,676.60235 466.50585,677.17657 467.59961,678.32499 C 468.69335,679.47344 469.24022,681.21433 469.24023,683.54765 M 474.43555,671.01054 L 476.95117,671.01054 L 476.95117,692.28398 L 474.43555,692.28398 L 474.43555,671.01054 M 495.29883,683.99882 L 495.29883,685.22929 L 483.73242,685.22929 C 483.84179,686.96107 484.36132,688.28268 485.29102,689.19413 C 486.22981,690.09648 487.5332,690.54765 489.20117,690.54765 C 490.16731,690.54765 491.10155,690.42916 492.00391,690.19218 C 492.91535,689.9552 493.81769,689.59973 494.71094,689.12577 L 494.71094,691.50468 C 493.80858,691.88749 492.88345,692.17916 491.93555,692.37968 C 490.98762,692.5802 490.02603,692.68046 489.05078,692.68046 C 486.60807,692.68046 484.67122,691.96952 483.24023,690.54765 C 481.81836,689.12578 481.10742,687.2026 481.10742,684.77812 C 481.10742,682.27162 481.7819,680.28464 483.13086,678.81718 C 484.48893,677.34063 486.3164,676.60235 488.61328,676.60234 C 490.67317,676.60235 492.30012,677.26772 493.49414,678.59843 C 494.69725,679.92006 495.29881,681.72018 495.29883,683.99882 M 492.7832,683.26054 C 492.76496,681.88425 492.37759,680.78594 491.62109,679.96562 C 490.87369,679.14532 489.8802,678.73516 488.64062,678.73515 C 487.23697,678.73516 486.11132,679.13165 485.26367,679.9246 C 484.42513,680.71758 483.94205,681.83412 483.81445,683.27421 L 492.7832,683.26054"
       id="flowRoot9206" />
    <path
       transform="translate(220,-108.48332)"
       style="font-size:28px"
       d="M 296.71484,679.2957 L 296.71484,671.01054 L 299.23047,671.01054 L 299.23047,692.28398 L 296.71484,692.28398 L 296.71484,689.9871 C 296.18619,690.89856 295.51626,691.5776 294.70508,692.02421 C 293.90298,692.46171 292.93684,692.68046 291.80664,692.68046 C 289.95637,692.68046 288.44791,691.94218 287.28125,690.46562 C 286.1237,688.98906 285.54492,687.04765 285.54492,684.6414 C 285.54492,682.23516 286.1237,680.29375 287.28125,678.81718 C 288.44791,677.34063 289.95637,676.60235 291.80664,676.60234 C 292.93684,676.60235 293.90298,676.82566 294.70508,677.27226 C 295.51626,677.70977 296.18619,678.38425 296.71484,679.2957 M 288.14258,684.6414 C 288.14257,686.49166 288.52083,687.94544 289.27734,689.00273 C 290.04296,690.05091 291.09114,690.57499 292.42188,690.57499 C 293.75259,690.57499 294.80077,690.05091 295.56641,689.00273 C 296.33202,687.94544 296.71483,686.49166 296.71484,684.6414 C 296.71483,682.79115 296.33202,681.34193 295.56641,680.29374 C 294.80077,679.23646 293.75259,678.70782 292.42188,678.7078 C 291.09114,678.70782 290.04296,679.23646 289.27734,680.29374 C 288.52083,681.34193 288.14257,682.79115 288.14258,684.6414 M 317.50977,683.99882 L 317.50977,685.22929 L 305.94336,685.22929 C 306.05273,686.96107 306.57226,688.28268 307.50195,689.19413 C 308.44075,690.09648 309.74413,690.54765 311.41211,690.54765 C 312.37824,690.54765 313.31249,690.42916 314.21484,690.19218 C 315.12629,689.9552 316.02863,689.59973 316.92188,689.12577 L 316.92188,691.50468 C 316.01952,691.88749 315.09439,692.17916 314.14648,692.37968 C 313.19856,692.5802 312.23697,692.68046 311.26172,692.68046 C 308.819,692.68046 306.88216,691.96952 305.45117,690.54765 C 304.02929,689.12578 303.31836,687.2026 303.31836,684.77812 C 303.31836,682.27162 303.99284,680.28464 305.3418,678.81718 C 306.69986,677.34063 308.52734,676.60235 310.82422,676.60234 C 312.8841,676.60235 314.51105,677.26772 315.70508,678.59843 C 316.90819,679.92006 317.50975,681.72018 317.50977,683.99882 M 314.99414,683.26054 C 314.9759,681.88425 314.58853,680.78594 313.83203,679.96562 C 313.08462,679.14532 312.09114,678.73516 310.85156,678.73515 C 309.44791,678.73516 308.32226,679.13165 307.47461,679.9246 C 306.63606,680.71758 306.15299,681.83412 306.02539,683.27421 L 314.99414,683.26054 M 332.6582,677.55937 L 332.6582,679.91093 C 331.94725,679.51902 331.23176,679.22735 330.51172,679.03593 C 329.80077,678.83542 329.08072,678.73516 328.35156,678.73515 C 326.72004,678.73516 325.45312,679.25469 324.55078,680.29374 C 323.64843,681.3237 323.19726,682.77292 323.19727,684.6414 C 323.19726,686.50989 323.64843,687.96367 324.55078,689.00273 C 325.45312,690.03268 326.72004,690.54765 328.35156,690.54765 C 329.08072,690.54765 329.80077,690.45195 330.51172,690.26054 C 331.23176,690.06002 331.94725,689.7638 332.6582,689.37187 L 332.6582,691.69609 C 331.95637,692.02421 331.2272,692.2703 330.4707,692.43437 C 329.7233,692.59843 328.92577,692.68046 328.07812,692.68046 C 325.77213,692.68046 323.9401,691.95585 322.58203,690.50663 C 321.22396,689.05742 320.54492,687.10234 320.54492,684.6414 C 320.54492,682.14401 321.22851,680.17982 322.5957,678.74882 C 323.972,677.31785 325.85416,676.60235 328.24219,676.60234 C 329.01692,676.60235 329.77343,676.68438 330.51172,676.84843 C 331.24999,677.00339 331.96548,677.24037 332.6582,677.55937 M 350.1582,683.99882 L 350.1582,685.22929 L 338.5918,685.22929 C 338.70117,686.96107 339.2207,688.28268 340.15039,689.19413 C 341.08919,690.09648 342.39257,690.54765 344.06055,690.54765 C 345.02668,690.54765 345.96093,690.42916 346.86328,690.19218 C 347.77473,689.9552 348.67707,689.59973 349.57031,689.12577 L 349.57031,691.50468 C 348.66795,691.88749 347.74283,692.17916 346.79492,692.37968 C 345.84699,692.5802 344.88541,692.68046 343.91016,692.68046 C 341.46744,692.68046 339.53059,691.96952 338.09961,690.54765 C 336.67773,689.12578 335.9668,687.2026 335.9668,684.77812 C 335.9668,682.27162 336.64127,680.28464 337.99023,678.81718 C 339.3483,677.34063 341.17577,676.60235 343.47266,676.60234 C 345.53254,676.60235 347.15949,677.26772 348.35352,678.59843 C 349.55663,679.92006 350.15819,681.72018 350.1582,683.99882 M 347.64258,683.26054 C 347.62434,681.88425 347.23697,680.78594 346.48047,679.96562 C 345.73306,679.14532 344.73957,678.73516 343.5,678.73515 C 342.09635,678.73516 340.9707,679.13165 340.12305,679.9246 C 339.2845,680.71758 338.80143,681.83412 338.67383,683.27421 L 347.64258,683.26054 M 361.24609,684.58671 C 359.21353,684.58672 357.80533,684.81914 357.02148,685.28398 C 356.23763,685.74883 355.8457,686.54179 355.8457,687.66288 C 355.8457,688.55612 356.13737,689.26705 356.7207,689.7957 C 357.31315,690.31523 358.11523,690.57499 359.12695,690.57499 C 360.52148,690.57499 361.63801,690.08281 362.47656,689.09843 C 363.32421,688.10494 363.74803,686.78789 363.74805,685.14726 L 363.74805,684.58671 L 361.24609,684.58671 M 366.26367,683.54765 L 366.26367,692.28398 L 363.74805,692.28398 L 363.74805,689.95976 C 363.17382,690.88945 362.45832,691.5776 361.60156,692.02421 C 360.74478,692.46171 359.69661,692.68046 358.45703,692.68046 C 356.88932,692.68046 355.64062,692.24296 354.71094,691.36796 C 353.79036,690.48385 353.33008,689.30351 353.33008,687.82695 C 353.33008,686.1043 353.90429,684.80547 355.05273,683.93046 C 356.21028,683.05547 357.93294,682.61797 360.2207,682.61796 L 363.74805,682.61796 L 363.74805,682.37187 C 363.74803,681.21433 363.36522,680.3211 362.59961,679.69218 C 361.84309,679.05417 360.77668,678.73516 359.40039,678.73515 C 358.52538,678.73516 357.67317,678.83998 356.84375,679.0496 C 356.01432,679.25925 355.21679,679.5737 354.45117,679.99296 L 354.45117,677.66874 C 355.37174,677.31329 356.26497,677.04897 357.13086,676.87577 C 357.99674,676.6935 358.83984,676.60235 359.66016,676.60234 C 361.87499,676.60235 363.52928,677.17657 364.62305,678.32499 C 365.71678,679.47344 366.26366,681.21433 366.26367,683.54765 M 381.2207,677.42265 L 381.2207,679.80155 C 380.50975,679.43698 379.77147,679.16355 379.00586,678.98124 C 378.24022,678.79896 377.44726,678.70782 376.62695,678.7078 C 375.37825,678.70782 374.43945,678.89922 373.81055,679.28202 C 373.19075,679.66485 372.88086,680.23907 372.88086,681.00468 C 372.88086,681.58802 373.10416,682.04831 373.55078,682.38554 C 373.99739,682.71367 374.89518,683.02813 376.24414,683.3289 L 377.10547,683.5203 C 378.89192,683.90313 380.15884,684.44544 380.90625,685.14726 C 381.66275,685.83997 382.041,686.81067 382.04102,688.05937 C 382.041,689.48124 381.4759,690.60689 380.3457,691.43632 C 379.2246,692.26575 377.67968,692.68046 375.71094,692.68046 C 374.89062,692.68046 374.03385,692.59843 373.14062,692.43437 C 372.25651,692.27942 371.32226,692.04244 370.33789,691.72343 L 370.33789,689.12577 C 371.26758,689.60885 372.18359,689.97343 373.08594,690.21952 C 373.98828,690.4565 374.8815,690.57499 375.76562,690.57499 C 376.95051,690.57499 377.86197,690.37447 378.5,689.97343 C 379.13801,689.56328 379.45702,688.98906 379.45703,688.25077 C 379.45702,687.56718 379.2246,687.0431 378.75977,686.67851 C 378.30403,686.31393 377.29687,685.96302 375.73828,685.62577 L 374.86328,685.4207 C 373.30468,685.09258 372.17903,684.59128 371.48633,683.91679 C 370.79362,683.2332 370.44726,682.29896 370.44727,681.11405 C 370.44726,679.67396 370.95768,678.56199 371.97852,677.77812 C 372.99934,676.99428 374.44856,676.60235 376.32617,676.60234 C 377.25585,676.60235 378.13085,676.67071 378.95117,676.80741 C 379.77147,676.94415 380.52798,677.14923 381.2207,677.42265 M 399.1582,683.99882 L 399.1582,685.22929 L 387.5918,685.22929 C 387.70117,686.96107 388.2207,688.28268 389.15039,689.19413 C 390.08919,690.09648 391.39257,690.54765 393.06055,690.54765 C 394.02668,690.54765 394.96093,690.42916 395.86328,690.19218 C 396.77473,689.9552 397.67707,689.59973 398.57031,689.12577 L 398.57031,691.50468 C 397.66795,691.88749 396.74283,692.17916 395.79492,692.37968 C 394.84699,692.5802 393.88541,692.68046 392.91016,692.68046 C 390.46744,692.68046 388.53059,691.96952 387.09961,690.54765 C 385.67773,689.12578 384.9668,687.2026 384.9668,684.77812 C 384.9668,682.27162 385.64127,680.28464 386.99023,678.81718 C 388.3483,677.34063 390.17577,676.60235 392.47266,676.60234 C 394.53254,676.60235 396.15949,677.26772 397.35352,678.59843 C 398.55663,679.92006 399.15819,681.72018 399.1582,683.99882 M 396.64258,683.26054 C 396.62434,681.88425 396.23697,680.78594 395.48047,679.96562 C 394.73306,679.14532 393.73957,678.73516 392.5,678.73515 C 391.09635,678.73516 389.9707,679.13165 389.12305,679.9246 C 388.2845,680.71758 387.80143,681.83412 387.67383,683.27421 L 396.64258,683.26054 M 413.36328,679.2957 L 413.36328,671.01054 L 415.87891,671.01054 L 415.87891,692.28398 L 413.36328,692.28398 L 413.36328,689.9871 C 412.83462,690.89856 412.1647,691.5776 411.35352,692.02421 C 410.55142,692.46171 409.58528,692.68046 408.45508,692.68046 C 406.60481,692.68046 405.09635,691.94218 403.92969,690.46562 C 402.77213,688.98906 402.19336,687.04765 402.19336,684.6414 C 402.19336,682.23516 402.77213,680.29375 403.92969,678.81718 C 405.09635,677.34063 406.60481,676.60235 408.45508,676.60234 C 409.58528,676.60235 410.55142,676.82566 411.35352,677.27226 C 412.1647,677.70977 412.83462,678.38425 413.36328,679.2957 M 404.79102,684.6414 C 404.79101,686.49166 405.16927,687.94544 405.92578,689.00273 C 406.6914,690.05091 407.73958,690.57499 409.07031,690.57499 C 410.40103,690.57499 411.44921,690.05091 412.21484,689.00273 C 412.98046,687.94544 413.36327,686.49166 413.36328,684.6414 C 413.36327,682.79115 412.98046,681.34193 412.21484,680.29374 C 411.44921,679.23646 410.40103,678.70782 409.07031,678.7078 C 407.73958,678.70782 406.6914,679.23646 405.92578,680.29374 C 405.16927,681.34193 404.79101,682.79115 404.79102,684.6414 M 437.72656,671.01054 L 437.72656,673.10234 L 435.32031,673.10234 C 434.41796,673.10236 433.78906,673.28465 433.43359,673.64921 C 433.08723,674.01381 432.91406,674.67006 432.91406,675.61796 L 432.91406,676.97148 L 437.05664,676.97148 L 437.05664,678.92655 L 432.91406,678.92655 L 432.91406,692.28398 L 430.38477,692.28398 L 430.38477,678.92655 L 427.97852,678.92655 L 427.97852,676.97148 L 430.38477,676.97148 L 430.38477,675.90507 C 430.38476,674.20066 430.78125,672.96108 431.57422,672.18632 C 432.36718,671.40249 433.62499,671.01056 435.34766,671.01054 L 437.72656,671.01054 M 452.91602,683.99882 L 452.91602,685.22929 L 441.34961,685.22929 C 441.45898,686.96107 441.97851,688.28268 442.9082,689.19413 C 443.847,690.09648 445.15038,690.54765 446.81836,690.54765 C 447.78449,690.54765 448.71874,690.42916 449.62109,690.19218 C 450.53254,689.9552 451.43488,689.59973 452.32812,689.12577 L 452.32812,691.50468 C 451.42577,691.88749 450.50064,692.17916 449.55273,692.37968 C 448.60481,692.5802 447.64322,692.68046 446.66797,692.68046 C 444.22525,692.68046 442.28841,691.96952 440.85742,690.54765 C 439.43554,689.12578 438.72461,687.2026 438.72461,684.77812 C 438.72461,682.27162 439.39909,680.28464 440.74805,678.81718 C 442.10611,677.34063 443.93359,676.60235 446.23047,676.60234 C 448.29035,676.60235 449.9173,677.26772 451.11133,678.59843 C 452.31444,679.92006 452.916,681.72018 452.91602,683.99882 M 450.40039,683.26054 C 450.38215,681.88425 449.99478,680.78594 449.23828,679.96562 C 448.49087,679.14532 447.49739,678.73516 446.25781,678.73515 C 444.85416,678.73516 443.72851,679.13165 442.88086,679.9246 C 442.04231,680.71758 441.55924,681.83412 441.43164,683.27421 L 450.40039,683.26054 M 468.9668,679.91093 C 469.59569,678.78073 470.34764,677.94675 471.22266,677.40898 C 472.09764,676.87123 473.12759,676.60235 474.3125,676.60234 C 475.90753,676.60235 477.138,677.1629 478.00391,678.28398 C 478.86977,679.39597 479.30271,680.9819 479.30273,683.04179 L 479.30273,692.28398 L 476.77344,692.28398 L 476.77344,683.12382 C 476.77342,681.65638 476.51365,680.56719 475.99414,679.85624 C 475.47459,679.14532 474.68162,678.78985 473.61523,678.78984 C 472.31183,678.78985 471.28188,679.22279 470.52539,680.08866 C 469.76886,680.95456 469.39061,682.1349 469.39062,683.62968 L 469.39062,692.28398 L 466.86133,692.28398 L 466.86133,683.12382 C 466.86132,681.64727 466.60155,680.55808 466.08203,679.85624 C 465.56249,679.14532 464.76041,678.78985 463.67578,678.78984 C 462.39062,678.78985 461.36978,679.22735 460.61328,680.10234 C 459.85677,680.96823 459.47851,682.14401 459.47852,683.62968 L 459.47852,692.28398 L 456.94922,692.28398 L 456.94922,676.97148 L 459.47852,676.97148 L 459.47852,679.35038 C 460.05273,678.41159 460.74088,677.71889 461.54297,677.27226 C 462.34504,676.82566 463.29752,676.60235 464.40039,676.60234 C 465.51236,676.60235 466.45572,676.8849 467.23047,677.44999 C 468.01431,678.01511 468.59308,678.83542 468.9668,679.91093 M 491.29297,684.58671 C 489.26041,684.58672 487.85221,684.81914 487.06836,685.28398 C 486.2845,685.74883 485.89257,686.54179 485.89258,687.66288 C 485.89257,688.55612 486.18424,689.26705 486.76758,689.7957 C 487.36002,690.31523 488.1621,690.57499 489.17383,690.57499 C 490.56835,690.57499 491.68489,690.08281 492.52344,689.09843 C 493.37108,688.10494 493.79491,686.78789 493.79492,685.14726 L 493.79492,684.58671 L 491.29297,684.58671 M 496.31055,683.54765 L 496.31055,692.28398 L 493.79492,692.28398 L 493.79492,689.95976 C 493.22069,690.88945 492.5052,691.5776 491.64844,692.02421 C 490.79166,692.46171 489.74348,692.68046 488.50391,692.68046 C 486.93619,692.68046 485.6875,692.24296 484.75781,691.36796 C 483.83724,690.48385 483.37695,689.30351 483.37695,687.82695 C 483.37695,686.1043 483.95117,684.80547 485.09961,683.93046 C 486.25716,683.05547 487.97981,682.61797 490.26758,682.61796 L 493.79492,682.61796 L 493.79492,682.37187 C 493.79491,681.21433 493.4121,680.3211 492.64648,679.69218 C 491.88996,679.05417 490.82356,678.73516 489.44727,678.73515 C 488.57226,678.73516 487.72005,678.83998 486.89062,679.0496 C 486.06119,679.25925 485.26367,679.5737 484.49805,679.99296 L 484.49805,677.66874 C 485.41862,677.31329 486.31184,677.04897 487.17773,676.87577 C 488.04361,676.6935 488.88671,676.60235 489.70703,676.60234 C 491.92186,676.60235 493.57616,677.17657 494.66992,678.32499 C 495.76366,679.47344 496.31053,681.21433 496.31055,683.54765 M 501.50586,671.01054 L 504.02148,671.01054 L 504.02148,692.28398 L 501.50586,692.28398 L 501.50586,671.01054 M 522.36914,683.99882 L 522.36914,685.22929 L 510.80273,685.22929 C 510.91211,686.96107 511.43164,688.28268 512.36133,689.19413 C 513.30012,690.09648 514.60351,690.54765 516.27148,690.54765 C 517.23762,690.54765 518.17186,690.42916 519.07422,690.19218 C 519.98566,689.9552 520.88801,689.59973 521.78125,689.12577 L 521.78125,691.50468 C 520.87889,691.88749 519.95376,692.17916 519.00586,692.37968 C 518.05793,692.5802 517.09634,692.68046 516.12109,692.68046 C 513.67838,692.68046 511.74153,691.96952 510.31055,690.54765 C 508.88867,689.12578 508.17773,687.2026 508.17773,684.77812 C 508.17773,682.27162 508.85221,680.28464 510.20117,678.81718 C 511.55924,677.34063 513.38671,676.60235 515.68359,676.60234 C 517.74348,676.60235 519.37043,677.26772 520.56445,678.59843 C 521.76756,679.92006 522.36912,681.72018 522.36914,683.99882 M 519.85352,683.26054 C 519.83527,681.88425 519.4479,680.78594 518.69141,679.96562 C 517.944,679.14532 516.95051,678.73516 515.71094,678.73515 C 514.30728,678.73516 513.18163,679.13165 512.33398,679.9246 C 511.49544,680.71758 511.01237,681.83412 510.88477,683.27421 L 519.85352,683.26054"
       id="flowRoot9214" />
    <path
       transform="translate(-6.5000001,25.862183)"
       style="color:#000000;fill:none;fill-opacity:1;fill-rule:evenodd;stroke:#ff0000;stroke-width:1;stroke-linecap:butt;stroke-linejoin:round;stroke-miterlimit:4;stroke-dasharray:8, 8;stroke-dashoffset:0;stroke-opacity:1;marker:none;marker-start:none;marker-mid:none;marker-end:none;visibility:visible;display:inline;overflow:visible;enable-background:accumulate"
       d="M 16,165 L 756,165 L 756,247 L 16,247 L 16,165 z "
       id="rect9481" />
    <path
       transform="translate(968,-324)"
       style="font-size:28px"
       d="M -353.33398,463.99687 L -353.33398,458.51445 L -357.8457,458.51445 L -357.8457,456.24491 L -350.59961,456.24491 L -350.59961,465.00859 C -351.66603,465.7651 -352.84181,466.33932 -354.12695,466.73124 C -355.41212,467.11405 -356.78387,467.30546 -358.24219,467.30546 C -361.4323,467.30546 -363.92969,466.37577 -365.73438,464.5164 C -367.52995,462.64791 -368.42774,460.05026 -368.42773,456.72343 C -368.42774,453.38751 -367.52995,450.78985 -365.73438,448.93046 C -363.92969,447.06199 -361.4323,446.12775 -358.24219,446.12773 C -356.91147,446.12775 -355.6491,446.29181 -354.45508,446.61991 C -353.25197,446.94806 -352.14455,447.43113 -351.13281,448.06913 L -351.13281,451.00859 C -352.15366,450.14272 -353.2383,449.49103 -354.38672,449.05351 C -355.53517,448.61603 -356.74285,448.39728 -358.00977,448.39726 C -360.50717,448.39728 -362.38477,449.09454 -363.64258,450.48905 C -364.89128,451.8836 -365.51563,453.96172 -365.51562,456.72343 C -365.51563,459.47604 -364.89128,461.54961 -363.64258,462.94413 C -362.38477,464.33867 -360.50717,465.03593 -358.00977,465.03593 C -357.03452,465.03593 -356.16408,464.9539 -355.39844,464.78984 C -354.63283,464.61666 -353.94468,464.35234 -353.33398,463.99687 M -332.55273,458.62382 L -332.55273,459.85429 L -344.11914,459.85429 C -344.00977,461.58607 -343.49024,462.90768 -342.56055,463.81913 C -341.62175,464.72148 -340.31837,465.17265 -338.65039,465.17265 C -337.68426,465.17265 -336.75001,465.05416 -335.84766,464.81718 C -334.93621,464.5802 -334.03387,464.22473 -333.14062,463.75077 L -333.14062,466.12968 C -334.04298,466.51249 -334.96811,466.80416 -335.91602,467.00468 C -336.86394,467.2052 -337.82553,467.30546 -338.80078,467.30546 C -341.2435,467.30546 -343.18034,466.59452 -344.61133,465.17265 C -346.03321,463.75078 -346.74414,461.8276 -346.74414,459.40312 C -346.74414,456.89662 -346.06966,454.90964 -344.7207,453.44218 C -343.36264,451.96563 -341.53516,451.22735 -339.23828,451.22734 C -337.1784,451.22735 -335.55145,451.89272 -334.35742,453.22343 C -333.15431,454.54506 -332.55275,456.34518 -332.55273,458.62382 M -335.06836,457.88554 C -335.0866,456.50925 -335.47397,455.41094 -336.23047,454.59062 C -336.97788,453.77032 -337.97136,453.36016 -339.21094,453.36015 C -340.61459,453.36016 -341.74024,453.75665 -342.58789,454.5496 C -343.42644,455.34258 -343.90951,456.45912 -344.03711,457.89921 L -335.06836,457.88554 M -315.69531,457.66679 L -315.69531,466.90898 L -318.21094,466.90898 L -318.21094,457.74882 C -318.21095,456.29961 -318.4935,455.21498 -319.05859,454.49491 C -319.62371,453.77488 -320.47136,453.41485 -321.60156,453.41484 C -322.95964,453.41485 -324.03061,453.84779 -324.81445,454.71366 C -325.59831,455.57956 -325.99024,456.7599 -325.99023,458.25468 L -325.99023,466.90898 L -328.51953,466.90898 L -328.51953,451.59648 L -325.99023,451.59648 L -325.99023,453.97538 C -325.38868,453.05482 -324.6823,452.36667 -323.87109,451.91093 C -323.05079,451.45522 -322.10743,451.22735 -321.04102,451.22734 C -319.28191,451.22735 -317.95118,451.77423 -317.04883,452.86796 C -316.1465,453.95261 -315.69533,455.55222 -315.69531,457.66679 M -297.55273,458.62382 L -297.55273,459.85429 L -309.11914,459.85429 C -309.00977,461.58607 -308.49024,462.90768 -307.56055,463.81913 C -306.62175,464.72148 -305.31837,465.17265 -303.65039,465.17265 C -302.68426,465.17265 -301.75001,465.05416 -300.84766,464.81718 C -299.93621,464.5802 -299.03387,464.22473 -298.14062,463.75077 L -298.14062,466.12968 C -299.04298,466.51249 -299.96811,466.80416 -300.91602,467.00468 C -301.86394,467.2052 -302.82553,467.30546 -303.80078,467.30546 C -306.2435,467.30546 -308.18034,466.59452 -309.61133,465.17265 C -311.03321,463.75078 -311.74414,461.8276 -311.74414,459.40312 C -311.74414,456.89662 -311.06966,454.90964 -309.7207,453.44218 C -308.36264,451.96563 -306.53516,451.22735 -304.23828,451.22734 C -302.1784,451.22735 -300.55145,451.89272 -299.35742,453.22343 C -298.15431,454.54506 -297.55275,456.34518 -297.55273,458.62382 M -300.06836,457.88554 C -300.0866,456.50925 -300.47397,455.41094 -301.23047,454.59062 C -301.97788,453.77032 -302.97136,453.36016 -304.21094,453.36015 C -305.61459,453.36016 -306.74024,453.75665 -307.58789,454.5496 C -308.42644,455.34258 -308.90951,456.45912 -309.03711,457.89921 L -300.06836,457.88554 M -284.55078,453.94804 C -284.83334,453.78399 -285.14324,453.6655 -285.48047,453.59257 C -285.8086,453.51055 -286.17319,453.46954 -286.57422,453.46952 C -287.9961,453.46954 -289.08985,453.93438 -289.85547,454.86405 C -290.61198,455.78464 -290.99024,457.11081 -290.99023,458.84257 L -290.99023,466.90898 L -293.51953,466.90898 L -293.51953,451.59648 L -290.99023,451.59648 L -290.99023,453.97538 C -290.46159,453.04571 -289.77344,452.35756 -288.92578,451.91093 C -288.07813,451.45522 -287.04819,451.22735 -285.83594,451.22734 C -285.66277,451.22735 -285.47136,451.24102 -285.26172,451.26835 C -285.05209,451.2866 -284.81967,451.3185 -284.56445,451.36405 L -284.55078,453.94804 M -274.92578,459.21171 C -276.95834,459.21172 -278.36654,459.44414 -279.15039,459.90898 C -279.93425,460.37383 -280.32618,461.16679 -280.32617,462.28788 C -280.32618,463.18112 -280.03451,463.89205 -279.45117,464.4207 C -278.85873,464.94023 -278.05665,465.19999 -277.04492,465.19999 C -275.6504,465.19999 -274.53386,464.70781 -273.69531,463.72343 C -272.84767,462.72994 -272.42384,461.41289 -272.42383,459.77226 L -272.42383,459.21171 L -274.92578,459.21171 M -269.9082,458.17265 L -269.9082,466.90898 L -272.42383,466.90898 L -272.42383,464.58476 C -272.99806,465.51445 -273.71355,466.2026 -274.57031,466.64921 C -275.42709,467.08671 -276.47527,467.30546 -277.71484,467.30546 C -279.28256,467.30546 -280.53125,466.86796 -281.46094,465.99296 C -282.38151,465.10885 -282.8418,463.92851 -282.8418,462.45195 C -282.8418,460.7293 -282.26758,459.43047 -281.11914,458.55546 C -279.96159,457.68047 -278.23894,457.24297 -275.95117,457.24296 L -272.42383,457.24296 L -272.42383,456.99687 C -272.42384,455.83933 -272.80665,454.9461 -273.57227,454.31718 C -274.32879,453.67917 -275.39519,453.36016 -276.77148,453.36015 C -277.64649,453.36016 -278.4987,453.46498 -279.32812,453.6746 C -280.15756,453.88425 -280.95508,454.1987 -281.7207,454.61796 L -281.7207,452.29374 C -280.80013,451.93829 -279.90691,451.67397 -279.04102,451.50077 C -278.17514,451.3185 -277.33204,451.22735 -276.51172,451.22734 C -274.29689,451.22735 -272.64259,451.80157 -271.54883,452.94999 C -270.45509,454.09844 -269.90822,455.83933 -269.9082,458.17265 M -262.22461,447.24882 L -262.22461,451.59648 L -257.04297,451.59648 L -257.04297,453.55155 L -262.22461,453.55155 L -262.22461,461.86405 C -262.22461,463.11276 -262.05599,463.91484 -261.71875,464.2703 C -261.3724,464.62578 -260.67514,464.80351 -259.62695,464.80351 L -257.04297,464.80351 L -257.04297,466.90898 L -259.62695,466.90898 C -261.56837,466.90898 -262.90821,466.54895 -263.64648,465.8289 C -264.38477,465.09973 -264.75391,463.77812 -264.75391,461.86405 L -264.75391,453.55155 L -266.59961,453.55155 L -266.59961,451.59648 L -264.75391,451.59648 L -264.75391,447.24882 L -262.22461,447.24882 M -253.7207,451.59648 L -251.20508,451.59648 L -251.20508,466.90898 L -253.7207,466.90898 L -253.7207,451.59648 M -253.7207,445.63554 L -251.20508,445.63554 L -251.20508,448.82109 L -253.7207,448.82109 L -253.7207,445.63554 M -240.02148,453.36015 C -241.37045,453.36016 -242.43686,453.88881 -243.2207,454.94609 C -244.00456,455.99427 -244.39649,457.43438 -244.39648,459.2664 C -244.39649,461.09844 -244.00912,462.5431 -243.23438,463.60038 C -242.45053,464.64856 -241.37956,465.17265 -240.02148,465.17265 C -238.68165,465.17265 -237.6198,464.644 -236.83594,463.58671 C -236.0521,462.52942 -235.66017,461.08932 -235.66016,459.2664 C -235.66017,457.45261 -236.0521,456.01706 -236.83594,454.95976 C -237.6198,453.89336 -238.68165,453.36016 -240.02148,453.36015 M -240.02148,451.22734 C -237.834,451.22735 -236.1159,451.93829 -234.86719,453.36015 C -233.6185,454.78204 -232.99416,456.75078 -232.99414,459.2664 C -232.99416,461.77291 -233.6185,463.74166 -234.86719,465.17265 C -236.1159,466.59452 -237.834,467.30546 -240.02148,467.30546 C -242.21811,467.30546 -243.94076,466.59452 -245.18945,465.17265 C -246.42904,463.74166 -247.04883,461.77291 -247.04883,459.2664 C -247.04883,456.75078 -246.42904,454.78204 -245.18945,453.36015 C -243.94076,451.93829 -242.21811,451.22735 -240.02148,451.22734 M -216.10938,457.66679 L -216.10938,466.90898 L -218.625,466.90898 L -218.625,457.74882 C -218.62501,456.29961 -218.90756,455.21498 -219.47266,454.49491 C -220.03777,453.77488 -220.88543,453.41485 -222.01562,453.41484 C -223.37371,453.41485 -224.44467,453.84779 -225.22852,454.71366 C -226.01238,455.57956 -226.4043,456.7599 -226.4043,458.25468 L -226.4043,466.90898 L -228.93359,466.90898 L -228.93359,451.59648 L -226.4043,451.59648 L -226.4043,453.97538 C -225.80274,453.05482 -225.09636,452.36667 -224.28516,451.91093 C -223.46485,451.45522 -222.52149,451.22735 -221.45508,451.22734 C -219.69598,451.22735 -218.36525,451.77423 -217.46289,452.86796 C -216.56056,453.95261 -216.10939,455.55222 -216.10938,457.66679"
       id="flowRoot12461" />
    <path
       transform="translate(-6.5000001,25.862183)"
       style="fill:none;fill-rule:evenodd;stroke:#ff0000;stroke-width:1px;stroke-linecap:butt;stroke-linejoin:miter;stroke-opacity:1"
       d="M 678.82843,122.17157 L 660.46447,159.94975"
       id="path12469" />
  </g>
</svg>
